<svg width="17" height="16" viewBox="0 0 17 16" fill="none" xmlns="http://www.w3.org/2000/svg">
<path d="M1.83398 8.00008C1.83398 5.48592 1.83398 4.22885 2.61503 3.4478C3.39608 2.66675 4.65316 2.66675 7.16732 2.66675H9.83398C12.3481 2.66675 13.6052 2.66675 14.3863 3.4478C15.1673 4.22885 15.1673 5.48592 15.1673 8.00008V9.33341C15.1673 11.8476 15.1673 13.1047 14.3863 13.8857C13.6052 14.6667 12.3481 14.6667 9.83398 14.6667H7.16732C4.65316 14.6667 3.39608 14.6667 2.61503 13.8857C1.83398 13.1047 1.83398 11.8476 1.83398 9.33341V8.00008Z" stroke="#7E9D00" stroke-width="1.5"/>
<path d="M5.16602 2.66675V1.66675" stroke="#7E9D00" stroke-width="1.5" stroke-linecap="round"/>
<path d="M11.834 2.66675V1.66675" stroke="#7E9D00" stroke-width="1.5" stroke-linecap="round"/>
<path d="M2.16602 6H14.8327" stroke="#7E9D00" stroke-width="1.5" stroke-linecap="round"/>
<path d="M12.4993 11.3333C12.4993 11.7015 12.2009 12 11.8327 12C11.4645 12 11.166 11.7015 11.166 11.3333C11.166 10.9651 11.4645 10.6667 11.8327 10.6667C12.2009 10.6667 12.4993 10.9651 12.4993 11.3333Z" fill="#7E9D00"/>
<path d="M12.4993 8.66667C12.4993 9.03486 12.2009 9.33333 11.8327 9.33333C11.4645 9.33333 11.166 9.03486 11.166 8.66667C11.166 8.29848 11.4645 8 11.8327 8C12.2009 8 12.4993 8.29848 12.4993 8.66667Z" fill="#7E9D00"/>
<path d="M9.16732 11.3333C9.16732 11.7015 8.86884 12 8.50065 12C8.13246 12 7.83398 11.7015 7.83398 11.3333C7.83398 10.9651 8.13246 10.6667 8.50065 10.6667C8.86884 10.6667 9.16732 10.9651 9.16732 11.3333Z" fill="#7E9D00"/>
<path d="M9.16732 8.66667C9.16732 9.03486 8.86884 9.33333 8.50065 9.33333C8.13246 9.33333 7.83398 9.03486 7.83398 8.66667C7.83398 8.29848 8.13246 8 8.50065 8C8.86884 8 9.16732 8.29848 9.16732 8.66667Z" fill="#7E9D00"/>
<path d="M5.83333 11.3333C5.83333 11.7015 5.53486 12 5.16667 12C4.79848 12 4.5 11.7015 4.5 11.3333C4.5 10.9651 4.79848 10.6667 5.16667 10.6667C5.53486 10.6667 5.83333 10.9651 5.83333 11.3333Z" fill="#7E9D00"/>
<path d="M5.83333 8.66667C5.83333 9.03486 5.53486 9.33333 5.16667 9.33333C4.79848 9.33333 4.5 9.03486 4.5 8.66667C4.5 8.29848 4.79848 8 5.16667 8C5.53486 8 5.83333 8.29848 5.83333 8.66667Z" fill="#7E9D00"/>
</svg>
