<svg width="140" height="140" viewBox="0 0 140 140" fill="none" xmlns="http://www.w3.org/2000/svg">
<g clip-path="url(#clip0_10735_34754)">
<circle cx="70" cy="70" r="70" fill="url(#paint0_linear_10735_34754)"/>
<rect x="7.26953" y="133.164" width="63.7502" height="10.5" rx="2" transform="rotate(-50.7644 7.26953 133.164)" fill="white" stroke="#2A2B3B" stroke-width="3"/>
<path d="M79.334 115.659C79.334 114.716 79.334 114.244 79.6269 113.952C79.9198 113.659 80.3912 113.659 81.334 113.659H99.2806V126.363V139.066H81.334C80.3912 139.066 79.9198 139.066 79.6269 138.773C79.334 138.481 79.334 138.009 79.334 137.066V126.363V115.659Z" fill="#FAFAFA" stroke="#2A2B3B" stroke-width="3"/>
<path d="M99.2891 90.3477C99.2891 89.4048 99.2891 88.9334 99.582 88.6405C99.8748 88.3477 100.346 88.3477 101.289 88.3477H119.236V113.755V139.163H99.2891V113.755V90.3477Z" fill="#FAFAFA"/>
<path d="M99.2891 113.755V139.163H119.236V113.755M99.2891 113.755V90.3477C99.2891 89.4048 99.2891 88.9334 99.582 88.6405C99.8748 88.3477 100.346 88.3477 101.289 88.3477H119.236V113.755M99.2891 113.755H119.236" stroke="#2A2B3B" stroke-width="3"/>
<path d="M119.223 81.3333C119.223 80.3904 119.223 79.919 119.516 79.6261C119.808 79.3333 120.28 79.3333 121.223 79.3333H137.169C138.112 79.3333 138.584 79.3333 138.876 79.6261C139.169 79.919 139.169 80.3904 139.169 81.3333V99.5099V137.116C139.169 138.059 139.169 138.53 138.876 138.823C138.584 139.116 138.112 139.116 137.169 139.116H119.223V99.5099V81.3333Z" fill="#FAFAFA"/>
<path d="M119.223 99.5099V139.116H137.169C138.112 139.116 138.584 139.116 138.876 138.823C139.169 138.53 139.169 138.059 139.169 137.116V99.5099M119.223 99.5099V81.3333C119.223 80.3904 119.223 79.919 119.516 79.6261C119.808 79.3333 120.28 79.3333 121.223 79.3333H137.169C138.112 79.3333 138.584 79.3333 138.876 79.6261C139.169 79.919 139.169 80.3904 139.169 81.3333V99.5099M119.223 99.5099H139.169" stroke="#2A2B3B" stroke-width="3"/>
<path fill-rule="evenodd" clip-rule="evenodd" d="M42.7604 106.301C39.7099 104.324 36.8877 102.026 34.3418 99.4533L37.9172 95.0833L46.0839 101.5L42.7604 106.301ZM114.422 87.5C110.762 94.4537 105.517 100.443 99.1672 104.988V87.5H114.422Z" fill="#2A2B3B"/>
<path d="M0 138.833H140" stroke="#2A2B3B" stroke-width="3"/>
<circle cx="45.3019" cy="45.3019" r="43.8019" transform="matrix(-1 0 0 1 115.104 18.6667)" fill="white" stroke="#2A2B3B" stroke-width="3"/>
<circle cx="45.3019" cy="45.3019" r="43.8019" transform="matrix(-1 0 0 1 115.104 18.6667)" fill="white" stroke="#2A2B3B" stroke-width="3"/>
<circle cx="38.5" cy="38.5" r="37" transform="matrix(-1 0 0 1 108.104 25.3203)" fill="white" stroke="#2A2B3B" stroke-width="3"/>
<mask id="mask0_10735_34754" style="mask-type:alpha" maskUnits="userSpaceOnUse" x="32" y="25" width="76" height="77">
<ellipse cx="37.3333" cy="37.9167" rx="37.3333" ry="37.9167" transform="matrix(-1 0 0 1 107.334 25.6667)" fill="#2A2B3B"/>
</mask>
<g mask="url(#mask0_10735_34754)">
<path d="M34.5996 86.0183C34.5996 85.0755 34.5996 84.6041 34.8925 84.3112C35.1854 84.0183 35.6568 84.0183 36.5996 84.0183H63.9947V102.74V121.461H36.5996C35.6568 121.461 35.1854 121.461 34.8925 121.168C34.5996 120.875 34.5996 120.404 34.5996 119.461V102.74V86.0183Z" stroke="#2A2B3B" stroke-width="3"/>
<path d="M64.1621 84.0001V121.607H93.3288L93.3288 84.0001M64.1621 84.0001V48.7214C64.1621 47.7786 64.1621 47.3072 64.455 47.0143C64.7479 46.7214 65.2193 46.7214 66.1621 46.7214H93.3288L93.3288 84.0001M64.1621 84.0001H93.3288" stroke="#2A2B3B" stroke-width="3"/>
<path d="M93.3301 63.0024V121.369H120.782C121.725 121.369 122.196 121.369 122.489 121.076C122.782 120.784 122.782 120.312 122.782 119.369V63.0024M93.3301 63.0024V35.2683C93.3301 34.3255 93.3301 33.8541 93.623 33.5612C93.9159 33.2683 94.3873 33.2683 95.3301 33.2683H120.782C121.725 33.2683 122.196 33.2683 122.489 33.5612C122.782 33.8541 122.782 34.3255 122.782 35.2683V63.0024M93.3301 63.0024H122.782" stroke="#2A2B3B" stroke-width="3"/>
</g>
<path d="M115.5 45.131C127.098 45.131 136.5 35.8116 136.5 24.3155C136.5 12.8194 127.098 3.5 115.5 3.5C103.902 3.5 94.5 12.8194 94.5 24.3155C94.5 27.9429 95.4361 31.3535 97.0818 34.3231C97.7693 35.5636 98.1131 36.1839 98.2376 36.6055C98.3697 37.0531 98.4034 37.2901 98.4013 37.7568C98.3993 38.1964 98.2827 38.709 98.0496 39.7341C97.6231 41.6102 97.4098 42.5483 97.6832 43.1581C97.9213 43.6892 98.3788 44.0902 98.9365 44.2566C99.5769 44.4476 100.482 44.1119 102.293 43.4405L102.293 43.4405C103.286 43.0722 103.783 42.8881 104.221 42.8286C104.677 42.7667 104.914 42.7689 105.369 42.839C105.806 42.9064 106.467 43.1652 107.788 43.6827C110.176 44.6174 112.777 45.131 115.5 45.131Z" fill="white" stroke="#2A2B3B" stroke-width="3"/>
<circle cx="115.499" cy="24.5001" r="12.8333" fill="#2A2B3B"/>
<path d="M109.666 18.6667L121.333 30.3334M121.333 18.6667L109.666 30.3334" stroke="#FAFAFA" stroke-width="3"/>
</g>
<defs>
<linearGradient id="paint0_linear_10735_34754" x1="68.0188" y1="0" x2="68.0188" y2="140" gradientUnits="userSpaceOnUse">
<stop stop-color="white"/>
<stop offset="1" stop-color="white" stop-opacity="0"/>
</linearGradient>
<clipPath id="clip0_10735_34754">
<rect width="140" height="140" fill="white"/>
</clipPath>
</defs>
</svg>
