<svg width="16" height="16" viewBox="0 0 16 16" fill="none" xmlns="http://www.w3.org/2000/svg">
<path d="M11.6883 10.2361C11.556 10.2361 11.4267 10.1968 11.3168 10.123C11.2068 10.0493 11.1211 9.94452 11.0705 9.82193C11.0199 9.69933 11.0066 9.56442 11.0324 9.43427C11.0582 9.30412 11.1219 9.18457 11.2155 9.09074C11.309 8.99691 11.4281 8.93301 11.5578 8.90712C11.6875 8.88123 11.822 8.89452 11.9442 8.9453C12.0664 8.99608 12.1708 9.08208 12.2443 9.19241C12.3178 9.30275 12.357 9.43247 12.357 9.56517C12.357 9.74311 12.2865 9.91377 12.1611 10.0396C12.0357 10.1654 11.8656 10.2361 11.6883 10.2361ZM4.32564 10.2361C4.19339 10.2361 4.0641 10.1968 3.95413 10.123C3.84416 10.0493 3.75846 9.94452 3.70784 9.82193C3.65723 9.69933 3.64399 9.56442 3.66979 9.43427C3.69559 9.30412 3.75928 9.18457 3.8528 9.09074C3.94632 8.99691 4.06547 8.93301 4.19519 8.90712C4.3249 8.88123 4.45935 8.89452 4.58154 8.9453C4.70373 8.99608 4.80817 9.08208 4.88164 9.19241C4.95512 9.30275 4.99434 9.43247 4.99434 9.56517C4.99434 9.74311 4.92389 9.91377 4.79848 10.0396C4.67308 10.1654 4.50299 10.2361 4.32564 10.2361ZM11.9251 6.21046L13.2625 3.89711C13.2806 3.86543 13.2922 3.83049 13.2967 3.79429C13.3013 3.75809 13.2987 3.72135 13.289 3.68617C13.2794 3.65099 13.2629 3.61807 13.2405 3.5893C13.2182 3.56053 13.1903 3.53648 13.1587 3.51853C13.127 3.50058 13.0922 3.48908 13.0561 3.48469C13.02 3.4803 12.9834 3.48311 12.9483 3.49296C12.9133 3.50281 12.8806 3.51951 12.852 3.54209C12.8235 3.56467 12.7996 3.59269 12.7819 3.62454L11.4306 5.96584C10.3573 5.47375 9.19046 5.221 8.01045 5.22501C6.82906 5.22211 5.66066 5.4723 4.58337 5.95885L3.23204 3.61755C3.19582 3.55398 3.13599 3.50738 3.06562 3.48795C2.99526 3.46853 2.92009 3.47785 2.85655 3.51388C2.79302 3.54991 2.74629 3.60972 2.72659 3.68022C2.70689 3.75073 2.71581 3.8262 2.75142 3.89012L4.08185 6.20347C2.9315 6.83296 1.9558 7.74037 1.24307 8.84356C0.53034 9.94675 0.103091 11.2109 0 12.5215H16C15.9001 11.2118 15.4748 9.94808 14.763 8.84568C14.0512 7.74327 13.0756 6.8373 11.9251 6.21046Z" fill="#AAAAB1"/>
</svg>
