<svg width="17" height="16" viewBox="0 0 17 16" fill="none" xmlns="http://www.w3.org/2000/svg">
<path fill-rule="evenodd" clip-rule="evenodd" d="M3.61415 12.4235C2.73458 11.9736 1.79169 11.6381 0.979258 11.0814C0.725822 10.9044 0.561773 10.5874 0.505978 10.2849C0.472396 10.097 0.584157 9.87185 0.744357 9.76873C0.901066 9.66923 1.1545 9.87567 1.31086 9.76873C1.48593 9.65434 1.62025 9.41486 1.59403 9.20825C1.56796 9.00181 1.21397 8.94279 1.18407 8.73983C1.15433 8.53703 1.26242 8.29011 1.4375 8.17935C1.60891 8.06497 1.87352 8.27885 2.05244 8.17935C2.22769 8.07604 2.3767 7.84745 2.35064 7.64845C2.32825 7.45308 1.96305 7.41986 1.94068 7.22814C1.91077 6.94782 2.004 6.60866 2.22385 6.43162C2.37671 6.30634 2.64133 6.62716 2.80905 6.52385C3.00651 6.4022 3.12948 6.12551 3.09222 5.90056C3.06231 5.70883 2.67859 5.71627 2.65234 5.52454C2.61894 5.29958 2.76428 5.04504 2.95054 4.91595C3.09955 4.80901 3.33813 5.01562 3.50201 4.93066C3.66239 4.8495 3.79654 4.65778 3.78534 4.48074C3.778 4.29646 3.45741 4.22637 3.45741 4.04191C3.45374 3.76903 3.55431 3.45185 3.77048 3.27863C3.91215 3.16442 4.14687 3.43731 4.30725 3.35615C4.46011 3.275 4.54582 3.05749 4.5271 2.88774C4.50856 2.69618 4.21403 2.5965 4.21036 2.40478C4.21036 2.13916 4.30358 1.83704 4.51223 1.67108C4.67629 1.53818 4.97081 1.77057 5.14222 1.65256C5.28756 1.55669 5.32482 1.31703 5.26902 1.15489C5.20938 0.970605 4.85907 0.944649 4.8442 0.749293C4.82566 0.557564 5.01176 0.3584 5.19067 0.280877C5.36959 0.203354 5.58576 0.391451 5.77587 0.343518C5.96581 0.291951 6.06287 0.0154409 6.26418 0.000544395C6.42824 -0.0103569 6.58092 0.144515 6.67414 0.280868C6.77471 0.432105 6.67781 0.67539 6.80094 0.811933C6.89784 0.918873 7.08411 0.922507 7.22576 0.889282C7.40836 0.844984 7.51277 0.568465 7.69921 0.594251C7.94145 0.623839 8.14659 0.830285 8.28074 1.02946C8.36277 1.1511 8.19872 1.35027 8.28074 1.46829C8.38498 1.60845 8.58245 1.70432 8.75386 1.6858C8.95132 1.66365 9.04839 1.35773 9.24567 1.35773C9.49544 1.35773 9.76005 1.49408 9.9241 1.6858C10.0283 1.80745 9.85343 2.03241 9.93879 2.16893C10.047 2.34214 10.2408 2.52279 10.4456 2.51171C10.6506 2.50445 10.7104 2.12824 10.9154 2.12082C11.1652 2.11718 11.4148 2.28313 11.5638 2.48213C11.6831 2.64081 11.5153 2.90989 11.6273 3.07582C11.7201 3.21599 11.9326 3.32294 12.0967 3.27863C12.2906 3.21962 12.2978 2.86558 12.4956 2.82509C12.6931 2.78459 12.9278 2.92476 13.0469 3.09054C13.1627 3.25267 13.006 3.51466 13.1104 3.68423C13.2036 3.8391 13.3974 3.97926 13.5838 3.96455C13.7512 3.94984 13.7888 3.6401 13.9599 3.62158C14.1986 3.59216 14.5003 3.6548 14.6534 3.83909C14.7948 4.00867 14.5713 4.30751 14.6868 4.49543C14.7838 4.65394 15.0184 4.76451 15.2046 4.72765C15.4397 4.67972 15.5216 4.31461 15.7601 4.27411C15.95 4.24469 16.1626 4.39593 16.2633 4.55806C16.4235 4.81244 16.5465 5.13705 16.483 5.43192C16.3562 6.04397 15.9801 6.57501 15.7267 7.14657C14.1988 7.08012 12.8867 7.24244 11.3737 7.58541C11.1536 7.10228 10.8371 6.60462 10.8145 6.06992C10.7923 5.58317 11.042 5.07079 11.5302 4.90104C11.899 4.77195 12.309 4.90104 12.7004 4.90104C12.1973 4.76832 11.6456 4.56551 11.1202 4.62072C10.0171 4.7351 9.07022 5.22169 9.13388 6.49751C9.15977 7.04329 9.3539 7.62229 9.5141 8.14572C8.15006 8.69133 6.92377 9.3551 5.79095 10.1736C5.47422 9.44351 5.0791 8.75759 5.19089 7.92803C5.39587 6.40509 6.12641 6.11751 7.24072 5.21035C5.66417 5.85562 4.36354 6.47512 3.83442 8.17858C3.46923 9.35475 3.82707 10.3319 4.24437 11.4233C4.00178 11.6934 3.79296 12.0253 3.61422 12.4235L3.61415 12.4235ZM11.88 8.34536C12.5696 9.09013 13.315 9.72812 14.0717 10.3476C14.5635 9.45887 15.0591 8.57394 15.5511 7.68534C14.0788 7.71839 13.2816 7.88433 11.8799 8.34531L11.88 8.34536ZM10.1098 9.04601C8.89882 9.77971 7.69124 10.4951 6.48005 11.4794C8.03788 13.6106 9.17474 14.5066 11.381 16C12.0778 14.6911 12.771 13.3858 13.4641 12.0805C12.0369 11.1957 11.0567 10.4252 10.11 9.04601H10.1098Z" fill="#AAAAB1"/>
</svg>
