<svg width="21" height="20" viewBox="0 0 21 20" fill="none" xmlns="http://www.w3.org/2000/svg">
<g clip-path="url(#clip0_5442_19232)">
<path d="M1.12109 13.4784C2.53402 17.2864 6.19945 20.0002 10.4991 20.0002C14.7987 20.0002 18.4642 17.2864 19.8771 13.4784L10.4991 12.6089L1.12109 13.4784Z" fill="#FFDA44"/>
<path d="M10.4991 0C6.19945 0 2.53402 2.71375 1.12109 6.52176L10.4991 7.39129L19.8771 6.52172C18.4642 2.71375 14.7987 0 10.4991 0Z" fill="black"/>
<path d="M1.12199 6.52197C0.720039 7.60529 0.5 8.77701 0.5 10.0002C0.5 11.2234 0.720039 12.3951 1.12199 13.4785H19.878C20.28 12.3951 20.5 11.2234 20.5 10.0002C20.5 8.77701 20.28 7.60529 19.878 6.52197H1.12199Z" fill="#D80027"/>
</g>
<defs>
<clipPath id="clip0_5442_19232">
<rect width="20" height="20" fill="white" transform="translate(0.5)"/>
</clipPath>
</defs>
</svg>
