<svg width="20" height="20" viewBox="0 0 20 20" fill="none" xmlns="http://www.w3.org/2000/svg">
<g clip-path="url(#clip0_5339_17293)">
<path d="M10 20C15.5228 20 20 15.5228 20 10C20 4.47715 15.5228 0 10 0C4.47715 0 0 4.47715 0 10C0 15.5228 4.47715 20 10 20Z" fill="#F0F0F0"/>
<path d="M9.9991 0C5.69945 0 2.03402 2.71375 0.621094 6.52176H19.3771C17.9642 2.71375 14.2988 0 9.9991 0Z" fill="#A2001D"/>
<path d="M9.9991 19.9998C14.2987 19.9998 17.9642 17.286 19.3771 13.478H0.621094C2.03402 17.286 5.69945 19.9998 9.9991 19.9998Z" fill="#0052B4"/>
</g>
<defs>
<clipPath id="clip0_5339_17293">
<rect width="20" height="20" fill="white"/>
</clipPath>
</defs>
</svg>
