<svg width="16" height="16" viewBox="0 0 16 16" fill="none" xmlns="http://www.w3.org/2000/svg">
<g clip-path="url(#clip0_5316_17632)">
<path d="M15.7121 8.36099C15.7121 7.12013 15.3969 5.95437 14.844 4.94138C17.2005 -0.485774 12.319 0.309143 12.0472 0.363259C11.013 0.569192 10.0562 0.89981 9.17358 1.31891C9.04343 1.31146 8.9125 1.30736 8.78055 1.30736C5.48677 1.30736 2.72967 3.64516 2.02403 6.77913C3.76007 4.79725 4.97502 3.99758 5.70258 3.67756C5.58645 3.78316 5.47276 3.88993 5.36094 3.9975C5.32371 4.03326 5.28785 4.06954 5.25112 4.10551C5.17739 4.17769 5.1038 4.24994 5.03194 4.32285C4.98918 4.36622 4.94757 4.40995 4.90545 4.45361C4.84171 4.51965 4.77811 4.58561 4.71588 4.65201C4.67168 4.69918 4.62856 4.7465 4.58515 4.79374C4.52701 4.85707 4.46923 4.92047 4.41253 4.98409C4.36848 5.03353 4.32515 5.08296 4.28188 5.13255C4.22813 5.19412 4.17488 5.25569 4.12234 5.31742C4.07879 5.36861 4.0356 5.4198 3.99291 5.47106C3.94311 5.53088 3.89396 5.5907 3.84531 5.65052C3.80226 5.70347 3.75935 5.75634 3.71724 5.80921C3.67168 5.8664 3.62712 5.92351 3.58264 5.98055C3.53952 6.03584 3.4964 6.09105 3.45429 6.14627C3.41419 6.19885 3.37524 6.25121 3.336 6.30364C3.29173 6.36287 3.2471 6.42211 3.20398 6.48105C3.17315 6.52325 3.14354 6.56501 3.11329 6.60706C2.83941 6.98733 2.58918 7.36029 2.36316 7.71855C2.36259 7.71943 2.36201 7.7203 2.36151 7.72118C2.30201 7.81552 2.24459 7.90847 2.18832 8.00061C2.1853 8.00558 2.18213 8.01063 2.17912 8.01567C2.12277 8.10818 2.06837 8.19908 2.01534 8.28903C2.01347 8.29218 2.01153 8.2954 2.00966 8.29854C1.86708 8.54067 1.73485 8.7741 1.61577 8.99371C0.991478 10.145 0.687561 10.9493 0.67441 10.9971C-1.29699 18.169 4.8558 15.1404 5.71437 14.6883C6.63884 15.153 7.67958 15.4146 8.78055 15.4146C11.7946 15.4146 14.3589 13.4569 15.3134 10.7229H11.6713C11.1324 11.6494 10.0949 12.2769 8.90294 12.2769C7.15655 12.2769 5.74088 10.9305 5.74088 9.26948H15.6554C15.6929 8.97199 15.7124 8.6688 15.7124 8.36099H15.7121ZM14.4173 1.41983C15.0142 1.8298 15.4929 2.47363 14.6707 4.64185C13.8822 3.35133 12.6958 2.339 11.2856 1.78256C11.9271 1.46729 13.5157 0.8005 14.4173 1.41983ZM1.73169 14.6738C1.24552 14.1664 1.15957 12.9307 2.23237 10.6789C2.7738 12.263 3.85422 13.5903 5.25069 14.4326C4.55619 14.8216 2.71243 15.6974 1.73169 14.6738ZM5.72529 7.3404C5.7807 5.72606 7.16137 4.4335 8.85774 4.4335C10.554 4.4335 11.9348 5.72606 11.9902 7.3404H5.72529Z" fill="#AAAAB1"/>
</g>
<defs>
<clipPath id="clip0_5316_17632">
<rect width="16" height="16" fill="white"/>
</clipPath>
</defs>
</svg>
