<svg width="33" height="33" viewBox="0 0 33 33" fill="none" xmlns="http://www.w3.org/2000/svg">
<path d="M3.54297 16.5003C3.54297 10.2149 3.54297 7.07224 5.49559 5.11961C7.44821 3.16699 10.5909 3.16699 16.8763 3.16699C23.1617 3.16699 26.3044 3.16699 28.257 5.11961C30.2096 7.07224 30.2096 10.2149 30.2096 16.5003C30.2096 22.7857 30.2096 25.9284 28.257 27.881C26.3044 29.8337 23.1617 29.8337 16.8763 29.8337C10.5909 29.8337 7.44821 29.8337 5.49559 27.881C3.54297 25.9284 3.54297 22.7857 3.54297 16.5003Z" fill="#FAFAFA" stroke="#2A2B3B" stroke-width="1.5"/>
<path d="M20.875 16.5L16.875 16.5M16.875 16.5L12.875 16.5M16.875 16.5L16.875 12.5M16.875 16.5L16.875 20.5" stroke="#2A2B3B" stroke-width="1.5" stroke-linecap="round"/>
</svg>
