<svg width="120" height="120" viewBox="0 0 120 120" fill="none" xmlns="http://www.w3.org/2000/svg">
<g clip-path="url(#clip0_15084_45335)">
<rect width="120" height="120" fill="#EEF1E1"/>
<circle cx="77" cy="43" r="43" fill="url(#paint0_linear_15084_45335)"/>
<path d="M86.4906 47.7596C87.8729 39.3876 88.564 35.2017 86.3574 32.6008C84.1508 30 79.9081 30 71.4229 30H30.6933C23.1508 30 19.3796 30 16.6547 32.3118C13.9299 34.6237 13.3156 38.3446 12.0869 45.7863L2.93108 101.24C1.54882 109.612 0.857691 113.798 3.06432 116.399C5.27095 119 9.51358 119 17.9989 119H56.7284C65.2137 119 69.4563 119 72.5218 116.399C75.5872 113.798 76.2784 109.612 77.6606 101.24L86.4906 47.7596Z" fill="#2A2B3B" stroke="#2A2B3B" stroke-width="2"/>
<rect width="74.7296" height="90.2049" rx="9" transform="matrix(1 0 0.162901 0.986643 14.5752 30)" fill="#FAFAFA" stroke="#2A2B3B" stroke-width="2"/>
<rect width="52.8575" height="36.8183" rx="2" transform="matrix(1 0 0.162901 0.986643 27.3115 40.8984)" fill="#FAFAFA" stroke="#2A2B3B" stroke-width="2"/>
<path d="M33.1624 76.319L31.8823 68.5659C31.4485 65.9381 31.2316 64.6242 31.501 63.4265C31.7705 62.2289 32.5025 61.2541 33.9663 59.3045L34.4969 58.5978C38.4743 53.3006 40.463 50.652 43.5719 50.652C46.6809 50.652 49.5441 53.3006 55.2707 58.5978L62.5539 65.3349C63.7118 66.406 64.2907 66.9415 64.8457 67.2757C66.7265 68.4081 68.9487 68.4081 70.4555 67.2757C70.9002 66.9415 71.3023 66.406 72.1065 65.3349V65.3349C72.7498 64.4781 73.0715 64.0497 73.4272 63.7823C74.6327 62.8763 76.4104 62.8763 77.9151 63.7823C78.3591 64.0497 78.8222 64.4781 79.7485 65.3349L81.3126 66.7817C82.8571 68.2104 83.6294 68.9248 84.1937 69.7623C84.4648 70.1647 84.6987 70.5859 84.8919 71.0199C85.2941 71.9231 85.4531 72.886 85.7711 74.8117L86.0199 76.319" stroke="#2A2B3B" stroke-width="2"/>
<ellipse cx="4.55668" cy="4.60229" rx="4.55668" ry="4.60229" transform="matrix(1 0 0.162901 0.986643 61.1729 47.2578)" stroke="#2A2B3B" stroke-width="2"/>
<path d="M35.7197 86.3047H86.7545" stroke="#2A2B3B" stroke-width="2"/>
<path d="M37.2197 95.3906H70.9392" stroke="#2A2B3B" stroke-width="2"/>
<path d="M38.7188 104.469H81.5515" stroke="#2A2B3B" stroke-width="2"/>
<path d="M108.26 56.9472C109.974 55.2329 110.831 54.3757 111.88 54.2606C112.097 54.2367 112.317 54.2367 112.535 54.2606C113.583 54.3757 114.44 55.2329 116.154 56.9472C117.869 58.6615 118.726 59.5187 118.841 60.5669C118.865 60.7846 118.865 61.0042 118.841 61.2219C118.726 62.2701 117.869 63.1272 116.154 64.8416L87.3653 93.6305C86.6359 94.3599 86.2711 94.7247 85.8158 94.9453C85.3605 95.1659 84.8483 95.2262 83.8237 95.3467L79.4615 95.8599C78.3019 95.9964 77.7222 96.0646 77.3795 95.7219C77.0368 95.3792 77.1051 94.7995 77.2415 93.64L77.7547 89.2777C77.8752 88.2531 77.9355 87.7409 78.1561 87.2856C78.3767 86.8303 78.7415 86.4656 79.4709 85.7361L108.26 56.9472Z" fill="#FAFAFA"/>
<path d="M107.47 57.7366L115.365 65.631M104.313 60.8944L112.207 68.7888M78.5 87.5L85.5 94.5M79.4615 95.8599L83.8237 95.3467C84.8483 95.2262 85.3605 95.1659 85.8158 94.9453C86.2711 94.7247 86.6359 94.3599 87.3653 93.6305L116.154 64.8416C117.869 63.1272 118.726 62.2701 118.841 61.2219C118.865 61.0042 118.865 60.7846 118.841 60.5669C118.726 59.5187 117.869 58.6615 116.154 56.9472V56.9472C114.44 55.2329 113.583 54.3757 112.535 54.2606C112.317 54.2367 112.097 54.2367 111.88 54.2606C110.831 54.3757 109.974 55.2329 108.26 56.9472L79.4709 85.7361C78.7415 86.4656 78.3767 86.8303 78.1561 87.2856C77.9355 87.7409 77.8752 88.2531 77.7547 89.2777L77.2415 93.64C77.1051 94.7995 77.0368 95.3792 77.3795 95.7219C77.7222 96.0646 78.3019 95.9964 79.4615 95.8599Z" stroke="#2A2B3B" stroke-width="2" stroke-linejoin="round"/>
<path d="M0 119H120" stroke="#2A2B3B" stroke-width="2"/>
<path d="M100.5 97H78L85.5 95L98 84L100.5 97Z" fill="#2A2B3B"/>
<path d="M40.5549 117.976C41.0019 117.347 40.9861 116.646 40.8625 116.026C40.7467 115.445 40.4937 114.738 40.2055 113.933L40.1807 113.863L29.3198 83.5021L29.3021 83.4527C29.0719 82.809 28.8717 82.2492 28.6543 81.8062C28.42 81.3288 28.1255 80.8988 27.6596 80.572C27.1943 80.2455 26.6893 80.1143 26.1602 80.055C25.6683 79.9999 25.0713 80 24.3835 80L24.3314 80H20.8916L20.8398 80C20.1574 80 19.5649 79.9999 19.0765 80.0544C18.5509 80.113 18.0493 80.2425 17.5859 80.565C17.122 80.8877 16.8268 81.313 16.5907 81.7854C16.3716 82.2237 16.1685 82.7778 15.9351 83.4146L15.9172 83.4636L4.78429 113.835L4.75883 113.905C4.46215 114.714 4.20184 115.424 4.08091 116.007C3.95192 116.629 3.93066 117.334 4.37765 117.969C4.82346 118.602 5.49316 118.822 6.12222 118.914C6.7137 119 7.47288 119 8.34018 119H8.41356H9.81965H9.87274C10.5774 119 11.1884 119 11.6908 118.943C12.2311 118.881 12.7462 118.745 13.2175 118.406C13.6892 118.067 13.9812 117.622 14.2095 117.129C14.4215 116.672 14.6125 116.094 14.8324 115.429L14.8492 115.378L16.0478 111.755H29.0755L30.1608 115.276L30.1769 115.328C30.3873 116.011 30.57 116.604 30.7769 117.073C30.9997 117.579 31.2892 118.037 31.7659 118.387C32.242 118.737 32.7658 118.878 33.3156 118.941C33.827 119 34.45 119 35.1691 119H35.2231H36.5412H36.6143C37.4751 119 38.2291 119 38.8172 118.914C39.4432 118.823 40.109 118.604 40.5549 117.976ZM18.7774 102.952L22.619 91.2904L26.4206 102.952H18.7774ZM42.5987 118.292C43.0253 118.717 43.5446 118.872 44.0443 118.939C44.501 119 45.0643 119 45.6871 119L45.7477 119H48.1366L48.1972 119C48.82 119 49.3833 119 49.84 118.939C50.3397 118.872 50.859 118.717 51.2856 118.292C51.7131 117.867 51.871 117.349 51.9386 116.849C52.0001 116.394 52.0001 115.833 52 115.215L52 115.154V83.8462L52 83.7852C52.0001 83.1669 52.0001 82.6058 51.9386 82.1506C51.871 81.6511 51.7131 81.1325 51.2856 80.7076C50.859 80.2835 50.3397 80.1277 49.84 80.0609C49.3833 79.9999 48.82 79.9999 48.1972 80L48.1366 80H45.7477L45.6871 80C45.0643 79.9999 44.501 79.9999 44.0443 80.0609C43.5446 80.1277 43.0253 80.2835 42.5987 80.7076C42.1712 81.1325 42.0133 81.6511 41.9457 82.1506C41.8842 82.6058 41.8842 83.1669 41.8843 83.7852L41.8843 83.8462V115.154L41.8843 115.215C41.8842 115.833 41.8842 116.394 41.9457 116.849C42.0133 117.349 42.1712 117.867 42.5987 118.292Z" fill="#FAFAFA" stroke="#2A2B3B" stroke-width="2"/>
</g>
<defs>
<linearGradient id="paint0_linear_15084_45335" x1="75.783" y1="0" x2="75.783" y2="86" gradientUnits="userSpaceOnUse">
<stop stop-color="white"/>
<stop offset="1" stop-color="white" stop-opacity="0"/>
</linearGradient>
<clipPath id="clip0_15084_45335">
<rect width="120" height="120" fill="white"/>
</clipPath>
</defs>
</svg>
