<svg width="16" height="16" viewBox="0 0 16 16" fill="none" xmlns="http://www.w3.org/2000/svg">
<g clip-path="url(#clip0_16670_1606)">
<path d="M1.33203 8.00065C1.33203 4.85795 1.33203 3.28661 2.30834 2.3103C3.28465 1.33398 4.856 1.33398 7.9987 1.33398C11.1414 1.33398 12.7127 1.33398 13.6891 2.3103C14.6654 3.28661 14.6654 4.85795 14.6654 8.00065C14.6654 11.1433 14.6654 12.7147 13.6891 13.691C12.7127 14.6673 11.1414 14.6673 7.9987 14.6673C4.856 14.6673 3.28465 14.6673 2.30834 13.691C1.33203 12.7147 1.33203 11.1433 1.33203 8.00065Z" stroke="#6A6B76" stroke-width="1.5"/>
<path d="M4.66797 12V6" stroke="#6A6B76" stroke-width="1.5" stroke-linecap="round"/>
<path d="M8 12V4" stroke="#6A6B76" stroke-width="1.5" stroke-linecap="round"/>
<path d="M11.332 11.9993V8.66602" stroke="#6A6B76" stroke-width="1.5" stroke-linecap="round"/>
</g>
<defs>
<clipPath id="clip0_16670_1606">
<rect width="16" height="16" fill="white"/>
</clipPath>
</defs>
</svg>
