<svg width="16" height="16" viewBox="0 0 16 16" fill="none" xmlns="http://www.w3.org/2000/svg">
<path fill-rule="evenodd" clip-rule="evenodd" d="M2.30834 2.3103C1.33203 3.28661 1.33203 4.85795 1.33203 8.00065C1.33203 11.1433 1.33203 12.7147 2.30834 13.691C3.28465 14.6673 4.856 14.6673 7.9987 14.6673C11.1414 14.6673 12.7127 14.6673 13.6891 13.691C14.6654 12.7147 14.6654 11.1433 14.6654 8.00065C14.6654 4.85795 14.6654 3.28661 13.6891 2.3103C12.7127 1.33398 11.1414 1.33398 7.9987 1.33398C4.856 1.33398 3.28465 1.33398 2.30834 2.3103ZM11.332 8.16732C11.6082 8.16732 11.832 8.39118 11.832 8.66732V12.0007C11.832 12.2768 11.6082 12.5007 11.332 12.5007C11.0559 12.5007 10.832 12.2768 10.832 12.0007V8.66732C10.832 8.39118 11.0559 8.16732 11.332 8.16732ZM8.4987 4.00065C8.4987 3.72451 8.27484 3.50065 7.9987 3.50065C7.72256 3.50065 7.4987 3.72451 7.4987 4.00065V12.0007C7.4987 12.2768 7.72256 12.5007 7.9987 12.5007C8.27484 12.5007 8.4987 12.2768 8.4987 12.0007V4.00065ZM4.66536 5.50065C4.94151 5.50065 5.16536 5.72451 5.16536 6.00065V12.0007C5.16536 12.2768 4.94151 12.5007 4.66536 12.5007C4.38922 12.5007 4.16536 12.2768 4.16536 12.0007V6.00065C4.16536 5.72451 4.38922 5.50065 4.66536 5.50065Z" fill="#FAFAFA"/>
</svg>
