<svg width="16" height="16" viewBox="0 0 16 16" fill="none" xmlns="http://www.w3.org/2000/svg">
<ellipse cx="6.0026" cy="4.00065" rx="2.66667" ry="2.66667" fill="#FAFAFA"/>
<ellipse cx="6.0026" cy="11.3346" rx="4.66667" ry="2.66667" fill="#FAFAFA"/>
<path d="M13.9981 11.3331C13.9981 12.4377 12.6411 13.3331 10.9842 13.3331C11.4724 12.7996 11.808 12.1299 11.808 11.3341C11.808 10.5374 11.4716 9.86702 10.9825 9.33317C12.6394 9.33317 13.9981 10.2286 13.9981 11.3331Z" fill="#FAFAFA"/>
<path d="M11.9981 4C11.9981 5.10457 11.1027 6 9.99813 6C9.75727 6 9.52635 5.95742 9.3125 5.87939C9.62789 5.32466 9.80802 4.68299 9.80802 3.99926C9.80802 3.31602 9.62816 2.6748 9.3132 2.12036C9.52686 2.04248 9.75753 2 9.99813 2C11.1027 2 11.9981 2.89543 11.9981 4Z" fill="#FAFAFA"/>
</svg>
