<svg width="12" height="12" viewBox="0 0 12 12" fill="none" xmlns="http://www.w3.org/2000/svg">
<g clip-path="url(#clip0_16448_79716)">
<path d="M3.33777 5.97314C3.46556 6.13612 3.70127 6.16466 3.86426 6.03687C4.02724 5.90909 4.05578 5.67337 3.928 5.51039C3.72771 5.25493 3.55506 4.97124 3.42327 4.67185C3.33982 4.4823 3.11851 4.39628 2.92896 4.47972C2.73941 4.56317 2.65339 4.78448 2.73684 4.97403C2.89518 5.33371 3.10089 5.671 3.33777 5.97314Z" fill="#FAFAFA"/>
<path d="M2.41973 3.83585C2.44424 4.0415 2.63082 4.18835 2.83647 4.16384C3.04212 4.13933 3.18897 3.95275 3.16446 3.74709C3.12723 3.4347 3.14202 3.12126 3.21887 2.8161C3.26944 2.61526 3.14763 2.41145 2.94679 2.36088C2.74596 2.31031 2.54215 2.43212 2.49157 2.63296C2.3903 3.03511 2.37271 3.4413 2.41973 3.83585Z" fill="#FAFAFA"/>
<path d="M3.00375 1.53967C2.88286 1.70784 2.92119 1.94216 3.08936 2.06304C3.25753 2.18393 3.49185 2.1456 3.61274 1.97743C3.70123 1.85432 3.8042 1.7328 3.92316 1.61383C4.06961 1.46739 4.06961 1.22995 3.92316 1.0835C3.77671 0.937056 3.53928 0.937056 3.39283 1.0835C3.2462 1.23014 3.11673 1.38249 3.00375 1.53967Z" fill="#FAFAFA"/>
<path d="M8.81799 6.02686C8.6902 5.86388 8.45449 5.83534 8.2915 5.96313C8.12852 6.09091 8.09998 6.32663 8.22777 6.48961C8.42805 6.74507 8.6007 7.02876 8.7325 7.32815C8.81594 7.5177 9.03725 7.60372 9.2268 7.52028C9.41635 7.43683 9.50237 7.21552 9.41893 7.02597C9.26059 6.66629 9.05487 6.329 8.81799 6.02686Z" fill="#FAFAFA"/>
<path d="M9.73603 8.16415C9.71152 7.9585 9.52494 7.81165 9.31929 7.83616C9.11364 7.86067 8.96679 8.04725 8.9913 8.25291C9.02854 8.5653 9.01374 8.87874 8.93689 9.1839C8.88632 9.38474 9.00813 9.58855 9.20897 9.63912C9.40981 9.68969 9.61362 9.56788 9.66419 9.36704C9.76546 8.96489 9.78306 8.5587 9.73603 8.16415Z" fill="#FAFAFA"/>
<path d="M9.15201 10.4603C9.2729 10.2922 9.23457 10.0578 9.0664 9.93696C8.89823 9.81607 8.66391 9.8544 8.54303 10.0226C8.45453 10.1457 8.35157 10.2672 8.2326 10.3862C8.08616 10.5326 8.08616 10.7701 8.2326 10.9165C8.37905 11.0629 8.61649 11.0629 8.76293 10.9165C8.90957 10.7699 9.03903 10.6175 9.15201 10.4603Z" fill="#FAFAFA"/>
<path d="M6.04076 3.78638C5.91298 3.62339 5.94151 3.38768 6.1045 3.25989C6.40664 3.02301 6.74393 2.81729 7.10361 2.65896C7.29316 2.57551 7.51447 2.66153 7.59791 2.85108C7.68136 3.04063 7.59534 3.26194 7.40579 3.34538C7.1064 3.47718 6.8227 3.64983 6.56725 3.85011C6.40426 3.9779 6.16855 3.94936 6.04076 3.78638Z" fill="#FAFAFA"/>
<path d="M7.9138 2.75859C7.88929 2.55294 8.03614 2.36636 8.24179 2.34185C8.63634 2.29482 9.04253 2.31242 9.44468 2.41369C9.64552 2.46426 9.76733 2.66807 9.71676 2.86891C9.66618 3.06975 9.46237 3.19156 9.26154 3.14099C8.95638 3.06414 8.64293 3.04935 8.33054 3.08658C8.12489 3.11109 7.93831 2.96424 7.9138 2.75859Z" fill="#FAFAFA"/>
<path d="M10.0146 3.01148C10.1355 2.84331 10.3698 2.80498 10.538 2.92587C10.6951 3.03885 10.8475 3.16831 10.9941 3.31495C11.1406 3.46139 11.1406 3.69883 10.9941 3.84528C10.8477 3.99172 10.6103 3.99172 10.4638 3.84528C10.3448 3.72632 10.2233 3.62335 10.1002 3.53485C9.93204 3.41397 9.89371 3.17965 10.0146 3.01148Z" fill="#FAFAFA"/>
<path d="M6.05126 8.74011C6.21425 8.61232 6.24278 8.37661 6.115 8.21362C5.98721 8.05064 5.7515 8.0221 5.58851 8.14989C5.33306 8.35017 5.04936 8.52282 4.74997 8.65461C4.56042 8.73806 4.47441 8.95937 4.55785 9.14892C4.6413 9.33847 4.8626 9.42449 5.05216 9.34104C5.41184 9.1827 5.74913 8.97699 6.05126 8.74011Z" fill="#FAFAFA"/>
<path d="M3.91398 9.65815C4.11963 9.63364 4.26647 9.44706 4.24196 9.24141C4.21745 9.03576 4.03087 8.88891 3.82522 8.91342C3.51283 8.95065 3.19939 8.93586 2.89423 8.85901C2.69339 8.80844 2.48958 8.93025 2.43901 9.13109C2.38843 9.33193 2.51025 9.53574 2.71108 9.58631C3.11323 9.68758 3.51942 9.70518 3.91398 9.65815Z" fill="#FAFAFA"/>
<path d="M1.6178 9.07413C1.78596 9.19502 2.02029 9.15669 2.14117 8.98852C2.26205 8.82035 2.22372 8.58603 2.05556 8.46515C1.93245 8.37665 1.81092 8.27368 1.69196 8.15472C1.54551 8.00828 1.30808 8.00828 1.16163 8.15472C1.01518 8.30117 1.01518 8.53861 1.16163 8.68505C1.30826 8.83169 1.46062 8.96115 1.6178 9.07413Z" fill="#FAFAFA"/>
<path d="M6.8731 7.90855C6.7484 8.0739 6.51326 8.10685 6.3479 7.98215C6.25661 7.9133 6.20568 7.81079 6.19935 7.70494C5.55911 8.00766 4.74232 8.09641 3.9474 7.98379C2.34292 7.75649 0.625 6.65792 0.625 4.5C0.625 4.29289 0.792893 4.125 1 4.125C1.20711 4.125 1.375 4.29289 1.375 4.5C1.375 6.14208 2.65708 7.04351 4.0526 7.24121C4.37502 7.28688 4.69258 7.29226 4.98843 7.26146C4.70413 7.14999 4.42762 6.98977 4.16934 6.79498C4.00398 6.67027 3.97103 6.43513 4.09573 6.26978C4.17374 6.16635 4.29494 6.11472 4.41526 6.12108C4.14128 5.4933 4.06389 4.71028 4.17197 3.9474C4.39927 2.34292 5.49784 0.625 7.65576 0.625C7.86287 0.625 8.03076 0.792893 8.03076 1C8.03076 1.20711 7.86287 1.375 7.65576 1.375C6.01368 1.375 5.11225 2.65708 4.91455 4.0526C4.88022 4.29494 4.86866 4.53454 4.87811 4.76423C4.98393 4.53144 5.12146 4.3052 5.28266 4.09145C5.40737 3.9261 5.64251 3.89315 5.80786 4.01785C5.92496 4.10617 5.97566 4.24987 5.95098 4.38494C6.56605 4.13568 7.31864 4.06799 8.0526 4.17197C9.65708 4.39927 11.375 5.49784 11.375 7.65576C11.375 7.86287 11.2071 8.03076 11 8.03076C10.7929 8.03076 10.625 7.86287 10.625 7.65576C10.625 6.01368 9.34292 5.11225 7.9474 4.91455C7.78566 4.89164 7.62515 4.87887 7.46798 4.87572C7.64649 4.96866 7.82023 5.07968 7.98643 5.20502C8.15178 5.32973 8.18473 5.56487 8.06003 5.73022C7.98203 5.83365 7.86082 5.88528 7.74051 5.87892C8.01448 6.5067 8.09187 7.28972 7.98379 8.0526C7.75649 9.65708 6.65792 11.375 4.5 11.375C4.29289 11.375 4.125 11.2071 4.125 11C4.125 10.7929 4.29289 10.625 4.5 10.625C6.14208 10.625 7.04351 9.34292 7.24121 7.9474C7.27554 7.70506 7.2871 7.46546 7.27765 7.23576C7.17183 7.46856 7.03431 7.6948 6.8731 7.90855Z" fill="#FAFAFA"/>
</g>
<defs>
<clipPath id="clip0_16448_79716">
<rect width="12" height="12" fill="white"/>
</clipPath>
</defs>
</svg>
