<svg width="12" height="17" viewBox="0 0 12 17" fill="none" xmlns="http://www.w3.org/2000/svg">
<path fill-rule="evenodd" clip-rule="evenodd" d="M3.8025 15.5V17H6.3225V15.3592C6.77075 15.2798 7.19658 15.1667 7.6 15.02C8.49333 14.6867 9.25333 14.22 9.88 13.62C10.52 13.0067 11.0067 12.28 11.34 11.44C11.6867 10.6 11.86 9.66 11.86 8.62V8.22C11.86 7.20667 11.6867 6.28667 11.34 5.46C11.0067 4.63333 10.52 3.92667 9.88 3.34C9.25333 2.75333 8.49333 2.3 7.6 1.98C7.13702 1.81165 6.64452 1.68758 6.1225 1.6078V0H3.6025V1.5H0V15.5H3.8025ZM4.68 12.78H3.12V4.22H4.68C5.29333 4.22 5.84667 4.31333 6.34 4.5C6.83333 4.68667 7.24667 4.95333 7.58 5.3C7.92667 5.63333 8.18667 6.04667 8.36 6.54C8.53333 7.03333 8.62 7.58667 8.62 8.2V8.6C8.62 9.24 8.53333 9.82 8.36 10.34C8.18667 10.86 7.92667 11.3 7.58 11.66C7.24667 12.0067 6.83333 12.28 6.34 12.48C5.86 12.68 5.30667 12.78 4.68 12.78Z" fill="#2A2B3B"/>
</svg>
