<svg width="25" height="24" viewBox="0 0 25 24" fill="none" xmlns="http://www.w3.org/2000/svg">
<path d="M2.66675 12C2.66675 8.22876 2.66675 6.34315 3.83832 5.17157C5.00989 4 6.89551 4 10.6667 4H14.6667C18.438 4 20.3236 4 21.4952 5.17157C22.6667 6.34315 22.6667 8.22876 22.6667 12V14C22.6667 17.7712 22.6667 19.6569 21.4952 20.8284C20.3236 22 18.438 22 14.6667 22H10.6667C6.89551 22 5.00989 22 3.83832 20.8284C2.66675 19.6569 2.66675 17.7712 2.66675 14V12Z" stroke="#D36700" stroke-width="1.5"/>
<path d="M7.66675 4V2.5" stroke="#D36700" stroke-width="1.5" stroke-linecap="round"/>
<path d="M17.6667 4V2.5" stroke="#D36700" stroke-width="1.5" stroke-linecap="round"/>
<path d="M3.16675 9H22.1667" stroke="#D36700" stroke-width="1.5" stroke-linecap="round"/>
<path d="M18.6667 17C18.6667 17.5523 18.219 18 17.6667 18C17.1145 18 16.6667 17.5523 16.6667 17C16.6667 16.4477 17.1145 16 17.6667 16C18.219 16 18.6667 16.4477 18.6667 17Z" fill="#D36700"/>
<path d="M18.6667 13C18.6667 13.5523 18.219 14 17.6667 14C17.1145 14 16.6667 13.5523 16.6667 13C16.6667 12.4477 17.1145 12 17.6667 12C18.219 12 18.6667 12.4477 18.6667 13Z" fill="#D36700"/>
<path d="M13.6667 17C13.6667 17.5523 13.219 18 12.6667 18C12.1145 18 11.6667 17.5523 11.6667 17C11.6667 16.4477 12.1145 16 12.6667 16C13.219 16 13.6667 16.4477 13.6667 17Z" fill="#D36700"/>
<path d="M13.6667 13C13.6667 13.5523 13.219 14 12.6667 14C12.1145 14 11.6667 13.5523 11.6667 13C11.6667 12.4477 12.1145 12 12.6667 12C13.219 12 13.6667 12.4477 13.6667 13Z" fill="#D36700"/>
<path d="M8.66675 17C8.66675 17.5523 8.21903 18 7.66675 18C7.11446 18 6.66675 17.5523 6.66675 17C6.66675 16.4477 7.11446 16 7.66675 16C8.21903 16 8.66675 16.4477 8.66675 17Z" fill="#D36700"/>
<path d="M8.66675 13C8.66675 13.5523 8.21903 14 7.66675 14C7.11446 14 6.66675 13.5523 6.66675 13C6.66675 12.4477 7.11446 12 7.66675 12C8.21903 12 8.66675 12.4477 8.66675 13Z" fill="#D36700"/>
</svg>
