<svg width="25" height="24" viewBox="0 0 25 24" fill="none" xmlns="http://www.w3.org/2000/svg">
<path d="M2.6665 12C2.6665 8.22876 2.6665 6.34315 3.83808 5.17157C5.00965 4 6.89527 4 10.6665 4H14.6665C18.4377 4 20.3234 4 21.4949 5.17157C22.6665 6.34315 22.6665 8.22876 22.6665 12V14C22.6665 17.7712 22.6665 19.6569 21.4949 20.8284C20.3234 22 18.4377 22 14.6665 22H10.6665C6.89527 22 5.00965 22 3.83808 20.8284C2.6665 19.6569 2.6665 17.7712 2.6665 14V12Z" stroke="#6A6B76" stroke-width="1.5"/>
<path d="M7.6665 4V2.5" stroke="#6A6B76" stroke-width="1.5" stroke-linecap="round"/>
<path d="M17.6665 4V2.5" stroke="#2A2B3B" stroke-width="1.5" stroke-linecap="round"/>
<path d="M3.1665 9H22.1665" stroke="#2A2B3B" stroke-width="1.5" stroke-linecap="round"/>
<path d="M18.6665 17C18.6665 17.5523 18.2188 18 17.6665 18C17.1142 18 16.6665 17.5523 16.6665 17C16.6665 16.4477 17.1142 16 17.6665 16C18.2188 16 18.6665 16.4477 18.6665 17Z" fill="#2A2B3B"/>
<path d="M18.6665 13C18.6665 13.5523 18.2188 14 17.6665 14C17.1142 14 16.6665 13.5523 16.6665 13C16.6665 12.4477 17.1142 12 17.6665 12C18.2188 12 18.6665 12.4477 18.6665 13Z" fill="#2A2B3B"/>
<path d="M13.6665 17C13.6665 17.5523 13.2188 18 12.6665 18C12.1142 18 11.6665 17.5523 11.6665 17C11.6665 16.4477 12.1142 16 12.6665 16C13.2188 16 13.6665 16.4477 13.6665 17Z" fill="#2A2B3B"/>
<path d="M13.6665 13C13.6665 13.5523 13.2188 14 12.6665 14C12.1142 14 11.6665 13.5523 11.6665 13C11.6665 12.4477 12.1142 12 12.6665 12C13.2188 12 13.6665 12.4477 13.6665 13Z" fill="#2A2B3B"/>
<path d="M8.6665 17C8.6665 17.5523 8.21879 18 7.6665 18C7.11422 18 6.6665 17.5523 6.6665 17C6.6665 16.4477 7.11422 16 7.6665 16C8.21879 16 8.6665 16.4477 8.6665 17Z" fill="#2A2B3B"/>
<path d="M8.6665 13C8.6665 13.5523 8.21879 14 7.6665 14C7.11422 14 6.6665 13.5523 6.6665 13C6.6665 12.4477 7.11422 12 7.6665 12C8.21879 12 8.6665 12.4477 8.6665 13Z" fill="#2A2B3B"/>
</svg>
