<svg width="245" height="46" viewBox="0 0 245 46" fill="none" xmlns="http://www.w3.org/2000/svg">
<path d="M1.68167 24.4948C0.786641 23.6992 0.786641 22.3008 1.68167 21.5052L7.32182 16.4917C8.38926 15.5429 9 14.1829 9 12.7547V11V35V33.2453C9 31.8171 8.38926 30.4571 7.32182 29.5083L1.68167 24.4948Z" fill="#EAEAEC"/>
<rect x="9" width="236" height="46" rx="10" fill="#EAEAEC"/>
<path d="M27.516 27.132C27.228 27.132 26.94 27.104 26.652 27.048C26.372 26.992 26.096 26.912 25.824 26.808C25.56 26.704 25.304 26.58 25.056 26.436C24.816 26.284 24.6 26.116 24.408 25.932L25.152 24.948C25.304 25.116 25.476 25.26 25.668 25.38C25.86 25.5 26.06 25.6 26.268 25.68C26.484 25.76 26.7 25.824 26.916 25.872C27.14 25.912 27.356 25.932 27.564 25.932C27.82 25.932 28.044 25.908 28.236 25.86C28.436 25.804 28.6 25.728 28.728 25.632C28.864 25.536 28.968 25.416 29.04 25.272C29.112 25.12 29.148 24.948 29.148 24.756C29.148 24.468 29.076 24.24 28.932 24.072C28.788 23.904 28.592 23.76 28.344 23.64C28.096 23.52 27.812 23.416 27.492 23.328C27.172 23.232 26.84 23.124 26.496 23.004C26.24 22.916 26 22.816 25.776 22.704C25.552 22.584 25.356 22.44 25.188 22.272C25.02 22.096 24.888 21.888 24.792 21.648C24.696 21.408 24.648 21.12 24.648 20.784C24.648 20.44 24.712 20.128 24.84 19.848C24.968 19.56 25.148 19.316 25.38 19.116C25.62 18.908 25.904 18.748 26.232 18.636C26.56 18.524 26.928 18.468 27.336 18.468C27.872 18.468 28.38 18.56 28.86 18.744C29.34 18.928 29.764 19.18 30.132 19.5L29.412 20.496C29.132 20.216 28.8 20.008 28.416 19.872C28.04 19.736 27.676 19.668 27.324 19.668C27.092 19.668 26.888 19.696 26.712 19.752C26.544 19.8 26.396 19.872 26.268 19.968C26.148 20.064 26.056 20.18 25.992 20.316C25.936 20.444 25.908 20.592 25.908 20.76C25.908 20.976 25.96 21.156 26.064 21.3C26.168 21.444 26.308 21.572 26.484 21.684C26.668 21.788 26.884 21.88 27.132 21.96C27.38 22.04 27.644 22.12 27.924 22.2C28.228 22.288 28.528 22.392 28.824 22.512C29.128 22.632 29.4 22.784 29.64 22.968C29.88 23.152 30.072 23.384 30.216 23.664C30.368 23.936 30.444 24.272 30.444 24.672C30.444 25.048 30.376 25.388 30.24 25.692C30.104 25.996 29.908 26.256 29.652 26.472C29.404 26.68 29.096 26.844 28.728 26.964C28.368 27.076 27.964 27.132 27.516 27.132ZM33.6163 27.048C33.3363 27.048 33.0923 27.012 32.8843 26.94C32.6763 26.868 32.5003 26.76 32.3563 26.616C32.2123 26.472 32.1043 26.288 32.0323 26.064C31.9603 25.84 31.9243 25.576 31.9243 25.272V21.78H31.0963V20.952C31.2163 20.912 31.3483 20.876 31.4923 20.844C31.6443 20.804 31.7883 20.776 31.9243 20.76V19.32L33.1123 19.164V20.76H34.9003V21.78H33.1003V25.044C33.1003 25.404 33.1683 25.652 33.3043 25.788C33.4483 25.916 33.6523 25.98 33.9163 25.98C33.9883 25.98 34.0723 25.98 34.1683 25.98C34.2643 25.972 34.3603 25.964 34.4563 25.956C34.5603 25.94 34.6563 25.924 34.7443 25.908C34.8403 25.892 34.9203 25.872 34.9843 25.848V26.832C34.8243 26.904 34.6083 26.96 34.3363 27C34.0643 27.032 33.8243 27.048 33.6163 27.048ZM37.8883 27.108C37.5843 27.108 37.3043 27.064 37.0483 26.976C36.8003 26.888 36.5843 26.764 36.4003 26.604C36.2243 26.444 36.0843 26.252 35.9803 26.028C35.8843 25.796 35.8363 25.54 35.8363 25.26V25.164C35.8363 24.484 36.1243 23.98 36.7003 23.652C37.2843 23.316 38.1763 23.148 39.3763 23.148H39.9163V22.8C39.9163 22.464 39.8043 22.2 39.5803 22.008C39.3643 21.808 39.0483 21.708 38.6323 21.708H38.5603C38.2403 21.708 37.9123 21.764 37.5763 21.876C37.2483 21.988 36.9443 22.148 36.6643 22.356L36.1363 21.456C36.5203 21.208 36.9203 21.012 37.3363 20.868C37.7603 20.716 38.1963 20.64 38.6443 20.64H38.7283C39.0963 20.64 39.4243 20.688 39.7123 20.784C40.0003 20.88 40.2443 21.024 40.4443 21.216C40.6523 21.4 40.8083 21.624 40.9123 21.888C41.0163 22.152 41.0683 22.448 41.0683 22.776V25.848C41.0683 26.04 41.0883 26.24 41.1283 26.448C41.1763 26.648 41.2283 26.832 41.2843 27H40.1203C40.0803 26.912 40.0443 26.8 40.0123 26.664C39.9883 26.528 39.9683 26.392 39.9523 26.256C39.6643 26.528 39.3443 26.74 38.9923 26.892C38.6483 27.036 38.2803 27.108 37.8883 27.108ZM38.0803 26.064C38.4483 26.064 38.7883 25.988 39.1003 25.836C39.4203 25.676 39.6923 25.464 39.9163 25.2V24.048H39.5323C38.6443 24.048 38.0003 24.132 37.6003 24.3C37.2003 24.468 37.0003 24.74 37.0003 25.116V25.176C37.0003 25.312 37.0243 25.436 37.0723 25.548C37.1283 25.652 37.2003 25.744 37.2883 25.824C37.3843 25.896 37.5003 25.956 37.6363 26.004C37.7723 26.044 37.9203 26.064 38.0803 26.064ZM42.9008 27V20.76H43.8128C43.8528 20.872 43.8888 21.004 43.9208 21.156C43.9608 21.3 43.9888 21.44 44.0048 21.576C44.2288 21.312 44.4968 21.112 44.8088 20.976C45.1288 20.832 45.4808 20.76 45.8648 20.76H46.0208V21.936C45.9728 21.92 45.9088 21.912 45.8288 21.912C45.7488 21.904 45.6728 21.9 45.6008 21.9C45.3448 21.9 45.1208 21.936 44.9288 22.008C44.7448 22.08 44.5888 22.192 44.4608 22.344C44.3328 22.488 44.2368 22.672 44.1728 22.896C44.1168 23.12 44.0888 23.38 44.0888 23.676V27H42.9008ZM49.296 27.048C49.016 27.048 48.772 27.012 48.564 26.94C48.356 26.868 48.18 26.76 48.036 26.616C47.892 26.472 47.784 26.288 47.712 26.064C47.64 25.84 47.604 25.576 47.604 25.272V21.78H46.776V20.952C46.896 20.912 47.028 20.876 47.172 20.844C47.324 20.804 47.468 20.776 47.604 20.76V19.32L48.792 19.164V20.76H50.58V21.78H48.78V25.044C48.78 25.404 48.848 25.652 48.984 25.788C49.128 25.916 49.332 25.98 49.596 25.98C49.668 25.98 49.752 25.98 49.848 25.98C49.944 25.972 50.04 25.964 50.136 25.956C50.24 25.94 50.336 25.924 50.424 25.908C50.52 25.892 50.6 25.872 50.664 25.848V26.832C50.504 26.904 50.288 26.96 50.016 27C49.744 27.032 49.504 27.048 49.296 27.048ZM58.3493 27.096C57.9253 27.096 57.5413 27.02 57.1973 26.868C56.8613 26.716 56.5693 26.5 56.3213 26.22C56.3053 26.356 56.2813 26.496 56.2493 26.64C56.2173 26.784 56.1853 26.904 56.1533 27H55.2173V18.36H56.4053V21.468C56.6453 21.212 56.9293 21.016 57.2573 20.88C57.5853 20.736 57.9493 20.664 58.3493 20.664H58.4453C58.8533 20.664 59.2293 20.74 59.5733 20.892C59.9173 21.036 60.2093 21.244 60.4492 21.516C60.6973 21.788 60.8893 22.112 61.0253 22.488C61.1613 22.856 61.2293 23.264 61.2293 23.712V24.048C61.2293 24.488 61.1613 24.896 61.0253 25.272C60.8893 25.648 60.6973 25.972 60.4492 26.244C60.2093 26.516 59.9173 26.728 59.5733 26.88C59.2293 27.024 58.8533 27.096 58.4453 27.096H58.3493ZM58.1453 26.052H58.2413C58.4973 26.052 58.7333 26.004 58.9493 25.908C59.1653 25.812 59.3493 25.676 59.5013 25.5C59.6533 25.316 59.7733 25.1 59.8613 24.852C59.9493 24.604 59.9933 24.328 59.9933 24.024V23.724C59.9933 23.42 59.9493 23.144 59.8613 22.896C59.7733 22.648 59.6533 22.436 59.5013 22.26C59.3493 22.084 59.1653 21.948 58.9493 21.852C58.7333 21.756 58.4973 21.708 58.2413 21.708H58.1453C57.8893 21.708 57.6533 21.756 57.4373 21.852C57.2213 21.948 57.0373 22.084 56.8853 22.26C56.7333 22.436 56.6133 22.648 56.5253 22.896C56.4373 23.144 56.3933 23.42 56.3933 23.724V24.024C56.3933 24.32 56.4333 24.596 56.5133 24.852C56.6013 25.1 56.7213 25.316 56.8733 25.5C57.0253 25.676 57.2093 25.812 57.4253 25.908C57.6413 26.004 57.8813 26.052 58.1453 26.052ZM63.086 29.388C62.942 29.388 62.774 29.372 62.582 29.34C62.39 29.308 62.218 29.248 62.066 29.16V28.116C62.202 28.188 62.338 28.24 62.474 28.272C62.61 28.304 62.746 28.32 62.882 28.32C63.162 28.32 63.414 28.228 63.638 28.044C63.87 27.86 64.058 27.6 64.202 27.264L61.514 20.76H62.81L64.778 25.764H64.862L66.41 20.76H67.634L65.462 27.3C65.358 27.612 65.234 27.892 65.09 28.14C64.946 28.396 64.774 28.616 64.574 28.8C64.382 28.984 64.162 29.128 63.914 29.232C63.674 29.336 63.398 29.388 63.086 29.388ZM71.4728 23.004V22.848C71.4728 22.528 71.5328 22.236 71.6528 21.972C71.7808 21.708 71.9568 21.48 72.1808 21.288C72.4048 21.088 72.6728 20.936 72.9848 20.832C73.2968 20.72 73.6408 20.664 74.0168 20.664H74.2448C74.6208 20.664 74.9648 20.72 75.2768 20.832C75.5888 20.936 75.8568 21.088 76.0808 21.288C76.3048 21.48 76.4808 21.708 76.6088 21.972C76.7368 22.236 76.8008 22.528 76.8008 22.848V23.016C76.8008 23.328 76.7368 23.62 76.6088 23.892C76.4808 24.156 76.3048 24.388 76.0808 24.588C75.8568 24.78 75.5888 24.928 75.2768 25.032C74.9648 25.136 74.6208 25.188 74.2448 25.188H74.1008C74.0128 25.188 73.9248 25.188 73.8368 25.188C73.7568 25.18 73.6808 25.168 73.6088 25.152V25.848C73.7048 25.84 73.8008 25.836 73.8968 25.836C73.9928 25.828 74.0968 25.824 74.2088 25.824H74.3768C74.7848 25.824 75.1528 25.864 75.4808 25.944C75.8088 26.024 76.0888 26.144 76.3208 26.304C76.5608 26.456 76.7448 26.644 76.8728 26.868C77.0008 27.084 77.0648 27.328 77.0648 27.6V27.708C77.0648 27.98 76.9968 28.224 76.8608 28.44C76.7328 28.664 76.5528 28.852 76.3208 29.004C76.0888 29.156 75.8048 29.272 75.4688 29.352C75.1408 29.44 74.7768 29.484 74.3768 29.484H74.0768C73.6768 29.484 73.3088 29.44 72.9728 29.352C72.6448 29.272 72.3648 29.156 72.1328 29.004C71.9008 28.852 71.7168 28.664 71.5808 28.44C71.4528 28.224 71.3888 27.98 71.3888 27.708V27.576C71.3888 27.224 71.4928 26.92 71.7008 26.664C71.9088 26.4 72.2048 26.192 72.5888 26.04V24.852C72.2368 24.668 71.9608 24.416 71.7607 24.096C71.5688 23.776 71.4728 23.412 71.4728 23.004ZM72.6608 22.86V23.04C72.6608 23.216 72.6968 23.38 72.7688 23.532C72.8408 23.676 72.9368 23.8 73.0568 23.904C73.1848 24.008 73.3328 24.092 73.5008 24.156C73.6688 24.212 73.8528 24.24 74.0527 24.24H74.2088C74.4168 24.24 74.6048 24.212 74.7728 24.156C74.9408 24.092 75.0848 24.008 75.2048 23.904C75.3328 23.8 75.4288 23.676 75.4928 23.532C75.5648 23.38 75.6008 23.216 75.6008 23.04V22.86C75.6008 22.684 75.5648 22.524 75.4928 22.38C75.4288 22.228 75.3328 22.1 75.2048 21.996C75.0848 21.884 74.9368 21.8 74.7608 21.744C74.5928 21.688 74.4088 21.66 74.2088 21.66H74.0527C73.8528 21.66 73.6688 21.688 73.5008 21.744C73.3328 21.8 73.1848 21.884 73.0568 21.996C72.9368 22.1 72.8408 22.224 72.7688 22.368C72.6968 22.512 72.6608 22.676 72.6608 22.86ZM72.6008 27.576V27.66C72.6008 27.932 72.7288 28.144 72.9848 28.296C73.2488 28.448 73.6288 28.524 74.1248 28.524H74.3408C74.8368 28.524 75.2168 28.444 75.4808 28.284C75.7448 28.124 75.8768 27.916 75.8768 27.66V27.588C75.8768 27.316 75.7448 27.104 75.4808 26.952C75.2168 26.792 74.8368 26.712 74.3408 26.712H74.1248C73.6288 26.712 73.2488 26.792 72.9848 26.952C72.7288 27.104 72.6008 27.312 72.6008 27.576ZM77.0768 20.064L76.2488 21.672L75.4568 21.096C75.5208 20.904 75.5928 20.72 75.6728 20.544C75.7608 20.368 75.8608 20.208 75.9728 20.064H77.0768ZM78.3735 27V20.76H79.5615V27H78.3735ZM78.9615 19.668C78.7455 19.668 78.5695 19.604 78.4335 19.476C78.2975 19.348 78.2295 19.18 78.2295 18.972C78.2295 18.772 78.2975 18.604 78.4335 18.468C78.5695 18.332 78.7455 18.264 78.9615 18.264C79.1775 18.264 79.3535 18.332 79.4895 18.468C79.6255 18.604 79.6935 18.772 79.6935 18.972C79.6935 19.18 79.6255 19.348 79.4895 19.476C79.3535 19.604 79.1775 19.668 78.9615 19.668ZM82.9444 27L80.7124 20.76H81.9844L83.6524 25.812H83.7724L85.4404 20.76H86.7124L84.4684 27H82.9444ZM87.8657 27V20.76H89.0537V27H87.8657ZM88.4537 19.668C88.2377 19.668 88.0617 19.604 87.9257 19.476C87.7897 19.348 87.7217 19.18 87.7217 18.972C87.7217 18.772 87.7897 18.604 87.9257 18.468C88.0617 18.332 88.2377 18.264 88.4537 18.264C88.6697 18.264 88.8457 18.332 88.9817 18.468C89.1177 18.604 89.1857 18.772 89.1857 18.972C89.1857 19.18 89.1177 19.348 88.9817 19.476C88.8457 19.604 88.6697 19.668 88.4537 19.668ZM90.9126 27V20.76H91.8486C91.8886 20.88 91.9246 21.02 91.9566 21.18C91.9886 21.34 92.0126 21.488 92.0286 21.624C92.2846 21.32 92.5926 21.084 92.9526 20.916C93.3206 20.74 93.7206 20.652 94.1526 20.652H94.2246C94.9286 20.652 95.4606 20.856 95.8206 21.264C96.1806 21.664 96.3606 22.244 96.3606 23.004V27H95.1726V23.232C95.1726 22.752 95.0726 22.384 94.8726 22.128C94.6726 21.872 94.3486 21.744 93.9006 21.744H93.8166C93.5606 21.744 93.3246 21.788 93.1086 21.876C92.9006 21.956 92.7206 22.076 92.5686 22.236C92.4246 22.388 92.3086 22.572 92.2206 22.788C92.1406 23.004 92.1006 23.252 92.1006 23.532V27H90.9126ZM97.6759 23.004V22.848C97.6759 22.528 97.7359 22.236 97.8559 21.972C97.9839 21.708 98.1599 21.48 98.3839 21.288C98.6079 21.088 98.8759 20.936 99.1879 20.832C99.4999 20.72 99.8439 20.664 100.22 20.664H100.448C100.824 20.664 101.168 20.72 101.48 20.832C101.792 20.936 102.06 21.088 102.284 21.288C102.508 21.48 102.684 21.708 102.812 21.972C102.94 22.236 103.004 22.528 103.004 22.848V23.016C103.004 23.328 102.94 23.62 102.812 23.892C102.684 24.156 102.508 24.388 102.284 24.588C102.06 24.78 101.792 24.928 101.48 25.032C101.168 25.136 100.824 25.188 100.448 25.188H100.304C100.216 25.188 100.128 25.188 100.04 25.188C99.9599 25.18 99.8839 25.168 99.8119 25.152V25.848C99.9079 25.84 100.004 25.836 100.1 25.836C100.196 25.828 100.3 25.824 100.412 25.824H100.58C100.988 25.824 101.356 25.864 101.684 25.944C102.012 26.024 102.292 26.144 102.524 26.304C102.764 26.456 102.948 26.644 103.076 26.868C103.204 27.084 103.268 27.328 103.268 27.6V27.708C103.268 27.98 103.2 28.224 103.064 28.44C102.936 28.664 102.756 28.852 102.524 29.004C102.292 29.156 102.008 29.272 101.672 29.352C101.344 29.44 100.98 29.484 100.58 29.484H100.28C99.8799 29.484 99.5119 29.44 99.1759 29.352C98.8479 29.272 98.5679 29.156 98.3359 29.004C98.1039 28.852 97.9199 28.664 97.7839 28.44C97.6559 28.224 97.5919 27.98 97.5919 27.708V27.576C97.5919 27.224 97.6959 26.92 97.9039 26.664C98.1119 26.4 98.4079 26.192 98.7919 26.04V24.852C98.4399 24.668 98.1639 24.416 97.9639 24.096C97.7719 23.776 97.6759 23.412 97.6759 23.004ZM98.8639 22.86V23.04C98.8639 23.216 98.8999 23.38 98.9719 23.532C99.0439 23.676 99.1399 23.8 99.2599 23.904C99.3879 24.008 99.5359 24.092 99.7039 24.156C99.8719 24.212 100.056 24.24 100.256 24.24H100.412C100.62 24.24 100.808 24.212 100.976 24.156C101.144 24.092 101.288 24.008 101.408 23.904C101.536 23.8 101.632 23.676 101.696 23.532C101.768 23.38 101.804 23.216 101.804 23.04V22.86C101.804 22.684 101.768 22.524 101.696 22.38C101.632 22.228 101.536 22.1 101.408 21.996C101.288 21.884 101.14 21.8 100.964 21.744C100.796 21.688 100.612 21.66 100.412 21.66H100.256C100.056 21.66 99.8719 21.688 99.7039 21.744C99.5359 21.8 99.3879 21.884 99.2599 21.996C99.1399 22.1 99.0439 22.224 98.9719 22.368C98.8999 22.512 98.8639 22.676 98.8639 22.86ZM98.8039 27.576V27.66C98.8039 27.932 98.9319 28.144 99.1879 28.296C99.4519 28.448 99.8319 28.524 100.328 28.524H100.544C101.04 28.524 101.42 28.444 101.684 28.284C101.948 28.124 102.08 27.916 102.08 27.66V27.588C102.08 27.316 101.948 27.104 101.684 26.952C101.42 26.792 101.04 26.712 100.544 26.712H100.328C99.8319 26.712 99.4519 26.792 99.1879 26.952C98.9319 27.104 98.8039 27.312 98.8039 27.576ZM103.28 20.064L102.452 21.672L101.66 21.096C101.724 20.904 101.796 20.72 101.876 20.544C101.964 20.368 102.064 20.208 102.176 20.064H103.28ZM109.694 27.048C109.414 27.048 109.17 27.012 108.962 26.94C108.754 26.868 108.578 26.76 108.434 26.616C108.29 26.472 108.182 26.288 108.11 26.064C108.038 25.84 108.002 25.576 108.002 25.272V21.78H107.174V20.952C107.294 20.912 107.426 20.876 107.57 20.844C107.722 20.804 107.866 20.776 108.002 20.76V19.32L109.19 19.164V20.76H110.978V21.78H109.178V25.044C109.178 25.404 109.246 25.652 109.382 25.788C109.526 25.916 109.73 25.98 109.994 25.98C110.066 25.98 110.15 25.98 110.246 25.98C110.342 25.972 110.438 25.964 110.534 25.956C110.638 25.94 110.734 25.924 110.822 25.908C110.918 25.892 110.998 25.872 111.062 25.848V26.832C110.902 26.904 110.686 26.96 110.414 27C110.142 27.032 109.902 27.048 109.694 27.048ZM112.44 27V18.36H113.628V21.576C113.892 21.28 114.204 21.052 114.564 20.892C114.932 20.732 115.332 20.652 115.764 20.652C116.444 20.652 116.968 20.856 117.336 21.264C117.704 21.672 117.888 22.252 117.888 23.004V27H116.7V23.232C116.7 22.736 116.588 22.364 116.364 22.116C116.14 21.868 115.804 21.744 115.356 21.744C115.1 21.744 114.864 21.788 114.648 21.876C114.432 21.956 114.248 22.072 114.096 22.224C113.944 22.376 113.828 22.564 113.748 22.788C113.668 23.004 113.628 23.244 113.628 23.508V27H112.44ZM119.635 27V20.76H120.823V27H119.635ZM120.223 19.668C120.007 19.668 119.831 19.604 119.695 19.476C119.559 19.348 119.491 19.18 119.491 18.972C119.491 18.772 119.559 18.604 119.695 18.468C119.831 18.332 120.007 18.264 120.223 18.264C120.439 18.264 120.615 18.332 120.751 18.468C120.887 18.604 120.955 18.772 120.955 18.972C120.955 19.18 120.887 19.348 120.751 19.476C120.615 19.604 120.439 19.668 120.223 19.668ZM124.794 27.108C124.266 27.108 123.77 27.028 123.306 26.868C122.842 26.708 122.442 26.48 122.106 26.184L122.742 25.308C122.886 25.436 123.038 25.548 123.198 25.644C123.366 25.732 123.534 25.808 123.702 25.872C123.878 25.936 124.058 25.984 124.242 26.016C124.426 26.048 124.61 26.064 124.794 26.064C124.986 26.064 125.15 26.048 125.286 26.016C125.43 25.976 125.55 25.924 125.646 25.86C125.75 25.788 125.826 25.704 125.874 25.608C125.922 25.512 125.946 25.396 125.946 25.26C125.946 25.092 125.902 24.96 125.814 24.864C125.734 24.76 125.618 24.672 125.466 24.6C125.322 24.528 125.15 24.468 124.95 24.42C124.75 24.364 124.526 24.3 124.278 24.228C124.046 24.172 123.814 24.108 123.582 24.036C123.35 23.956 123.142 23.856 122.958 23.736C122.774 23.608 122.626 23.444 122.514 23.244C122.402 23.036 122.346 22.784 122.346 22.488C122.346 22.208 122.398 21.956 122.502 21.732C122.606 21.5 122.75 21.304 122.934 21.144C123.118 20.984 123.342 20.864 123.606 20.784C123.878 20.696 124.182 20.652 124.518 20.652C124.95 20.652 125.366 20.724 125.766 20.868C126.174 21.004 126.538 21.184 126.858 21.408L126.282 22.308C126.018 22.124 125.73 21.976 125.418 21.864C125.106 21.752 124.79 21.696 124.47 21.696C124.318 21.696 124.178 21.712 124.05 21.744C123.93 21.776 123.826 21.824 123.738 21.888C123.658 21.944 123.594 22.016 123.546 22.104C123.506 22.192 123.486 22.296 123.486 22.416C123.486 22.56 123.526 22.68 123.606 22.776C123.694 22.872 123.802 22.952 123.93 23.016C124.066 23.08 124.222 23.136 124.398 23.184C124.582 23.224 124.77 23.268 124.962 23.316C125.218 23.38 125.474 23.452 125.73 23.532C125.986 23.604 126.218 23.712 126.426 23.856C126.634 23.992 126.802 24.168 126.93 24.384C127.066 24.592 127.134 24.864 127.134 25.2C127.134 25.496 127.078 25.764 126.966 26.004C126.854 26.236 126.698 26.436 126.498 26.604C126.298 26.764 126.054 26.888 125.766 26.976C125.478 27.064 125.154 27.108 124.794 27.108ZM134.261 27.084C133.821 27.084 133.417 27.012 133.049 26.868C132.681 26.716 132.365 26.504 132.101 26.232C131.845 25.96 131.645 25.64 131.501 25.272C131.357 24.896 131.285 24.484 131.285 24.036V23.712C131.285 23.272 131.357 22.864 131.501 22.488C131.653 22.112 131.857 21.792 132.113 21.528C132.377 21.256 132.689 21.048 133.049 20.904C133.409 20.752 133.805 20.676 134.237 20.676H134.333C134.869 20.676 135.357 20.808 135.797 21.072C136.245 21.328 136.609 21.696 136.889 22.176L135.989 22.74C135.805 22.396 135.573 22.14 135.293 21.972C135.021 21.796 134.705 21.708 134.345 21.708H134.237C133.973 21.708 133.733 21.756 133.517 21.852C133.309 21.948 133.129 22.084 132.977 22.26C132.833 22.436 132.721 22.648 132.641 22.896C132.561 23.144 132.521 23.424 132.521 23.736V24.024C132.521 24.328 132.561 24.604 132.641 24.852C132.729 25.1 132.849 25.312 133.001 25.488C133.161 25.664 133.349 25.8 133.565 25.896C133.789 25.992 134.033 26.04 134.297 26.04H134.417C134.745 26.04 135.041 25.956 135.305 25.788C135.577 25.612 135.805 25.36 135.989 25.032L136.901 25.608C136.613 26.088 136.253 26.456 135.821 26.712C135.389 26.96 134.905 27.084 134.369 27.084H134.261ZM139.806 27.108C139.502 27.108 139.222 27.064 138.966 26.976C138.718 26.888 138.502 26.764 138.318 26.604C138.142 26.444 138.002 26.252 137.898 26.028C137.802 25.796 137.754 25.54 137.754 25.26V25.164C137.754 24.484 138.042 23.98 138.618 23.652C139.202 23.316 140.094 23.148 141.294 23.148H141.834V22.8C141.834 22.464 141.722 22.2 141.498 22.008C141.282 21.808 140.966 21.708 140.55 21.708H140.478C140.158 21.708 139.83 21.764 139.494 21.876C139.166 21.988 138.862 22.148 138.582 22.356L138.054 21.456C138.438 21.208 138.838 21.012 139.254 20.868C139.678 20.716 140.114 20.64 140.562 20.64H140.646C141.014 20.64 141.342 20.688 141.63 20.784C141.918 20.88 142.162 21.024 142.362 21.216C142.57 21.4 142.726 21.624 142.83 21.888C142.934 22.152 142.986 22.448 142.986 22.776V25.848C142.986 26.04 143.006 26.24 143.046 26.448C143.094 26.648 143.146 26.832 143.202 27H142.038C141.998 26.912 141.962 26.8 141.93 26.664C141.906 26.528 141.886 26.392 141.87 26.256C141.582 26.528 141.262 26.74 140.91 26.892C140.566 27.036 140.198 27.108 139.806 27.108ZM139.998 26.064C140.366 26.064 140.706 25.988 141.018 25.836C141.338 25.676 141.61 25.464 141.834 25.2V24.048H141.45C140.562 24.048 139.918 24.132 139.518 24.3C139.118 24.468 138.918 24.74 138.918 25.116V25.176C138.918 25.312 138.942 25.436 138.99 25.548C139.046 25.652 139.118 25.744 139.206 25.824C139.302 25.896 139.418 25.956 139.554 26.004C139.69 26.044 139.838 26.064 139.998 26.064ZM144.819 27V20.76H145.755C145.787 20.856 145.819 20.976 145.851 21.12C145.883 21.256 145.907 21.388 145.923 21.516C146.163 21.244 146.439 21.032 146.751 20.88C147.071 20.728 147.419 20.652 147.795 20.652H147.867C148.307 20.652 148.671 20.74 148.959 20.916C149.247 21.092 149.467 21.352 149.619 21.696C149.851 21.36 150.139 21.104 150.483 20.928C150.835 20.744 151.223 20.652 151.647 20.652H151.719C152.359 20.652 152.843 20.844 153.171 21.228C153.499 21.612 153.663 22.172 153.663 22.908V27H152.475V23.112C152.475 22.88 152.451 22.68 152.403 22.512C152.363 22.336 152.295 22.192 152.199 22.08C152.111 21.968 151.999 21.884 151.863 21.828C151.727 21.772 151.563 21.744 151.371 21.744H151.299C151.083 21.744 150.883 21.78 150.699 21.852C150.515 21.924 150.359 22.028 150.231 22.164C150.103 22.3 150.003 22.468 149.931 22.668C149.867 22.868 149.835 23.104 149.835 23.376V27H148.647V23.112C148.647 22.888 148.623 22.692 148.575 22.524C148.527 22.348 148.459 22.204 148.371 22.092C148.283 21.972 148.167 21.884 148.023 21.828C147.887 21.772 147.719 21.744 147.519 21.744H147.459C147.235 21.744 147.035 21.78 146.859 21.852C146.683 21.924 146.531 22.028 146.403 22.164C146.275 22.3 146.175 22.472 146.103 22.68C146.039 22.88 146.007 23.112 146.007 23.376V27H144.819ZM155.413 29.4V20.76H156.349C156.381 20.856 156.413 20.98 156.445 21.132C156.477 21.276 156.501 21.412 156.517 21.54C156.765 21.268 157.057 21.056 157.393 20.904C157.737 20.744 158.121 20.664 158.545 20.664H158.641C159.049 20.664 159.425 20.74 159.769 20.892C160.113 21.036 160.405 21.244 160.645 21.516C160.893 21.788 161.085 22.112 161.221 22.488C161.357 22.856 161.425 23.264 161.425 23.712V24.048C161.425 24.488 161.357 24.896 161.221 25.272C161.085 25.648 160.893 25.972 160.645 26.244C160.405 26.516 160.113 26.728 159.769 26.88C159.425 27.024 159.049 27.096 158.641 27.096H158.545C158.145 27.096 157.781 27.028 157.453 26.892C157.125 26.748 156.841 26.548 156.601 26.292V29.4H155.413ZM158.341 26.052H158.437C158.693 26.052 158.929 26.004 159.145 25.908C159.361 25.812 159.545 25.676 159.697 25.5C159.849 25.316 159.969 25.1 160.057 24.852C160.145 24.604 160.189 24.328 160.189 24.024V23.724C160.189 23.42 160.145 23.144 160.057 22.896C159.969 22.648 159.849 22.436 159.697 22.26C159.545 22.084 159.361 21.948 159.145 21.852C158.929 21.756 158.693 21.708 158.437 21.708H158.341C158.077 21.708 157.837 21.756 157.621 21.852C157.405 21.948 157.221 22.088 157.069 22.272C156.917 22.448 156.797 22.66 156.709 22.908C156.629 23.156 156.589 23.428 156.589 23.724V24.024C156.589 24.328 156.633 24.604 156.721 24.852C156.809 25.1 156.929 25.316 157.081 25.5C157.233 25.676 157.417 25.812 157.633 25.908C157.849 26.004 158.085 26.052 158.341 26.052ZM164.439 27.108C164.135 27.108 163.855 27.064 163.599 26.976C163.351 26.888 163.135 26.764 162.951 26.604C162.775 26.444 162.635 26.252 162.531 26.028C162.435 25.796 162.387 25.54 162.387 25.26V25.164C162.387 24.484 162.675 23.98 163.251 23.652C163.835 23.316 164.727 23.148 165.927 23.148H166.467V22.8C166.467 22.464 166.355 22.2 166.131 22.008C165.915 21.808 165.599 21.708 165.183 21.708H165.111C164.791 21.708 164.463 21.764 164.127 21.876C163.799 21.988 163.495 22.148 163.215 22.356L162.687 21.456C163.071 21.208 163.471 21.012 163.887 20.868C164.311 20.716 164.747 20.64 165.195 20.64H165.279C165.647 20.64 165.975 20.688 166.263 20.784C166.551 20.88 166.795 21.024 166.995 21.216C167.203 21.4 167.359 21.624 167.463 21.888C167.567 22.152 167.619 22.448 167.619 22.776V25.848C167.619 26.04 167.639 26.24 167.679 26.448C167.727 26.648 167.779 26.832 167.835 27H166.671C166.631 26.912 166.595 26.8 166.563 26.664C166.539 26.528 166.519 26.392 166.503 26.256C166.215 26.528 165.895 26.74 165.543 26.892C165.199 27.036 164.831 27.108 164.439 27.108ZM164.631 26.064C164.999 26.064 165.339 25.988 165.651 25.836C165.971 25.676 166.243 25.464 166.467 25.2V24.048H166.083C165.195 24.048 164.551 24.132 164.151 24.3C163.751 24.468 163.551 24.74 163.551 25.116V25.176C163.551 25.312 163.575 25.436 163.623 25.548C163.679 25.652 163.751 25.744 163.839 25.824C163.935 25.896 164.051 25.956 164.187 26.004C164.323 26.044 164.471 26.064 164.631 26.064ZM169.452 27V20.76H170.64V27H169.452ZM170.04 19.668C169.824 19.668 169.648 19.604 169.512 19.476C169.376 19.348 169.308 19.18 169.308 18.972C169.308 18.772 169.376 18.604 169.512 18.468C169.648 18.332 169.824 18.264 170.04 18.264C170.256 18.264 170.432 18.332 170.568 18.468C170.704 18.604 170.772 18.772 170.772 18.972C170.772 19.18 170.704 19.348 170.568 19.476C170.432 19.604 170.256 19.668 170.04 19.668ZM172.067 23.004V22.848C172.067 22.528 172.127 22.236 172.247 21.972C172.375 21.708 172.551 21.48 172.775 21.288C172.999 21.088 173.267 20.936 173.579 20.832C173.891 20.72 174.235 20.664 174.611 20.664H174.839C175.215 20.664 175.559 20.72 175.871 20.832C176.183 20.936 176.451 21.088 176.675 21.288C176.899 21.48 177.075 21.708 177.203 21.972C177.331 22.236 177.395 22.528 177.395 22.848V23.016C177.395 23.328 177.331 23.62 177.203 23.892C177.075 24.156 176.899 24.388 176.675 24.588C176.451 24.78 176.183 24.928 175.871 25.032C175.559 25.136 175.215 25.188 174.839 25.188H174.695C174.607 25.188 174.519 25.188 174.431 25.188C174.351 25.18 174.275 25.168 174.203 25.152V25.848C174.299 25.84 174.395 25.836 174.491 25.836C174.587 25.828 174.691 25.824 174.803 25.824H174.971C175.379 25.824 175.747 25.864 176.075 25.944C176.403 26.024 176.683 26.144 176.915 26.304C177.155 26.456 177.339 26.644 177.467 26.868C177.595 27.084 177.659 27.328 177.659 27.6V27.708C177.659 27.98 177.591 28.224 177.455 28.44C177.327 28.664 177.147 28.852 176.915 29.004C176.683 29.156 176.399 29.272 176.063 29.352C175.735 29.44 175.371 29.484 174.971 29.484H174.671C174.271 29.484 173.903 29.44 173.567 29.352C173.239 29.272 172.959 29.156 172.727 29.004C172.495 28.852 172.311 28.664 172.175 28.44C172.047 28.224 171.983 27.98 171.983 27.708V27.576C171.983 27.224 172.087 26.92 172.295 26.664C172.503 26.4 172.799 26.192 173.183 26.04V24.852C172.831 24.668 172.555 24.416 172.354 24.096C172.163 23.776 172.067 23.412 172.067 23.004ZM173.255 22.86V23.04C173.255 23.216 173.291 23.38 173.363 23.532C173.435 23.676 173.531 23.8 173.651 23.904C173.779 24.008 173.927 24.092 174.095 24.156C174.263 24.212 174.447 24.24 174.646 24.24H174.803C175.011 24.24 175.199 24.212 175.367 24.156C175.535 24.092 175.679 24.008 175.799 23.904C175.927 23.8 176.023 23.676 176.087 23.532C176.159 23.38 176.195 23.216 176.195 23.04V22.86C176.195 22.684 176.159 22.524 176.087 22.38C176.023 22.228 175.927 22.1 175.799 21.996C175.679 21.884 175.531 21.8 175.355 21.744C175.187 21.688 175.003 21.66 174.803 21.66H174.646C174.447 21.66 174.263 21.688 174.095 21.744C173.927 21.8 173.779 21.884 173.651 21.996C173.531 22.1 173.435 22.224 173.363 22.368C173.291 22.512 173.255 22.676 173.255 22.86ZM173.195 27.576V27.66C173.195 27.932 173.323 28.144 173.579 28.296C173.843 28.448 174.223 28.524 174.719 28.524H174.935C175.431 28.524 175.811 28.444 176.075 28.284C176.339 28.124 176.471 27.916 176.471 27.66V27.588C176.471 27.316 176.339 27.104 176.075 26.952C175.811 26.792 175.431 26.712 174.935 26.712H174.719C174.223 26.712 173.843 26.792 173.579 26.952C173.323 27.104 173.195 27.312 173.195 27.576ZM177.671 20.064L176.843 21.672L176.051 21.096C176.115 20.904 176.187 20.72 176.267 20.544C176.355 20.368 176.455 20.208 176.567 20.064H177.671ZM178.92 27V20.76H179.856C179.896 20.88 179.932 21.02 179.964 21.18C179.996 21.34 180.02 21.488 180.036 21.624C180.292 21.32 180.6 21.084 180.96 20.916C181.328 20.74 181.728 20.652 182.16 20.652H182.232C182.936 20.652 183.468 20.856 183.828 21.264C184.188 21.664 184.368 22.244 184.368 23.004V27H183.18V23.232C183.18 22.752 183.08 22.384 182.88 22.128C182.68 21.872 182.356 21.744 181.908 21.744H181.824C181.568 21.744 181.332 21.788 181.116 21.876C180.908 21.956 180.728 22.076 180.576 22.236C180.432 22.388 180.316 22.572 180.228 22.788C180.148 23.004 180.108 23.252 180.108 23.532V27H178.92ZM191.029 27.108C190.725 27.108 190.445 27.064 190.189 26.976C189.941 26.888 189.725 26.764 189.541 26.604C189.365 26.444 189.225 26.252 189.121 26.028C189.025 25.796 188.977 25.54 188.977 25.26V25.164C188.977 24.484 189.265 23.98 189.841 23.652C190.425 23.316 191.317 23.148 192.517 23.148H193.057V22.8C193.057 22.464 192.945 22.2 192.721 22.008C192.505 21.808 192.189 21.708 191.773 21.708H191.701C191.381 21.708 191.053 21.764 190.717 21.876C190.389 21.988 190.085 22.148 189.805 22.356L189.277 21.456C189.661 21.208 190.061 21.012 190.477 20.868C190.901 20.716 191.337 20.64 191.785 20.64H191.869C192.237 20.64 192.565 20.688 192.853 20.784C193.141 20.88 193.385 21.024 193.585 21.216C193.793 21.4 193.949 21.624 194.053 21.888C194.157 22.152 194.209 22.448 194.209 22.776V25.848C194.209 26.04 194.229 26.24 194.269 26.448C194.317 26.648 194.369 26.832 194.425 27H193.261C193.221 26.912 193.185 26.8 193.153 26.664C193.129 26.528 193.109 26.392 193.093 26.256C192.805 26.528 192.485 26.74 192.133 26.892C191.789 27.036 191.421 27.108 191.029 27.108ZM191.221 26.064C191.589 26.064 191.929 25.988 192.241 25.836C192.561 25.676 192.833 25.464 193.057 25.2V24.048H192.673C191.785 24.048 191.141 24.132 190.741 24.3C190.341 24.468 190.141 24.74 190.141 25.116V25.176C190.141 25.312 190.165 25.436 190.213 25.548C190.269 25.652 190.341 25.744 190.429 25.824C190.525 25.896 190.641 25.956 190.777 26.004C190.913 26.044 191.061 26.064 191.221 26.064ZM199.323 27V20.76H200.259C200.299 20.88 200.335 21.02 200.367 21.18C200.399 21.34 200.423 21.488 200.439 21.624C200.695 21.32 201.003 21.084 201.363 20.916C201.731 20.74 202.131 20.652 202.563 20.652H202.635C203.339 20.652 203.871 20.856 204.231 21.264C204.591 21.664 204.771 22.244 204.771 23.004V27H203.583V23.232C203.583 22.752 203.483 22.384 203.283 22.128C203.083 21.872 202.759 21.744 202.311 21.744H202.227C201.971 21.744 201.735 21.788 201.519 21.876C201.311 21.956 201.131 22.076 200.979 22.236C200.835 22.388 200.719 22.572 200.631 22.788C200.551 23.004 200.511 23.252 200.511 23.532V27H199.323ZM208.15 27.108C207.846 27.108 207.566 27.064 207.31 26.976C207.062 26.888 206.846 26.764 206.662 26.604C206.486 26.444 206.346 26.252 206.242 26.028C206.146 25.796 206.098 25.54 206.098 25.26V25.164C206.098 24.484 206.386 23.98 206.962 23.652C207.546 23.316 208.438 23.148 209.638 23.148H210.178V22.8C210.178 22.464 210.066 22.2 209.842 22.008C209.626 21.808 209.31 21.708 208.894 21.708H208.822C208.502 21.708 208.174 21.764 207.838 21.876C207.51 21.988 207.206 22.148 206.926 22.356L206.398 21.456C206.782 21.208 207.182 21.012 207.598 20.868C208.022 20.716 208.458 20.64 208.906 20.64H208.99C209.358 20.64 209.686 20.688 209.974 20.784C210.262 20.88 210.506 21.024 210.706 21.216C210.914 21.4 211.07 21.624 211.174 21.888C211.278 22.152 211.33 22.448 211.33 22.776V25.848C211.33 26.04 211.35 26.24 211.39 26.448C211.438 26.648 211.49 26.832 211.546 27H210.382C210.342 26.912 210.306 26.8 210.274 26.664C210.25 26.528 210.23 26.392 210.214 26.256C209.926 26.528 209.606 26.74 209.254 26.892C208.91 27.036 208.542 27.108 208.15 27.108ZM208.342 26.064C208.71 26.064 209.05 25.988 209.362 25.836C209.682 25.676 209.954 25.464 210.178 25.2V24.048H209.794C208.906 24.048 208.262 24.132 207.862 24.3C207.462 24.468 207.262 24.74 207.262 25.116V25.176C207.262 25.312 207.286 25.436 207.334 25.548C207.39 25.652 207.462 25.744 207.55 25.824C207.646 25.896 207.762 25.956 207.898 26.004C208.034 26.044 208.182 26.064 208.342 26.064ZM213.163 27V20.76H214.099C214.131 20.856 214.163 20.976 214.195 21.12C214.227 21.256 214.251 21.388 214.267 21.516C214.507 21.244 214.783 21.032 215.095 20.88C215.415 20.728 215.763 20.652 216.139 20.652H216.211C216.651 20.652 217.015 20.74 217.303 20.916C217.591 21.092 217.811 21.352 217.963 21.696C218.195 21.36 218.483 21.104 218.827 20.928C219.179 20.744 219.567 20.652 219.991 20.652H220.063C220.703 20.652 221.187 20.844 221.515 21.228C221.843 21.612 222.007 22.172 222.007 22.908V27H220.819V23.112C220.819 22.88 220.795 22.68 220.747 22.512C220.707 22.336 220.639 22.192 220.543 22.08C220.455 21.968 220.343 21.884 220.207 21.828C220.071 21.772 219.907 21.744 219.715 21.744H219.643C219.427 21.744 219.227 21.78 219.043 21.852C218.859 21.924 218.703 22.028 218.575 22.164C218.447 22.3 218.347 22.468 218.275 22.668C218.211 22.868 218.179 23.104 218.179 23.376V27H216.991V23.112C216.991 22.888 216.967 22.692 216.919 22.524C216.871 22.348 216.803 22.204 216.715 22.092C216.627 21.972 216.511 21.884 216.367 21.828C216.231 21.772 216.063 21.744 215.863 21.744H215.803C215.579 21.744 215.379 21.78 215.203 21.852C215.027 21.924 214.875 22.028 214.747 22.164C214.619 22.3 214.519 22.472 214.447 22.68C214.383 22.88 214.351 23.112 214.351 23.376V27H213.163ZM226.3 27.096C225.852 27.096 225.444 27.024 225.076 26.88C224.708 26.728 224.392 26.52 224.128 26.256C223.872 25.984 223.672 25.664 223.528 25.296C223.384 24.92 223.312 24.504 223.312 24.048V23.82C223.312 23.356 223.384 22.932 223.528 22.548C223.672 22.156 223.872 21.824 224.128 21.552C224.392 21.272 224.704 21.056 225.064 20.904C225.432 20.752 225.84 20.676 226.288 20.676H226.396C226.804 20.676 227.176 20.748 227.512 20.892C227.856 21.028 228.144 21.224 228.376 21.48C228.616 21.728 228.8 22.032 228.928 22.392C229.064 22.744 229.132 23.136 229.132 23.568V24.312H224.524C224.548 24.568 224.608 24.804 224.704 25.02C224.8 25.228 224.924 25.408 225.076 25.56C225.236 25.704 225.424 25.82 225.64 25.908C225.864 25.988 226.108 26.028 226.372 26.028H226.492C226.892 26.028 227.232 25.944 227.512 25.776C227.792 25.608 228.02 25.4 228.196 25.152L228.964 25.836C228.82 26.028 228.656 26.204 228.472 26.364C228.288 26.524 228.088 26.656 227.872 26.76C227.656 26.864 227.428 26.944 227.188 27C226.948 27.064 226.696 27.096 226.432 27.096H226.3ZM224.548 23.388H227.992V23.376C227.976 23.12 227.928 22.888 227.848 22.68C227.768 22.472 227.656 22.296 227.512 22.152C227.368 22.008 227.2 21.896 227.008 21.816C226.816 21.736 226.604 21.696 226.372 21.696H226.252C226.02 21.696 225.804 21.736 225.604 21.816C225.412 21.896 225.244 22.008 225.1 22.152C224.956 22.296 224.836 22.472 224.74 22.68C224.644 22.888 224.58 23.124 224.548 23.388Z" fill="#6A6B76"/>
</svg>
