<svg width="16" height="16" viewBox="0 0 16 16" fill="none" xmlns="http://www.w3.org/2000/svg">
<g clip-path="url(#clip0_16670_1620)">
<path d="M12.4225 10.4474L13.5668 7.01452C14.5664 4.01559 15.0662 2.51613 14.2747 1.72462C13.4832 0.933108 11.9838 1.43293 8.98484 2.43257L5.55194 3.57687C3.13152 4.38367 1.92131 4.78708 1.5774 5.37864C1.25024 5.9414 1.25024 6.63644 1.5774 7.19921C1.92131 7.79077 3.13152 8.19417 5.55194 9.00098C5.94058 9.13053 6.1349 9.1953 6.29732 9.30403C6.45473 9.40941 6.58994 9.54463 6.69532 9.70203C6.80405 9.86445 6.86883 10.0588 6.99837 10.4474C7.80518 12.8678 8.20858 14.078 8.80014 14.4219C9.3629 14.7491 10.0579 14.7491 10.6207 14.4219C11.2123 14.078 11.6157 12.8678 12.4225 10.4474Z" stroke="#6A6B76" stroke-width="1.5"/>
<path d="M11.8578 4.13994L9.05078 6.91602" stroke="#6A6B76" stroke-width="1.5" stroke-linecap="round"/>
</g>
<defs>
<clipPath id="clip0_16670_1620">
<rect width="16" height="16" fill="white"/>
</clipPath>
</defs>
</svg>
