<svg width="16" height="16" viewBox="0 0 16 16" fill="none" xmlns="http://www.w3.org/2000/svg">
<path fill-rule="evenodd" clip-rule="evenodd" d="M13.5668 7.01452L12.4225 10.4474C11.6157 12.8678 11.2123 14.078 10.6207 14.4219C10.0579 14.7491 9.3629 14.7491 8.80014 14.4219C8.20858 14.078 7.80518 12.8678 6.99837 10.4474C6.86883 10.0588 6.80405 9.86445 6.69532 9.70203C6.58994 9.54463 6.45473 9.40941 6.29732 9.30403C6.1349 9.1953 5.94058 9.13053 5.55194 9.00098C3.13152 8.19417 1.92131 7.79077 1.5774 7.19921C1.25024 6.63644 1.25024 5.9414 1.5774 5.37864C1.92131 4.78708 3.13152 4.38367 5.55194 3.57687L8.98484 2.43257C11.9838 1.43293 13.4832 0.933108 14.2747 1.72462C15.0662 2.51613 14.5664 4.01559 13.5668 7.01452ZM8.69582 7.26877C8.50165 7.07243 8.5034 6.75585 8.69974 6.56167L11.5068 3.7856C11.7031 3.59142 12.0197 3.59317 12.2139 3.78952C12.408 3.98586 12.4063 4.30243 12.2099 4.49661L9.40292 7.27269C9.20658 7.46687 8.89 7.46511 8.69582 7.26877Z" fill="#FAFAFA"/>
</svg>
