<svg width="16" height="16" viewBox="0 0 16 16" fill="none" xmlns="http://www.w3.org/2000/svg">
<path d="M8.66797 10.2673C8.66797 8.88453 8.66797 8.19314 9.10731 7.76356C9.54665 7.33398 10.2538 7.33398 11.668 7.33398C13.0822 7.33398 13.7893 7.33398 14.2286 7.76356C14.668 8.19314 14.668 8.88453 14.668 10.2673V11.734C14.668 13.1168 14.668 13.8082 14.2286 14.2377C13.7893 14.6673 13.0822 14.6673 11.668 14.6673C10.2538 14.6673 9.54665 14.6673 9.10731 14.2377C8.66797 13.8082 8.66797 13.1168 8.66797 11.734V10.2673Z" fill="#FAFAFA"/>
<path d="M1.33203 5.73398C1.33203 7.11677 1.33203 7.80816 1.77137 8.23774C2.21071 8.66732 2.91782 8.66732 4.33203 8.66732C5.74624 8.66732 6.45335 8.66732 6.89269 8.23774C7.33203 7.80816 7.33203 7.11677 7.33203 5.73398V4.26732C7.33203 2.88453 7.33203 2.19314 6.89269 1.76356C6.45335 1.33398 5.74624 1.33398 4.33203 1.33398C2.91782 1.33398 2.21071 1.33398 1.77137 1.76356C1.33203 2.19314 1.33203 2.88453 1.33203 4.26732V5.73398Z" fill="#FAFAFA"/>
<path d="M8.66797 3.66732C8.66797 2.94252 8.66797 2.58012 8.78215 2.29425C8.93439 1.9131 9.2264 1.61027 9.59394 1.45239C9.8696 1.33398 10.2191 1.33398 10.918 1.33398H12.418C13.1169 1.33398 13.4663 1.33398 13.742 1.45239C14.1095 1.61027 14.4015 1.9131 14.5538 2.29425C14.668 2.58012 14.668 2.94252 14.668 3.66732C14.668 4.39212 14.668 4.75451 14.5538 5.04038C14.4015 5.42154 14.1095 5.72436 13.742 5.88224C13.4663 6.00065 13.1169 6.00065 12.418 6.00065H10.918C10.2191 6.00065 9.8696 6.00065 9.59394 5.88224C9.2264 5.72436 8.93439 5.42154 8.78215 5.04038C8.66797 4.75451 8.66797 4.39212 8.66797 3.66732Z" fill="#FAFAFA"/>
<path d="M1.33203 12.3333C1.33203 13.0581 1.33203 13.4205 1.44621 13.7064C1.59845 14.0876 1.89046 14.3904 2.25801 14.5483C2.53366 14.6667 2.88312 14.6667 3.58203 14.6667H5.08203C5.78094 14.6667 6.1304 14.6667 6.40606 14.5483C6.7736 14.3904 7.06561 14.0876 7.21785 13.7064C7.33203 13.4205 7.33203 13.0581 7.33203 12.3333C7.33203 11.6085 7.33203 11.2461 7.21785 10.9603C7.06561 10.5791 6.7736 10.2763 6.40606 10.1184C6.1304 10 5.78094 10 5.08203 10H3.58203C2.88312 10 2.53366 10 2.25801 10.1184C1.89046 10.2763 1.59845 10.5791 1.44621 10.9603C1.33203 11.2461 1.33203 11.6085 1.33203 12.3333Z" fill="#FAFAFA"/>
</svg>
