<svg width="21" height="20" viewBox="0 0 21 20" fill="none" xmlns="http://www.w3.org/2000/svg">
<path d="M9.7494 15.1344L9.74943 15.1344L15.9126 8.97118C15.0738 8.62206 14.0803 8.04858 13.1407 7.10898C12.201 6.16923 11.6275 5.17557 11.2784 4.33667L5.11504 10.5L5.11502 10.5C4.63407 10.981 4.39358 11.2215 4.18676 11.4866C3.94279 11.7994 3.73363 12.1378 3.56297 12.4959C3.41829 12.7995 3.31075 13.1221 3.09565 13.7674L1.96139 17.1702C1.85554 17.4878 1.93819 17.8379 2.17487 18.0746C2.41156 18.3112 2.76167 18.3939 3.07922 18.288L6.482 17.1538C7.12728 16.9387 7.44993 16.8311 7.7535 16.6865C8.11159 16.5158 8.45003 16.3066 8.76282 16.0627C9.02797 15.8559 9.26847 15.6154 9.7494 15.1344Z" fill="#C0C0C5"/>
<path d="M17.6229 7.26096C18.9026 5.98121 18.9026 3.90632 17.6229 2.62656C16.3431 1.34681 14.2682 1.34681 12.9885 2.62656L12.2493 3.36576C12.2594 3.39633 12.2699 3.42732 12.2808 3.45871C12.5517 4.23966 13.0629 5.26342 14.0246 6.2251C14.9863 7.18678 16.01 7.69799 16.791 7.96893C16.8222 7.97977 16.8531 7.99022 16.8835 8.0003L17.6229 7.26096Z" fill="#C0C0C5"/>
</svg>
