<svg width="16" height="16" viewBox="0 0 16 16" fill="none" xmlns="http://www.w3.org/2000/svg">
<g clip-path="url(#clip0_13690_48166)">
<path d="M10.2621 2.70308L9.7604 3.26055L10.2621 2.70308ZM12.9013 5.07835L12.3996 5.63582L12.9013 5.07835ZM14.4362 6.77005L13.751 7.07518V7.07518L14.4362 6.77005ZM2.11454 13.8863L2.64487 13.3559H2.64487L2.11454 13.8863ZM13.8858 13.8863L13.3555 13.3559L13.8858 13.8863ZM9.3335 13.9173H6.66683V15.4173H9.3335V13.9173ZM2.0835 9.33398V6.66732H0.583496V9.33398H2.0835ZM13.9168 9.04258V9.33398H15.4168V9.04258H13.9168ZM9.7604 3.26055L12.3996 5.63582L13.403 4.52088L10.7638 2.14561L9.7604 3.26055ZM15.4168 9.04258C15.4168 7.93909 15.432 7.16251 15.1213 6.46492L13.751 7.07518C13.9017 7.41344 13.9168 7.8066 13.9168 9.04258H15.4168ZM12.3996 5.63582C13.3183 6.46265 13.6004 6.73691 13.751 7.07518L15.1213 6.46492C14.8106 5.76733 14.2232 5.25907 13.403 4.52088L12.3996 5.63582ZM6.68669 2.08398C7.76015 2.08398 8.1029 2.09556 8.40428 2.21121L8.94168 0.810781C8.32048 0.572406 7.64656 0.583984 6.68669 0.583984V2.08398ZM10.7638 2.14561C10.0538 1.50658 9.56277 1.04912 8.94168 0.810781L8.40428 2.21121C8.70576 2.3269 8.96663 2.54616 9.7604 3.26055L10.7638 2.14561ZM6.66683 13.9173C5.38855 13.9173 4.50529 13.9157 3.84071 13.8264C3.1977 13.7399 2.87282 13.5839 2.64487 13.3559L1.58421 14.4166C2.13732 14.9697 2.8315 15.2042 3.64084 15.313C4.4286 15.4189 5.43095 15.4173 6.66683 15.4173V13.9173ZM0.583496 9.33398C0.583496 10.5699 0.581903 11.5722 0.687815 12.36C0.796628 13.1693 1.03111 13.8635 1.58421 14.4166L2.64487 13.3559C2.41693 13.128 2.26089 12.8031 2.17444 12.1601C2.08509 11.4955 2.0835 10.6123 2.0835 9.33398H0.583496ZM9.3335 15.4173C10.5694 15.4173 11.5717 15.4189 12.3595 15.313C13.1688 15.2042 13.863 14.9697 14.4161 14.4166L13.3555 13.3559C13.1275 13.5839 12.8026 13.7399 12.1596 13.8264C11.495 13.9157 10.6118 13.9173 9.3335 13.9173V15.4173ZM13.9168 9.33398C13.9168 10.6123 13.9152 11.4955 13.8259 12.1601C13.7394 12.8031 13.5834 13.128 13.3555 13.3559L14.4161 14.4166C14.9692 13.8635 15.2037 13.1693 15.3125 12.36C15.4184 11.5722 15.4168 10.5699 15.4168 9.33398H13.9168ZM2.0835 6.66732C2.0835 5.38904 2.08509 4.50577 2.17444 3.8412C2.26089 3.19819 2.41693 2.87331 2.64487 2.64536L1.58421 1.5847C1.03111 2.1378 0.796628 2.83199 0.687815 3.64132C0.581903 4.42909 0.583496 5.43144 0.583496 6.66732H2.0835ZM6.68669 0.583984C5.44412 0.583984 4.43705 0.582405 3.64625 0.688244C2.83443 0.796894 2.1379 1.03102 1.58421 1.5847L2.64487 2.64536C2.87224 2.418 3.19808 2.2616 3.84523 2.17499C4.51338 2.08556 5.40186 2.08398 6.68669 2.08398V0.583984Z" fill="#2A2B3B"/>
<path d="M4 9.66602H9.33333" stroke="#2A2B3B" stroke-width="1.5" stroke-linecap="round"/>
<path d="M4 12H7.66667" stroke="#2A2B3B" stroke-width="1.5" stroke-linecap="round"/>
<path d="M8.6665 1.66602V3.33268C8.6665 4.90403 8.6665 5.68971 9.15466 6.17786C9.64281 6.66602 10.4285 6.66602 11.9998 6.66602H14.6665" stroke="#2A2B3B" stroke-width="1.5"/>
</g>
<defs>
<clipPath id="clip0_13690_48166">
<rect width="16" height="16" fill="white"/>
</clipPath>
</defs>
</svg>
