<svg width="25" height="24" viewBox="0 0 25 24" fill="none" xmlns="http://www.w3.org/2000/svg">
<path d="M4.1779 7.92226C3.05187 6.79623 3.05187 4.97056 4.1779 3.84453C5.30394 2.71849 7.1296 2.71849 8.25564 3.84453L20.4888 16.0777C21.6149 17.2038 21.6149 19.0294 20.4888 20.1555C19.3628 21.2815 17.5371 21.2815 16.4111 20.1555L4.1779 7.92226Z" stroke="#666DA5" stroke-width="1.5"/>
<path d="M6.33337 10L10.3334 6" stroke="#666DA5" stroke-width="1.5" stroke-linecap="round"/>
<path d="M16.4334 2.30719C16.5944 1.8976 17.1719 1.8976 17.3328 2.30719L17.7632 3.40247C17.8123 3.52752 17.911 3.62651 18.0356 3.67583L19.1268 4.1078C19.5349 4.26934 19.5349 4.849 19.1268 5.01054L18.0356 5.44252C17.911 5.49184 17.8123 5.59082 17.7632 5.71587L17.3328 6.81115C17.1719 7.22074 16.5944 7.22074 16.4334 6.81116L16.003 5.71587C15.9539 5.59082 15.8553 5.49184 15.7307 5.44252L14.6394 5.01054C14.2314 4.849 14.2314 4.26934 14.6394 4.1078L15.7307 3.67583C15.8553 3.62651 15.9539 3.52752 16.003 3.40247L16.4334 2.30719Z" stroke="#666DA5"/>
<path d="M20.3006 9.12945C20.4615 8.71987 21.039 8.71987 21.2 9.12945L21.3569 9.5288C21.406 9.65385 21.5046 9.75284 21.6292 9.80215L22.0271 9.95965C22.4352 10.1212 22.4352 10.7009 22.0271 10.8624L21.6292 11.0199C21.5046 11.0692 21.406 11.1682 21.3569 11.2932L21.2 11.6926C21.039 12.1022 20.4615 12.1022 20.3006 11.6926L20.1436 11.2932C20.0945 11.1682 19.9959 11.0692 19.8713 11.0199L19.4734 10.8624C19.0653 10.7009 19.0653 10.1212 19.4734 9.95965L19.8713 9.80215C19.9959 9.75284 20.0945 9.65385 20.1436 9.5288L20.3006 9.12945Z" stroke="#666DA5"/>
<path d="M5.46657 15.3072C5.62751 14.8976 6.20504 14.8976 6.36599 15.3072L6.52291 15.7065C6.57204 15.8316 6.67066 15.9306 6.79525 15.9799L7.19313 16.1374C7.6012 16.2989 7.6012 16.8786 7.19313 17.0401L6.79525 17.1976C6.67066 17.2469 6.57204 17.3459 6.52291 17.471L6.36599 17.8703C6.20504 18.2799 5.62751 18.2799 5.46657 17.8703L5.30965 17.471C5.26052 17.3459 5.16189 17.2469 5.03731 17.1976L4.63943 17.0401C4.23136 16.8786 4.23136 16.2989 4.63943 16.1374L5.03731 15.9799C5.16189 15.9306 5.26052 15.8316 5.30965 15.7065L5.46657 15.3072Z" stroke="#666DA5"/>
</svg>
