<svg width="16" height="16" viewBox="0 0 16 16" fill="none" xmlns="http://www.w3.org/2000/svg">
<path d="M7.9987 4.66667C7.26232 4.66667 6.66536 4.06971 6.66536 3.33333C6.66536 2.59695 7.26232 2 7.9987 2C8.73508 2 9.33203 2.59695 9.33203 3.33333C9.33203 4.06971 8.73508 4.66667 7.9987 4.66667Z" fill="#95959D"/>
<path d="M7.9987 9.33333C7.26232 9.33333 6.66536 8.73638 6.66536 8C6.66536 7.26362 7.26232 6.66667 7.9987 6.66667C8.73508 6.66667 9.33203 7.26362 9.33203 8C9.33203 8.73638 8.73508 9.33333 7.9987 9.33333Z" fill="#95959D"/>
<path d="M7.9987 14C7.26232 14 6.66536 13.403 6.66536 12.6667C6.66536 11.9303 7.26232 11.3333 7.9987 11.3333C8.73508 11.3333 9.33203 11.9303 9.33203 12.6667C9.33203 13.403 8.73508 14 7.9987 14Z" fill="#95959D"/>
</svg>
