<svg width="25" height="24" viewBox="0 0 25 24" fill="none" xmlns="http://www.w3.org/2000/svg">
<path d="M14.6101 4.07866L15.5369 3.15178C17.0726 1.61607 19.5625 1.61607 21.0982 3.15178C22.6339 4.68748 22.6339 7.17735 21.0982 8.71306L20.1713 9.63993M14.6101 4.07866C14.6101 4.07866 14.7259 6.04828 16.4638 7.78618C18.2017 9.52407 20.1713 9.63993 20.1713 9.63993M14.6101 4.07866L6.08882 12.5999C5.51166 13.1771 5.22308 13.4656 4.9749 13.7838C4.68213 14.1592 4.43114 14.5653 4.22634 14.995C4.05273 15.3593 3.92368 15.7465 3.66556 16.5208L2.57181 19.8021M20.1713 9.63993L11.6501 18.1612C11.0729 18.7383 10.7844 19.0269 10.4662 19.2751C10.0908 19.5679 9.68469 19.8189 9.25498 20.0237C8.8907 20.1973 8.50352 20.3263 7.72918 20.5844L4.44792 21.6782M4.44792 21.6782L3.64584 21.9456C3.26478 22.0726 2.84466 21.9734 2.56063 21.6894C2.2766 21.4053 2.17743 20.9852 2.30445 20.6042L2.57181 19.8021M4.44792 21.6782L2.57181 19.8021" stroke="#2A2B3B" stroke-width="1.5"/>
</svg>
