<svg width="21" height="20" viewBox="0 0 21 20" fill="none" xmlns="http://www.w3.org/2000/svg">
<path d="M3 5.32173C3 4.91801 3.28782 4.59074 3.64286 4.59074L5.86306 4.59035C6.30419 4.57763 6.69335 4.25869 6.84345 3.78685C6.8474 3.77444 6.85193 3.75914 6.86821 3.70361L6.96388 3.37721C7.02242 3.17709 7.07342 3.00274 7.14479 2.84689C7.42674 2.23121 7.9484 1.80368 8.55122 1.69422C8.70381 1.66651 8.8654 1.66663 9.05088 1.66677H11.9493C12.1347 1.66663 12.2963 1.66651 12.4489 1.69422C13.0517 1.80368 13.5734 2.23121 13.8554 2.84689C13.9267 3.00274 13.9777 3.17709 14.0363 3.37721L14.1319 3.70361C14.1482 3.75914 14.1527 3.77444 14.1567 3.78685C14.3068 4.25869 14.7732 4.57803 15.2143 4.59074H17.3571C17.7122 4.59074 18 4.91801 18 5.32173C18 5.72544 17.7122 6.05271 17.3571 6.05271H3.64286C3.28782 6.05271 3 5.72544 3 5.32173Z" fill="#C0C0C5"/>
<path fill-rule="evenodd" clip-rule="evenodd" d="M10.163 18.3335H10.837C13.1559 18.3335 14.3154 18.3335 15.0693 17.5952C15.8231 16.857 15.9003 15.646 16.0545 13.2239L16.2768 9.73402C16.3605 8.41986 16.4023 7.76278 16.0241 7.3464C15.6459 6.93001 15.0073 6.93001 13.73 6.93001H7.27004C5.99272 6.93001 5.35407 6.93001 4.97588 7.3464C4.59769 7.76278 4.63953 8.41986 4.72323 9.73403L4.94549 13.2239C5.09975 15.646 5.17687 16.857 5.93074 17.5952C6.68461 18.3335 7.84407 18.3335 10.163 18.3335ZM9.03856 10.1573C9.00422 9.79571 8.69794 9.53193 8.35448 9.56809C8.01101 9.60424 7.76042 9.92664 7.79477 10.2882L8.21143 14.6741C8.24578 15.0357 8.55206 15.2995 8.89552 15.2633C9.23899 15.2272 9.48958 14.9048 9.45523 14.5432L9.03856 10.1573ZM12.6455 9.56809C12.989 9.60424 13.2396 9.92664 13.2052 10.2882L12.7886 14.6741C12.7542 15.0357 12.4479 15.2995 12.1045 15.2633C11.761 15.2272 11.5104 14.9048 11.5448 14.5432L11.9614 10.1573C11.9958 9.79571 12.3021 9.53193 12.6455 9.56809Z" fill="#C0C0C5"/>
</svg>
