<svg width="17" height="16" viewBox="0 0 17 16" fill="none" xmlns="http://www.w3.org/2000/svg">
<path d="M4.58426 3.06704C4.88063 2.86901 5.19182 2.69725 5.51427 2.55285C6.42885 2.14326 6.88614 1.93847 7.4945 2.33261C8.10287 2.72675 8.10287 3.37328 8.10287 4.66634V5.66634C8.10287 6.92342 8.10287 7.55196 8.49339 7.94249C8.88392 8.33301 9.51246 8.33301 10.7695 8.33301H11.7695C13.0626 8.33301 13.7091 8.33301 14.1033 8.94137C14.4974 9.54974 14.2926 10.007 13.883 10.9216C13.7386 11.2441 13.5669 11.5552 13.3688 11.8516C12.6729 12.8931 11.6838 13.7049 10.5265 14.1842C9.36926 14.6636 8.09584 14.789 6.8673 14.5447C5.63875 14.3003 4.51026 13.6971 3.62452 12.8114C2.73879 11.9256 2.1356 10.7971 1.89123 9.56858C1.64685 8.34004 1.77228 7.06661 2.25163 5.90935C2.73099 4.75208 3.54274 3.76295 4.58426 3.06704Z" stroke="#2A2B3B" stroke-width="1.5"/>
<path d="M14.7336 4.713C14.1923 3.3392 13.0973 2.24418 11.7235 1.70298C10.6958 1.29812 9.76953 2.2291 9.76953 3.33367V6.00034C9.76953 6.36853 10.068 6.667 10.4362 6.667H13.1029C14.2074 6.667 15.1384 5.74069 14.7336 4.713Z" stroke="#2A2B3B" stroke-width="1.5"/>
</svg>
