<svg width="16" height="16" viewBox="0 0 16 16" fill="none" xmlns="http://www.w3.org/2000/svg">
<path d="M5.22872 2.53539C6.5812 1.73445 7.25744 1.33398 8 1.33398C8.74256 1.33398 9.4188 1.73445 10.7713 2.53539L11.2287 2.80629C12.5812 3.60723 13.2574 4.0077 13.6287 4.66732C14 5.32694 14 6.12788 14 7.72976V8.27155C14 9.87343 14 10.6744 13.6287 11.334C13.2574 11.9936 12.5812 12.3941 11.2287 13.195L10.7713 13.4659C9.4188 14.2668 8.74256 14.6673 8 14.6673C7.25744 14.6673 6.5812 14.2668 5.22872 13.4659L4.77128 13.195C3.4188 12.3941 2.74256 11.9936 2.37128 11.334C2 10.6744 2 9.87343 2 8.27155V7.72976C2 6.12788 2 5.32694 2.37128 4.66732C2.74256 4.0077 3.4188 3.60723 4.77128 2.80629L5.22872 2.53539Z" stroke="#6A6B76" stroke-width="1.5"/>
<circle cx="8" cy="8" r="2" stroke="#6A6B76" stroke-width="1.5"/>
</svg>
