<svg width="16" height="16" viewBox="0 0 16 16" fill="none" xmlns="http://www.w3.org/2000/svg">
<path fill-rule="evenodd" clip-rule="evenodd" d="M8.28516 1.33398C7.54259 1.33398 6.86635 1.73445 5.51388 2.53539L5.05644 2.80629C3.70396 3.60723 3.02772 4.0077 2.65644 4.66732C2.28516 5.32694 2.28516 6.12788 2.28516 7.72976V8.27155C2.28516 9.87343 2.28516 10.6744 2.65644 11.334C3.02772 11.9936 3.70396 12.3941 5.05644 13.195L5.51388 13.4659C6.86635 14.2668 7.54259 14.6673 8.28516 14.6673C9.02772 14.6673 9.70396 14.2668 11.0564 13.4659L11.5139 13.195C12.8664 12.3941 13.5426 11.9936 13.9139 11.334C14.2852 10.6744 14.2852 9.87343 14.2852 8.27155V7.72976C14.2852 6.12788 14.2852 5.32694 13.9139 4.66732C13.5426 4.0077 12.8664 3.60723 11.5139 2.80629L11.0564 2.53539C9.70396 1.73445 9.02772 1.33398 8.28516 1.33398ZM5.78516 8.00065C5.78516 6.61994 6.90444 5.50065 8.28516 5.50065C9.66587 5.50065 10.7852 6.61994 10.7852 8.00065C10.7852 9.38136 9.66587 10.5007 8.28516 10.5007C6.90444 10.5007 5.78516 9.38136 5.78516 8.00065Z" fill="#FAFAFA"/>
</svg>
