<svg width="25" height="24" viewBox="0 0 25 24" fill="none" xmlns="http://www.w3.org/2000/svg">
<path d="M12.666 9C11.0092 9 9.66602 7.65685 9.66602 6C9.66602 4.34315 11.0092 3 12.666 3C14.3229 3 15.666 4.34315 15.666 6C15.666 7.65685 14.3229 9 12.666 9Z" stroke="#95959D" stroke-width="1.5"/>
<path d="M6.16602 21C4.50916 21 3.16602 19.6569 3.16602 18C3.16602 16.3431 4.50916 15 6.16602 15C7.82287 15 9.16602 16.3431 9.16602 18C9.16602 19.6569 7.82287 21 6.16602 21Z" stroke="#95959D" stroke-width="1.5"/>
<path d="M19.166 21C17.5092 21 16.166 19.6569 16.166 18C16.166 16.3431 17.5092 15 19.166 15C20.8229 15 22.166 16.3431 22.166 18C22.166 19.6569 20.8229 21 19.166 21Z" stroke="#95959D" stroke-width="1.5"/>
<path d="M20.666 13C20.666 10.6106 19.6185 8.46589 17.9576 7M4.66602 13C4.66602 10.6106 5.71354 8.46589 7.3744 7M10.666 20.748C11.3053 20.9125 11.9754 21 12.666 21C13.3566 21 14.0268 20.9125 14.666 20.748" stroke="#95959D" stroke-width="1.5" stroke-linecap="round"/>
</svg>
