<svg width="70" height="61" viewBox="0 0 70 61" fill="none" xmlns="http://www.w3.org/2000/svg">
<path d="M36.6384 15.4519L36.7306 15.4794L36.7346 15.4748C37.1723 15.5541 37.6065 15.2921 37.7351 14.858C38.9067 10.9213 42.5978 8.1711 46.7102 8.1711C47.1971 8.1711 47.5919 7.77621 47.5919 7.28936C47.5919 6.80248 47.197 6.40762 46.7102 6.40762C41.656 6.40762 37.4089 9.7727 36.0451 14.3554C35.906 14.8222 36.1719 15.3128 36.6384 15.4519Z" fill="#7E9D00" stroke="#FAFAFA" stroke-width="0.3"/>
<path d="M56.9531 43.1445H52.5628C52.1588 43.1445 51.8311 42.8168 51.8311 42.4127C51.8311 42.0087 52.1588 41.681 52.5628 41.681H56.9531C63.005 41.681 67.9291 36.7569 67.9291 30.705C67.9291 24.6532 63.005 19.7291 56.9531 19.7291H56.8475C56.6354 19.7291 56.4336 19.6371 56.2946 19.4767C56.1555 19.3162 56.0928 19.1035 56.1231 18.8934C56.1885 18.4376 56.2214 17.9797 56.2214 17.5339C56.2214 12.289 51.9538 8.02137 46.7089 8.02137C44.6684 8.02137 42.7225 8.65902 41.0812 9.86583C40.7206 10.1308 40.2084 10.0132 39.9999 9.61652C35.3518 0.765754 23.2117 -0.422814 16.9176 7.27658C14.2662 10.5202 13.2244 14.7397 14.0592 18.8521C14.1512 19.3063 13.8036 19.7297 13.3421 19.7297H13.0489C6.99697 19.7297 2.07291 24.6537 2.07291 30.7056C2.07291 36.7575 6.99697 41.6816 13.0489 41.6816H17.4392C17.8432 41.6816 18.1709 42.0093 18.1709 42.4133C18.1709 42.8173 17.8432 43.145 17.4392 43.145H13.0489C6.18988 43.145 0.609375 37.5645 0.609375 30.7056C0.609375 24.039 5.88093 18.5802 12.4744 18.2792C11.8551 14.0126 13.0395 9.709 15.7844 6.35043C22.5231 -1.89354 35.4374 -0.969504 40.8965 8.22313C42.6381 7.13127 44.6309 6.55849 46.7086 6.55849C53.0632 6.55849 58.0985 11.9671 57.6579 18.286C64.1907 18.6524 69.3923 24.0823 69.3923 30.705C69.3923 37.5645 63.8118 43.1445 56.9528 43.1445L56.9531 43.1445Z" fill="#7E9D00"/>
<path d="M16.4594 41.9995C16.4594 52.1695 24.733 60.443 34.9029 60.443C45.0728 60.443 53.3463 52.1693 53.3463 41.9995C53.3463 31.8296 45.0728 23.5561 34.9029 23.5561C24.7329 23.5561 16.4594 31.8297 16.4594 41.9995ZM18.2232 41.9995C18.2232 32.8026 25.7058 25.3199 34.9029 25.3199C44.0998 25.3199 51.5825 32.8025 51.5825 41.9995C51.5825 51.1964 44.0998 58.6792 34.9029 58.6792C25.706 58.6792 18.2232 51.1966 18.2232 41.9995Z" fill="#7E9D00" stroke="#FAFAFA" stroke-width="0.3"/>
<path d="M40.5437 37.7862L33.9146 44.4153L30.1138 40.6146C29.9801 40.4808 29.804 40.4137 29.6289 40.4137C29.4541 40.4137 29.2779 40.4803 29.144 40.6146C28.8762 40.8825 28.8762 41.3165 29.1441 41.5843L33.4297 45.87C33.6975 46.1378 34.1319 46.138 34.3995 45.87C34.3995 45.87 34.3995 45.8699 34.3996 45.8699L41.5135 38.7559C41.7814 38.488 41.7814 38.054 41.5135 37.7861C41.2457 37.5183 40.8112 37.5182 40.5437 37.7862Z" fill="#7E9D00" stroke="#7E9D00" stroke-width="0.3"/>
</svg>
