<svg width="20" height="20" viewBox="0 0 20 20" fill="none" xmlns="http://www.w3.org/2000/svg">
<g clip-path="url(#clip0_9548_13610)">
<path d="M9.99772 20.004C15.522 20.004 20.0003 15.5257 20.0003 10.0014C20.0003 4.4771 15.522 -0.0012207 9.99772 -0.0012207C4.47344 -0.0012207 -0.00488281 4.4771 -0.00488281 10.0014C-0.00488281 15.5257 4.47344 20.004 9.99772 20.004Z" fill="#7E9D00"/>
<path d="M7.00293 11.1742L9.05346 12.8861C9.10853 12.9334 9.17302 12.9673 9.24223 12.9854C9.31144 13.0034 9.38364 13.0052 9.45357 12.9905C9.52417 12.9766 9.59109 12.9471 9.64978 12.9039C9.70846 12.8606 9.75754 12.8047 9.79366 12.7399L13.0045 6.99878" stroke="#FAFAFA" stroke-linecap="round" stroke-linejoin="round"/>
</g>
<defs>
<clipPath id="clip0_9548_13610">
<rect width="20" height="20" fill="white"/>
</clipPath>
</defs>
</svg>
