<svg width="16" height="17" viewBox="0 0 16 17" fill="none" xmlns="http://www.w3.org/2000/svg">
<path d="M5.33496 5.16659C5.34303 3.71657 5.40733 2.93129 5.91959 2.41904C6.50538 1.83325 7.44818 1.83325 9.3338 1.83325H10.0005C11.8861 1.83325 12.8289 1.83325 13.4147 2.41904C14.0005 3.00482 14.0005 3.94763 14.0005 5.83325V11.1666C14.0005 13.0522 14.0005 13.995 13.4147 14.5808C12.8289 15.1666 11.8861 15.1666 10.0005 15.1666H9.3338C7.44818 15.1666 6.50538 15.1666 5.91959 14.5808C5.40733 14.0685 5.34303 13.2833 5.33496 11.8333" stroke="#FF5656" stroke-width="1.5" stroke-linecap="round"/>
<path d="M5.33333 13.5C3.76199 13.5 2.97631 13.5 2.48816 13.0118C2 12.5237 2 11.738 2 10.1667V6.83333C2 5.26199 2 4.47631 2.48816 3.98816C2.97631 3.5 3.76199 3.5 5.33333 3.5" stroke="#FF5656" stroke-width="1.5"/>
<path d="M10 8.50008L4 8.50008M4 8.50008L5.33333 9.83341M4 8.50008L5.33333 7.16675" stroke="#FF5656" stroke-width="1.5" stroke-linecap="round" stroke-linejoin="round"/>
</svg>
