<svg width="16" height="16" viewBox="0 0 16 16" fill="none" xmlns="http://www.w3.org/2000/svg">
<g clip-path="url(#clip0_13382_44852)">
<path d="M6.00195 4.66671C6.01002 3.21669 6.07433 2.43142 6.58658 1.91916C7.17237 1.33337 8.11518 1.33337 10.0008 1.33337L10.6675 1.33337C12.5531 1.33337 13.4959 1.33337 14.0817 1.91916C14.6675 2.50495 14.6675 3.44776 14.6675 5.33337L14.6675 10.6667C14.6675 12.5523 14.6675 13.4951 14.0817 14.0809C13.4959 14.6667 12.5531 14.6667 10.6675 14.6667L10.0008 14.6667C8.11518 14.6667 7.17237 14.6667 6.58658 14.0809C6.07433 13.5687 6.01002 12.7834 6.00195 11.3334" stroke="#FF5656" stroke-width="1.5" stroke-linecap="round"/>
<path d="M10 8L1.33333 8M1.33333 8L3.66667 6M1.33333 8L3.66667 10" stroke="#FF5656" stroke-width="1.5" stroke-linecap="round" stroke-linejoin="round"/>
</g>
<defs>
<clipPath id="clip0_13382_44852">
<rect width="16" height="16" rx="5" fill="white"/>
</clipPath>
</defs>
</svg>
