<svg width="140" height="140" viewBox="0 0 140 140" fill="none" xmlns="http://www.w3.org/2000/svg">
<g clip-path="url(#clip0_10760_34817)">
<circle cx="70" cy="70" r="70" fill="url(#paint0_linear_10760_34817)"/>
<path d="M0 138.833H140" stroke="#2A2B3B" stroke-width="3" stroke-linecap="square" stroke-linejoin="round"/>
<path d="M14 65.9399C14 62.2211 14 60.3616 14.7676 58.7381C15.5352 57.1145 16.9722 55.9345 19.8462 53.5745L59.3078 21.1708C64.1678 17.1799 66.5978 15.1845 69.4615 15.1845C72.3252 15.1845 74.7553 17.1799 79.6153 21.1708L119.077 53.5745C121.951 55.9345 123.388 57.1145 124.155 58.7381C124.923 60.3616 124.923 62.2211 124.923 65.9399V122.833C124.923 130.375 124.923 134.147 122.58 136.49C120.237 138.833 116.466 138.833 108.923 138.833H30C22.4575 138.833 18.6863 138.833 16.3431 136.49C14 134.147 14 130.375 14 122.833V65.9399Z" fill="#FAFAFA" stroke="#2A2B3B" stroke-width="3"/>
<path d="M14 59.1342L63.0161 18.7668C67.1722 15.3441 73.1951 15.4327 77.2487 18.9763L124.923 60.6523L81.2008 98.8735L74.1091 95.2676C71.6118 93.9979 68.7241 93.7288 66.0352 94.5154L57.2471 97.086L14 59.1342Z" fill="#2A2B3B"/>
<mask id="mask0_10760_34817" style="mask-type:alpha" maskUnits="userSpaceOnUse" x="14" y="12" width="111" height="87">
<path d="M57.2471 97.086L14 59.1342V12.833H124.923V60.6523L81.2008 98.8735L74.1091 95.2676C71.6118 93.9979 68.7241 93.7288 66.0352 94.5154L57.2471 97.086Z" fill="#2A2B3B"/>
</mask>
<g mask="url(#mask0_10760_34817)">
<rect x="32.6641" y="24.7188" width="74.6667" height="88.9375" rx="8" fill="#FAFAFA" stroke="#2A2B3B" stroke-width="3"/>
</g>
<path d="M58.2478 98.6163V98.6163C62.6437 94.7882 64.8416 92.8742 67.3727 92.3347C68.7467 92.0418 70.1669 92.0418 71.5409 92.3345C74.072 92.8737 76.2706 94.7879 80.6676 98.6163V98.6163M58.2478 98.6163L15.5156 135.796M58.2478 98.6163L15.5156 61.4104M80.6676 98.6163L123.4 135.796M80.6676 98.6163L123.4 61.4104" stroke="#2A2B3B" stroke-width="3"/>
<circle cx="69.9974" cy="61.6507" r="19.8333" fill="#2A2B3B"/>
<path d="M60.9844 52.6338L79.0147 70.6641M79.0147 52.6338L60.9844 70.6641" stroke="#FAFAFA" stroke-width="3"/>
</g>
<defs>
<linearGradient id="paint0_linear_10760_34817" x1="70" y1="0" x2="70" y2="140" gradientUnits="userSpaceOnUse">
<stop stop-color="white"/>
<stop offset="1" stop-color="white" stop-opacity="0"/>
</linearGradient>
<clipPath id="clip0_10760_34817">
<rect width="140" height="140" fill="white"/>
</clipPath>
</defs>
</svg>
