<svg width="120" height="120" viewBox="0 0 120 120" fill="none" xmlns="http://www.w3.org/2000/svg">
<g clip-path="url(#clip0_8070_14639)">
<circle cx="60" cy="60" r="60" fill="url(#paint0_linear_8070_14639)"/>
<path d="M100.473 111.879C100.473 113.843 99.6919 115.728 98.3031 117.116C96.9144 118.505 95.0302 119.286 93.0659 119.286H26.4066C24.4422 119.286 22.5583 118.505 21.1693 117.116C19.7804 115.728 19 113.843 19 111.879V30.4066C19 28.4422 19.7804 26.5583 21.1693 25.1693C22.5583 23.7803 24.4422 23 26.4066 23H70.8215C73.2085 23 75.4977 23.9482 77.1855 25.636L97.8365 46.287C99.5243 47.9749 100.473 50.264 100.473 52.651V111.879Z" fill="#FAFAFA"/>
<path d="M27 70H91.5M27 78H73.5M27 86H83.5M27 94H66.5M27 62H58.5M100.473 111.879C100.473 113.843 99.6919 115.728 98.3031 117.116C96.9144 118.505 95.0302 119.286 93.0659 119.286H26.4066C24.4422 119.286 22.5583 118.505 21.1693 117.116C19.7804 115.728 19 113.843 19 111.879V30.4066C19 28.4422 19.7804 26.5583 21.1693 25.1693C22.5583 23.7803 24.4422 23 26.4066 23H70.8215C73.2085 23 75.4977 23.9482 77.1855 25.636L97.8365 46.287C99.5243 47.9749 100.473 50.2641 100.473 52.651V111.879Z" stroke="#2A2B3B" stroke-width="2" stroke-linecap="round" stroke-linejoin="round"/>
<path d="M0 119H120" stroke="#2A2B3B" stroke-width="2" stroke-linecap="square" stroke-linejoin="round"/>
<g filter="url(#filter0_d_8070_14639)">
<path d="M44.1147 17.9987C45.0044 16.743 46.7436 16.4463 47.9993 17.336L52.8103 20.7447L52.967 20.8558C55.0201 22.3103 56.7942 23.5671 58.0636 24.7616C59.4234 26.0412 60.5544 27.5644 60.7958 29.6294C61.0373 31.6945 60.2881 33.4374 59.2601 34.9962C58.3005 36.4514 56.8642 38.0835 55.202 39.9723L55.2019 39.9724L55.0751 40.1166L51.1802 44.5431C50.1636 45.6985 48.4028 45.8109 47.2475 44.7943C46.0921 43.7777 45.9796 42.017 46.9962 40.8616L50.8911 36.4351C52.7167 34.3604 53.8877 33.0198 54.6077 31.9281C55.2837 30.903 55.2863 30.497 55.2605 30.2766C55.2347 30.0562 55.1385 29.6617 54.2443 28.8202C53.2919 27.924 51.8432 26.8897 49.5883 25.292L44.7774 21.8833C43.5217 20.9936 43.225 19.2544 44.1147 17.9987Z" fill="#FAFAFA" stroke="#2A2B3B" stroke-width="2" stroke-linecap="round"/>
<path d="M38.2121 10.4966C39.7348 10.7196 40.7884 12.1347 40.5654 13.6574L34.8183 52.9004C34.5953 54.4231 33.1801 55.4767 31.6574 55.2537C30.1347 55.0307 29.0811 53.6155 29.3041 52.0928L35.0512 12.8499C35.2742 11.3272 36.6894 10.2736 38.2121 10.4966Z" fill="#FAFAFA" stroke="#2A2B3B" stroke-width="2" stroke-linecap="round"/>
<path d="M22.5706 20.5173C23.726 21.5339 23.8385 23.2946 22.8219 24.45L18.927 28.8765C17.1014 30.9513 15.9304 32.2918 15.2104 33.3836C14.5344 34.4086 14.5318 34.8147 14.5576 35.0351C14.5833 35.2555 14.6795 35.6499 15.5737 36.4914C16.5261 37.3877 17.9748 38.422 20.2297 40.0196L25.0406 43.4283C26.2963 44.3181 26.593 46.0573 25.7033 47.313C24.8136 48.5687 23.0744 48.8654 21.8187 47.9756L17.0078 44.5669L16.851 44.4559C14.7979 43.0014 13.0239 41.7446 11.7545 40.55C10.3947 39.2704 9.26366 37.7473 9.02223 35.6822C8.7808 33.6172 9.52999 31.8742 10.558 30.3154C11.5176 28.8603 12.9539 27.2282 14.6161 25.3393L14.6161 25.3393L14.743 25.1951L18.6379 20.7685C19.6545 19.6132 21.4152 19.5007 22.5706 20.5173Z" fill="#FAFAFA" stroke="#2A2B3B" stroke-width="2" stroke-linecap="round"/>
</g>
<g filter="url(#filter1_d_8070_14639)">
<path d="M99.7928 86.2073C97.1689 83.5835 92.9459 83.5835 84.4999 83.5835C76.0539 83.5835 71.8309 83.5835 69.2071 86.2073C66.5833 88.8312 66.5833 93.0542 66.5833 101.5H102.417C102.417 93.0542 102.417 88.8312 99.7928 86.2073Z" fill="#FAFAFA" stroke="#2A2B3B" stroke-width="2"/>
<path d="M66.5833 105.083C66.5833 100.066 66.5833 97.5576 67.5597 95.6413C68.4185 93.9557 69.789 92.5853 71.4746 91.7264C73.3909 90.75 75.8994 90.75 80.9166 90.75H88.0833C93.1004 90.75 95.609 90.75 97.5253 91.7264C99.2109 92.5853 100.581 93.9557 101.44 95.6413C102.417 97.5576 102.417 100.066 102.417 105.083C102.417 110.1 102.417 112.609 101.44 114.525C100.581 116.211 99.2109 117.581 97.5253 118.44C95.609 119.417 93.1004 119.417 88.0833 119.417H80.9166C75.8994 119.417 73.3909 119.417 71.4746 118.44C69.789 117.581 68.4185 116.211 67.5597 114.525C66.5833 112.609 66.5833 110.1 66.5833 105.083Z" fill="#FAFAFA" stroke="#2A2B3B" stroke-width="2"/>
<path d="M84.4999 110.458L84.4999 99.7085M84.4999 99.7085L88.9791 104.188M84.4999 99.7085L80.0208 104.188" stroke="#2A2B3B" stroke-width="2" stroke-linecap="round" stroke-linejoin="round"/>
</g>
</g>
<defs>
<filter id="filter0_d_8070_14639" x="7.97656" y="9.4668" width="57.8649" height="50.8169" filterUnits="userSpaceOnUse" color-interpolation-filters="sRGB">
<feFlood flood-opacity="0" result="BackgroundImageFix"/>
<feColorMatrix in="SourceAlpha" type="matrix" values="0 0 0 0 0 0 0 0 0 0 0 0 0 0 0 0 0 0 127 0" result="hardAlpha"/>
<feOffset dx="4" dy="4"/>
<feComposite in2="hardAlpha" operator="out"/>
<feColorMatrix type="matrix" values="0 0 0 0 0.164706 0 0 0 0 0.168627 0 0 0 0 0.231373 0 0 0 1 0"/>
<feBlend mode="normal" in2="BackgroundImageFix" result="effect1_dropShadow_8070_14639"/>
<feBlend mode="normal" in="SourceGraphic" in2="effect1_dropShadow_8070_14639" result="shape"/>
</filter>
<filter id="filter1_d_8070_14639" x="65.5833" y="82.5835" width="41.8334" height="41.833" filterUnits="userSpaceOnUse" color-interpolation-filters="sRGB">
<feFlood flood-opacity="0" result="BackgroundImageFix"/>
<feColorMatrix in="SourceAlpha" type="matrix" values="0 0 0 0 0 0 0 0 0 0 0 0 0 0 0 0 0 0 127 0" result="hardAlpha"/>
<feOffset dx="4" dy="4"/>
<feComposite in2="hardAlpha" operator="out"/>
<feColorMatrix type="matrix" values="0 0 0 0 0.164706 0 0 0 0 0.168627 0 0 0 0 0.231373 0 0 0 1 0"/>
<feBlend mode="normal" in2="BackgroundImageFix" result="effect1_dropShadow_8070_14639"/>
<feBlend mode="normal" in="SourceGraphic" in2="effect1_dropShadow_8070_14639" result="shape"/>
</filter>
<linearGradient id="paint0_linear_8070_14639" x1="58.3019" y1="0" x2="58.3019" y2="120" gradientUnits="userSpaceOnUse">
<stop stop-color="white"/>
<stop offset="1" stop-color="white" stop-opacity="0"/>
</linearGradient>
<clipPath id="clip0_8070_14639">
<rect width="120" height="120" fill="white"/>
</clipPath>
</defs>
</svg>
