<svg width="142" height="126" viewBox="0 0 142 126" fill="none" xmlns="http://www.w3.org/2000/svg">
<circle cx="79" cy="60" r="60" fill="url(#paint0_linear_8070_14674)"/>
<path d="M19 119H141" stroke="#2A2B3B" stroke-width="2" stroke-linecap="square" stroke-linejoin="round"/>
<rect x="37" y="21" width="85" height="85" fill="#FAFAFA" stroke="#2A2B3B" stroke-width="2"/>
<rect x="32" y="98.3477" width="12.7059" height="12.6522" rx="2" fill="#FAFAFA" stroke="#2A2B3B" stroke-width="2"/>
<rect x="115.294" y="98.3477" width="12.7059" height="12.6522" rx="2" fill="#FAFAFA" stroke="#2A2B3B" stroke-width="2"/>
<rect x="115.294" y="14" width="12.7059" height="12.6522" rx="2" fill="#FAFAFA" stroke="#2A2B3B" stroke-width="2"/>
<rect x="32" y="14" width="12.7059" height="12.6522" rx="2" fill="#FAFAFA" stroke="#2A2B3B" stroke-width="2"/>
<path d="M102.286 43.4287H86.8571" stroke="#2A2B3B" stroke-width="2" stroke-linecap="round" stroke-linejoin="round"/>
<path d="M102.286 53.7144H86.8571" stroke="#2A2B3B" stroke-width="2" stroke-linecap="round" stroke-linejoin="round"/>
<path d="M102.286 64H86.8571" stroke="#2A2B3B" stroke-width="2" stroke-linecap="round" stroke-linejoin="round"/>
<path d="M102.286 84.5718H57.7142" stroke="#2A2B3B" stroke-width="2" stroke-linecap="round" stroke-linejoin="round"/>
<path d="M102.286 74.2856H57.7142" stroke="#2A2B3B" stroke-width="2" stroke-linecap="round" stroke-linejoin="round"/>
<path d="M76.5714 43.4287H59.4285C58.4817 43.4287 57.7142 44.1962 57.7142 45.143V62.2859C57.7142 63.2326 58.4817 64.0001 59.4285 64.0001H76.5714C77.5181 64.0001 78.2857 63.2326 78.2857 62.2859V45.143C78.2857 44.1962 77.5181 43.4287 76.5714 43.4287Z" stroke="#2A2B3B" stroke-width="2" stroke-linecap="round" stroke-linejoin="round"/>
<g filter="url(#filter0_d_8070_14674)">
<path d="M57.7645 91.5964C57.1132 91.2686 56.3807 91.1378 55.6562 91.2196C54.9321 91.3017 54.2471 91.5928 53.6855 92.0576C52.3537 93.2483 50.6411 93.9252 48.8552 93.9662C47.0691 94.0071 45.3272 93.4097 43.9424 92.2812C42.5575 91.1527 41.6207 89.5672 41.3003 87.8098C40.9799 86.0523 41.2969 84.2382 42.1943 82.6936L45.7026 76.6171C46.3072 75.5767 46.6528 74.4058 46.7101 73.2036C46.7672 72.0018 46.5346 70.8034 46.0316 69.7101C45.5286 68.6168 44.7699 67.6606 43.8199 66.9219C42.8698 66.1832 41.756 65.684 40.5723 65.4663C36.1769 64.6517 31.6419 65.0612 27.4633 66.6494C23.2847 68.2377 19.6229 70.9438 16.8782 74.4722C14.1334 78.0007 12.4111 82.2156 11.8996 86.6566C11.3881 91.0975 12.1069 95.5936 13.9776 99.6537C15.8483 103.714 18.799 107.182 22.5071 109.678C26.2152 112.175 30.5382 113.605 35.0038 113.811C39.4692 114.017 43.9057 112.992 47.828 110.847C51.7505 108.703 55.0082 105.522 57.245 101.652C58.354 99.7426 59.1906 97.688 59.7295 95.5471C59.9304 94.7625 59.8421 93.9316 59.4814 93.2064C59.1206 92.4811 58.5116 91.9099 57.7645 91.5964Z" fill="#FAFAFA" stroke="#2A2B3B" stroke-width="1.71429" stroke-linecap="round" stroke-linejoin="round"/>
<path d="M32.1944 81.2527C33.2306 79.4581 32.6157 77.1632 30.821 76.1271C29.0264 75.091 26.7316 75.7059 25.6954 77.5005C24.6593 79.2951 25.2742 81.59 27.0688 82.6261C28.8635 83.6622 31.1583 83.0473 32.1944 81.2527Z" stroke="#2A2B3B" stroke-width="1.71429" stroke-linecap="round" stroke-linejoin="round"/>
<path d="M40.9376 103.631C41.4556 102.734 41.1482 101.586 40.2509 101.068C39.3535 100.55 38.2061 100.858 37.6881 101.755C37.17 102.652 37.4774 103.8 38.3748 104.318C39.2721 104.836 40.4195 104.529 40.9376 103.631Z" stroke="#2A2B3B" stroke-width="1.71429" stroke-linecap="round" stroke-linejoin="round"/>
<path d="M29.5643 97.0652C30.6005 95.2706 29.9856 92.9757 28.1909 91.9396C26.3963 90.9035 24.1014 91.5184 23.0653 93.313C22.0292 95.1076 22.6441 97.4025 24.4387 98.4386C26.2333 99.4747 28.5282 98.8598 29.5643 97.0652Z" stroke="#2A2B3B" stroke-width="1.71429" stroke-linecap="round" stroke-linejoin="round"/>
</g>
<g filter="url(#filter1_d_8070_14674)">
<path d="M105.443 24.7771L124.01 4.91531C126.649 2.06948 131.413 1.9286 134.23 4.61317C137.03 7.31516 136.883 11.8848 133.915 14.416L113.417 32.022" fill="#FAFAFA"/>
<path d="M105.443 24.7771L124.01 4.91531C126.649 2.06948 131.413 1.9286 134.23 4.61317C137.03 7.31516 136.883 11.8848 133.915 14.416L113.417 32.022" stroke="#2A2B3B" stroke-width="1.71429" stroke-linecap="round" stroke-linejoin="round"/>
<path d="M110.465 41.4752C105.11 46.6452 96.0103 48.3574 90.7603 43.1874C97.7603 36.2381 90.7603 32.881 96.0103 27.8453C96.9321 26.8603 98.0537 26.066 99.3064 25.5109C100.559 24.9557 101.917 24.6515 103.296 24.6167C104.676 24.5818 106.048 24.8172 107.33 25.3083C108.611 25.7995 109.775 26.5361 110.749 27.4732C111.724 28.4103 112.489 29.5282 112.998 30.7585C113.507 31.9888 113.749 33.3058 113.709 34.629C113.669 35.952 113.349 37.2533 112.767 38.4538C112.185 39.654 111.354 40.7276 110.325 41.6095L110.465 41.4752Z" fill="#FAFAFA" stroke="#2A2B3B" stroke-width="1.71429" stroke-linecap="round" stroke-linejoin="round"/>
</g>
<defs>
<filter id="filter0_d_8070_14674" x="10.8822" y="64.2007" width="53.8098" height="54.4932" filterUnits="userSpaceOnUse" color-interpolation-filters="sRGB">
<feFlood flood-opacity="0" result="BackgroundImageFix"/>
<feColorMatrix in="SourceAlpha" type="matrix" values="0 0 0 0 0 0 0 0 0 0 0 0 0 0 0 0 0 0 127 0" result="hardAlpha"/>
<feOffset dx="4" dy="4"/>
<feComposite in2="hardAlpha" operator="out"/>
<feColorMatrix type="matrix" values="0 0 0 0 0.164706 0 0 0 0 0.168627 0 0 0 0 0.231373 0 0 0 1 0"/>
<feBlend mode="normal" in2="BackgroundImageFix" result="effect1_dropShadow_8070_14674"/>
<feBlend mode="normal" in="SourceGraphic" in2="effect1_dropShadow_8070_14674" result="shape"/>
</filter>
<filter id="filter1_d_8070_14674" x="89.9031" y="1.83008" width="51.1934" height="49.3398" filterUnits="userSpaceOnUse" color-interpolation-filters="sRGB">
<feFlood flood-opacity="0" result="BackgroundImageFix"/>
<feColorMatrix in="SourceAlpha" type="matrix" values="0 0 0 0 0 0 0 0 0 0 0 0 0 0 0 0 0 0 127 0" result="hardAlpha"/>
<feOffset dx="4" dy="4"/>
<feComposite in2="hardAlpha" operator="out"/>
<feColorMatrix type="matrix" values="0 0 0 0 0.164706 0 0 0 0 0.168627 0 0 0 0 0.231373 0 0 0 1 0"/>
<feBlend mode="normal" in2="BackgroundImageFix" result="effect1_dropShadow_8070_14674"/>
<feBlend mode="normal" in="SourceGraphic" in2="effect1_dropShadow_8070_14674" result="shape"/>
</filter>
<linearGradient id="paint0_linear_8070_14674" x1="77.3019" y1="0" x2="77.3019" y2="120" gradientUnits="userSpaceOnUse">
<stop stop-color="white"/>
<stop offset="1" stop-color="white" stop-opacity="0"/>
</linearGradient>
</defs>
</svg>
