<svg width="200" height="201" viewBox="0 0 200 201" fill="none" xmlns="http://www.w3.org/2000/svg">
<g clip-path="url(#clip0_10760_33888)">
<circle cx="100" cy="100.5" r="100" fill="url(#paint0_linear_10760_33888)"/>
<path d="M0 198.833H200" stroke="#2A2B3B" stroke-width="3" stroke-linecap="square" stroke-linejoin="round"/>
<path d="M31.6685 106.358C31.6685 102.639 31.6685 100.78 32.4361 99.156C33.2037 97.5325 34.6407 96.3525 37.5147 93.9925L90.4748 50.5044C95.3348 46.5136 97.7649 44.5182 100.629 44.5182C103.492 44.5182 105.922 46.5136 110.782 50.5044L163.742 93.9925C166.616 96.3525 168.053 97.5325 168.821 99.156C169.589 100.78 169.589 102.639 169.589 106.358V182.833C169.589 190.376 169.589 194.147 167.246 196.49C164.902 198.833 161.131 198.833 153.589 198.833H47.6684C40.126 198.833 36.3547 198.833 34.0116 196.49C31.6685 194.147 31.6685 190.376 31.6685 182.833V106.358Z" fill="#FAFAFA" stroke="#2A2B3B" stroke-width="3"/>
<path d="M31.6685 99.7369L94.3681 48.1005C98.5242 44.6777 104.547 44.7663 108.601 48.3099L169.589 101.624L115.225 149.148L105.461 144.184C102.964 142.914 100.076 142.645 97.3871 143.431L85.4414 146.926L31.6685 99.7369Z" fill="#2A2B3B"/>
<mask id="mask0_10760_33888" style="mask-type:alpha" maskUnits="userSpaceOnUse" x="31" y="42" width="139" height="108">
<path d="M85.4397 146.926L31.6667 99.7369V42.1666H169.587V101.624L115.223 149.148L105.459 144.184C102.962 142.914 100.074 142.645 97.3854 143.431L85.4397 146.926Z" fill="#2A2B3B"/>
</mask>
<g mask="url(#mask0_10760_33888)">
<rect x="54.1729" y="56.9513" width="92.8982" height="110.584" rx="8" fill="#FAFAFA" stroke="#2A2B3B" stroke-width="3"/>
<path d="M66.4783 78.6704H134.774" stroke="#2A2B3B" stroke-width="3"/>
<path d="M66.4783 92.4896H134.774" stroke="#2A2B3B" stroke-width="3"/>
<path d="M66.4783 106.319H134.774" stroke="#2A2B3B" stroke-width="3"/>
<path d="M66.4783 120.139H134.774" stroke="#2A2B3B" stroke-width="3"/>
<path d="M66.4783 133.968H134.774" stroke="#2A2B3B" stroke-width="3"/>
<path d="M66.4783 147.787H134.774" stroke="#2A2B3B" stroke-width="3"/>
</g>
<path d="M86.6894 148.828L87.4931 148.128C93.753 142.677 96.8829 139.951 100.627 139.951C104.37 139.951 107.5 142.676 113.761 148.127L114.566 148.828M86.6894 148.828L33.5569 195.057M86.6894 148.828L33.5569 102.567M114.566 148.828L167.698 195.057M114.566 148.828L167.698 102.567" stroke="#2A2B3B" stroke-width="3"/>
<path fill-rule="evenodd" clip-rule="evenodd" d="M31.6667 172.108V125.559C32.2173 125.52 32.773 125.5 33.3334 125.5C46.2201 125.5 56.6667 135.947 56.6667 148.833C56.6667 161.72 46.2201 172.167 33.3334 172.167C32.773 172.167 32.2173 172.147 31.6667 172.108Z" fill="#2A2B3B"/>
<circle cx="26.6667" cy="145.5" r="23.5" fill="#FAFAFA" stroke="#2A2B3B" stroke-width="3"/>
<ellipse cx="32.5001" cy="150.5" rx="3.33333" ry="3.33333" fill="#2A2B3B"/>
<ellipse cx="20.8333" cy="140.5" rx="3.33333" ry="3.33333" fill="#2A2B3B"/>
<path d="M20.8333 153.833L31.6666 138" stroke="#2A2B3B" stroke-width="3" stroke-linecap="square"/>
<path d="M190.167 42.1667C190.167 59.7478 175.914 74 158.333 74C140.752 74 126.5 59.7478 126.5 42.1667C126.5 24.5856 140.752 10.3334 158.333 10.3334C175.914 10.3334 190.167 24.5856 190.167 42.1667Z" fill="#FAFAFA" stroke="#2A2B3B" stroke-width="3"/>
<path d="M163.106 49.8746C162.859 50.3266 162.517 50.7499 162.086 51.145L162.085 51.1467C161.514 51.6602 160.792 52.0648 159.926 52.3655L159.924 52.3661C159.057 52.6607 158.059 52.7794 156.933 52.7297C155.683 52.6797 154.55 52.3942 153.538 51.8693C152.528 51.3457 151.664 50.6208 150.947 49.6972L150.946 49.6959C150.239 48.7729 149.699 47.6833 149.324 46.4311C148.949 45.1772 148.763 43.7892 148.763 42.2693C148.763 40.8042 148.974 39.4842 149.401 38.3127C149.826 37.1384 150.406 36.1228 151.144 35.2694L151.144 35.2693C151.888 34.409 152.744 33.7266 153.711 33.2244C154.676 32.7238 155.695 32.408 156.769 32.2778L156.77 32.2776C157.807 32.1583 158.767 32.1873 159.648 32.3688C160.52 32.5484 161.256 32.8254 161.849 33.2062C161.849 33.2064 161.849 33.2066 161.85 33.2067L161.714 33.4171C162.216 33.7341 162.553 34.0775 162.726 34.4472L163.106 49.8746ZM163.106 49.8746C163.279 50.495 163.599 51.0271 164.067 51.4647L164.068 51.4664C164.641 51.9915 165.333 52.3696 166.14 52.6032C166.938 52.8346 167.762 52.9351 168.608 52.9052C170.19 52.875 171.5 52.5007 172.518 51.7621L172.519 51.7618C173.533 51.023 174.305 50.0421 174.834 48.8257C175.366 47.6135 175.729 46.2661 175.925 44.7854L175.925 44.7851C176.12 43.3034 176.218 41.788 176.218 40.2388C176.218 38.0095 175.845 35.891 175.1 33.8851C174.354 31.8768 173.243 30.0951 171.77 28.5418C170.304 26.985 168.495 25.7631 166.348 24.8743C164.196 23.983 161.716 23.5406 158.916 23.5406C155.992 23.5406 153.37 23.9728 151.056 24.8421C148.743 25.711 146.774 26.9719 145.151 28.626L145.151 28.626C143.539 30.2702 142.312 32.259 141.47 34.5883C140.627 36.9182 140.208 39.5381 140.208 42.4445C140.208 45.4278 140.622 48.0912 141.455 50.4311C142.288 52.7706 143.51 54.7508 145.124 56.3666C146.738 57.9925 148.718 59.2191 151.06 60.0485C151.06 60.0485 151.06 60.0485 151.06 60.0484L163.106 49.8746ZM162.726 32.9642V33.9711L165.811 60.3609C165.812 60.3608 165.812 60.3608 165.812 60.3607C166.814 60.0861 167.627 59.8042 168.244 59.5133L168.442 59.42L168.376 59.2115L167.361 56.0124L167.283 55.7649L167.038 55.8528C166.64 55.9959 166.033 56.1839 165.213 56.4173L165.21 56.4183C164.409 56.6584 163.49 56.8706 162.454 57.0543L162.452 57.0547C161.423 57.2466 160.375 57.3426 159.307 57.3426C156.894 57.3426 154.773 57.0097 152.94 56.3495L152.939 56.3491C151.105 55.6983 149.573 54.7437 148.335 53.4877C147.098 52.2313 146.159 50.6867 145.523 48.8487C144.886 47.0005 144.565 44.8767 144.565 42.4738C144.565 40.1688 144.876 38.0978 145.494 36.2579C146.122 34.4084 147.038 32.8278 148.24 31.5117C149.45 30.1973 150.936 29.1909 152.701 28.4931L152.702 28.4926C154.465 27.7859 156.487 27.4296 158.771 27.4296C160.452 27.4296 161.979 27.6365 163.354 28.0473L163.354 28.0474C164.742 28.4593 165.974 29.0423 167.052 29.7949C168.131 30.548 169.038 31.4478 169.775 32.4946L169.776 32.4967C170.523 33.5342 171.086 34.6966 171.465 35.9855L171.465 35.9876C171.854 37.2671 172.049 38.635 172.049 40.0927C172.049 42.1991 171.943 43.9183 171.733 45.2542L171.733 45.256C171.533 46.5922 171.188 47.5462 170.724 48.1496L170.722 48.1515C170.28 48.7361 169.671 49.0309 168.863 49.0309C168.188 49.0309 167.69 48.7928 167.337 48.3276C166.978 47.8417 166.793 47.2439 166.793 46.5201V32.9642V32.7142H166.543H162.976H162.726V32.9642ZM160.678 47.9324L160.677 47.9332C159.967 48.404 159.01 48.6511 157.785 48.6511C156.561 48.6511 155.62 48.3413 154.933 47.7483C154.237 47.1391 153.729 46.3428 153.413 45.35C153.102 44.3338 152.941 43.2489 152.931 42.094C152.941 41.0047 153.138 40.0217 153.519 39.1413C153.908 38.265 154.464 37.5769 155.188 37.0695C155.913 36.5676 156.793 36.311 157.843 36.311C159.007 36.311 159.936 36.5021 160.643 36.8674L160.643 36.8675L160.646 36.8692C161.348 37.2184 161.87 37.8011 162.208 38.6379L162.208 38.6379L162.209 38.641C162.558 39.4751 162.745 40.6167 162.755 42.0801C162.755 43.5819 162.583 44.818 162.246 45.7961L162.246 45.7974C161.923 46.7555 161.398 47.461 160.678 47.9324Z" fill="#2A2B3B" stroke="#2A2B3B" stroke-width="0.5"/>
</g>
<defs>
<linearGradient id="paint0_linear_10760_33888" x1="97.1698" y1="0.5" x2="97.1698" y2="200.5" gradientUnits="userSpaceOnUse">
<stop stop-color="white"/>
<stop offset="1" stop-color="white" stop-opacity="0"/>
</linearGradient>
<clipPath id="clip0_10760_33888">
<rect width="200" height="200" fill="white" transform="translate(0 0.5)"/>
</clipPath>
</defs>
</svg>
