<svg width="24" height="25" viewBox="0 0 24 25" fill="none" xmlns="http://www.w3.org/2000/svg">
<path d="M7.45284 3.21266C7.8276 2.26244 9.1724 2.26245 9.54716 3.21267L10.7085 6.15732C10.8229 6.44743 11.0526 6.67707 11.3427 6.79148L14.2873 7.95284C15.2376 8.3276 15.2376 9.6724 14.2873 10.0472L11.3427 11.2085C11.0526 11.3229 10.8229 11.5526 10.7085 11.8427L9.54716 14.7873C9.1724 15.7376 7.8276 15.7376 7.45284 14.7873L6.29148 11.8427C6.17707 11.5526 5.94743 11.3229 5.65732 11.2085L2.71266 10.0472C1.76244 9.6724 1.76245 8.3276 2.71267 7.95284L5.65732 6.79148C5.94743 6.67707 6.17707 6.44743 6.29148 6.15732L7.45284 3.21266Z" fill="#7E9D00"/>
<path d="M16.9245 13.8916C17.1305 13.3695 17.8695 13.3695 18.0755 13.8916L18.9761 16.1753C19.039 16.3348 19.1652 16.461 19.3247 16.5239L21.6084 17.4245C22.1305 17.6305 22.1305 18.3695 21.6084 18.5755L19.3247 19.4761C19.1652 19.539 19.039 19.6652 18.9761 19.8247L18.0755 22.1084C17.8695 22.6305 17.1305 22.6305 16.9245 22.1084L16.0239 19.8247C15.961 19.6652 15.8348 19.539 15.6753 19.4761L13.3916 18.5755C12.8695 18.3695 12.8695 17.6305 13.3916 17.4245L15.6753 16.5239C15.8348 16.461 15.961 16.3348 16.0239 16.1753L16.9245 13.8916Z" fill="#7E9D00"/>
</svg>
