<svg width="16" height="16" viewBox="0 0 16 16" fill="none" xmlns="http://www.w3.org/2000/svg">
<path d="M6.10215 3.60575C6.94658 2.09091 7.3688 1.3335 8.00004 1.3335C8.63128 1.3335 9.0535 2.09091 9.89793 3.60575L10.1164 3.99765C10.3564 4.42812 10.4763 4.64335 10.6634 4.78537C10.8505 4.92738 11.0835 4.9801 11.5494 5.08553L11.9737 5.18152C13.6135 5.55253 14.4334 5.73804 14.6284 6.36532C14.8235 6.99259 14.2645 7.64621 13.1466 8.95345L12.8574 9.29164C12.5398 9.66312 12.3809 9.84886 12.3095 10.0786C12.238 10.3084 12.262 10.5562 12.3101 11.0519L12.3538 11.5031C12.5228 13.2472 12.6073 14.1193 12.0966 14.507C11.5859 14.8947 10.8183 14.5412 9.28293 13.8343L8.88572 13.6514C8.44942 13.4505 8.23128 13.3501 8.00004 13.3501C7.76881 13.3501 7.55066 13.4505 7.11437 13.6514L6.71716 13.8343C5.18182 14.5412 4.41416 14.8947 3.90347 14.507C3.39279 14.1193 3.47729 13.2472 3.64631 11.5031L3.69003 11.0519C3.73806 10.5562 3.76207 10.3084 3.69062 10.0786C3.61916 9.84886 3.46032 9.66312 3.14265 9.29164L2.85344 8.95345C1.73554 7.64621 1.17659 6.99259 1.37165 6.36532C1.56672 5.73804 2.38661 5.55253 4.0264 5.18152L4.45063 5.08553C4.91661 4.9801 5.1496 4.92738 5.33667 4.78537C5.52374 4.64335 5.64372 4.42812 5.88369 3.99765L6.10215 3.60575Z" fill="#7E9D00"/>
</svg>
