<svg width="9" height="14" viewBox="0 0 9 14" fill="none" xmlns="http://www.w3.org/2000/svg">
<path fill-rule="evenodd" clip-rule="evenodd" d="M2.88554 12.3529V13.5H4.79785V12.2453C5.13801 12.1845 5.46115 12.0981 5.76728 11.9859C6.44519 11.731 7.02192 11.3741 7.49747 10.9153C7.98314 10.4463 8.35245 9.89059 8.6054 9.24824C8.86847 8.60588 9 7.88706 9 7.09177V6.78588C9 6.01098 8.86847 5.30745 8.6054 4.67529C8.35245 4.04314 7.98314 3.50275 7.49747 3.05412C7.02192 2.60549 6.44519 2.25882 5.76728 2.01412C5.41595 1.88538 5.04222 1.7905 4.64608 1.72949V0.5H2.73377V1.64706H0V12.3529H2.88554ZM3.55143 10.2729H2.36762V3.72706H3.55143C4.01686 3.72706 4.43676 3.79843 4.81113 3.94118C5.1855 4.08392 5.49916 4.28784 5.75211 4.55294C6.01518 4.80784 6.21248 5.12392 6.34401 5.50118C6.47555 5.87843 6.54132 6.30157 6.54132 6.77059V7.07647C6.54132 7.56588 6.47555 8.00941 6.34401 8.40706C6.21248 8.80471 6.01518 9.14118 5.75211 9.41647C5.49916 9.68157 5.1855 9.89059 4.81113 10.0435C4.44688 10.1965 4.02698 10.2729 3.55143 10.2729Z" fill="#7E9D00"/>
</svg>
