<svg width="120" height="120" viewBox="0 0 120 120" fill="none" xmlns="http://www.w3.org/2000/svg">
<g clip-path="url(#clip0_16548_80153)">
<circle cx="60" cy="60" r="60" fill="url(#paint0_linear_16548_80153)"/>
<path d="M0 119H122" stroke="#2A2B3B" stroke-width="2" stroke-linecap="square" stroke-linejoin="round"/>
<rect x="18" y="21" width="85" height="85" fill="#FAFAFA" stroke="#2A2B3B" stroke-width="2"/>
<rect x="13" y="98.3477" width="12.7059" height="12.6522" rx="2" fill="#FAFAFA" stroke="#2A2B3B" stroke-width="2"/>
<rect x="96.2949" y="98.3477" width="12.7059" height="12.6522" rx="2" fill="#FAFAFA" stroke="#2A2B3B" stroke-width="2"/>
<rect x="13" y="14" width="12.7059" height="12.6522" rx="2" fill="#FAFAFA" stroke="#2A2B3B" stroke-width="2"/>
<path d="M83.286 43.4287H67.8574" stroke="#2A2B3B" stroke-width="2" stroke-linecap="round" stroke-linejoin="round"/>
<path d="M83.286 53.7148H67.8574" stroke="#2A2B3B" stroke-width="2" stroke-linecap="round" stroke-linejoin="round"/>
<path d="M83.286 64H67.8574" stroke="#2A2B3B" stroke-width="2" stroke-linecap="round" stroke-linejoin="round"/>
<path d="M83.2863 84.5713H38.7148" stroke="#2A2B3B" stroke-width="2" stroke-linecap="round" stroke-linejoin="round"/>
<path d="M83.2863 74.2861H38.7148" stroke="#2A2B3B" stroke-width="2" stroke-linecap="round" stroke-linejoin="round"/>
<path d="M57.572 43.4287H40.4291C39.4824 43.4287 38.7148 44.1962 38.7148 45.143V62.2859C38.7148 63.2326 39.4824 64.0001 40.4291 64.0001H57.572C58.5188 64.0001 59.2863 63.2326 59.2863 62.2859V45.143C59.2863 44.1962 58.5188 43.4287 57.572 43.4287Z" stroke="#2A2B3B" stroke-width="2" stroke-linecap="round" stroke-linejoin="round"/>
<g filter="url(#filter0_d_16548_80153)">
<path d="M46.7645 91.5969C46.1132 91.2692 45.3807 91.1383 44.6562 91.2202C43.9321 91.3022 43.2471 91.5933 42.6855 92.0581C41.3537 93.2489 39.6411 93.9257 37.8552 93.9668C36.0691 94.0076 34.3272 93.4103 32.9424 92.2817C31.5575 91.1533 30.6207 89.5678 30.3003 87.8103C29.9799 86.0529 30.2969 84.2388 31.1943 82.6941L34.7026 76.6176C35.3072 75.5772 35.6528 74.4063 35.7101 73.2041C35.7672 72.0023 35.5346 70.8039 35.0316 69.7106C34.5286 68.6174 33.7699 67.6612 32.8199 66.9225C31.8698 66.1837 30.756 65.6845 29.5723 65.4669C25.1769 64.6523 20.6419 65.0617 16.4633 66.65C12.2847 68.2382 8.62295 70.9443 5.87816 74.4728C3.13336 78.0012 1.41112 82.2161 0.899584 86.6571C0.388059 91.0981 1.1069 95.5942 2.97764 99.6543C4.84834 103.714 7.79895 107.182 11.5071 109.679C15.2152 112.176 19.5382 113.605 24.0038 113.811C28.4692 114.017 32.9057 112.992 36.828 110.848C40.7505 108.704 44.0082 105.523 46.245 101.652C47.354 99.7432 48.1906 97.6886 48.7295 95.5477C48.9304 94.763 48.8421 93.9321 48.4814 93.2069C48.1206 92.4816 47.5116 91.9104 46.7645 91.5969Z" fill="#FAFAFA" shape-rendering="crispEdges"/>
<path d="M46.7634 91.5973C46.1121 91.2696 45.3796 91.1387 44.6551 91.2206C43.931 91.3026 43.246 91.5937 42.6844 92.0585C41.3526 93.2493 39.64 93.9261 37.8541 93.9672C36.068 94.008 34.3261 93.4107 32.9413 92.2821C31.5565 91.1537 30.6196 89.5682 30.2992 87.8107C29.9788 86.0533 30.2958 84.2392 31.1933 82.6945L34.7015 76.618C35.3061 75.5776 35.6517 74.4067 35.709 73.2045C35.7661 72.0027 35.5335 70.8043 35.0305 69.711C34.5275 68.6178 33.7688 67.6616 32.8188 66.9229C31.8687 66.1841 30.7549 65.6849 29.5712 65.4673C25.1758 64.6527 20.6409 65.0621 16.4622 66.6504C12.2836 68.2386 8.62186 70.9447 5.87707 74.4732C3.13227 78.0016 1.41003 82.2165 0.898493 86.6575C0.386968 91.0985 1.10581 95.5946 2.97655 99.6547C4.84725 103.715 7.79786 107.183 11.506 109.679C15.2141 112.176 19.5371 113.606 24.0027 113.812C28.4681 114.018 32.9046 112.993 36.8269 110.848C40.7494 108.704 44.0071 105.523 46.2439 101.652C47.3529 99.7436 48.1895 97.689 48.7285 95.5481C48.9293 94.7634 48.841 93.9325 48.4803 93.2073C48.1196 92.482 47.5105 91.9108 46.7634 91.5973Z" fill="#FAFAFA" shape-rendering="crispEdges"/>
<path d="M46.7645 91.5969C46.1132 91.2692 45.3807 91.1383 44.6562 91.2202C43.9321 91.3022 43.2471 91.5933 42.6855 92.0581C41.3537 93.2489 39.6411 93.9257 37.8552 93.9668C36.0691 94.0076 34.3272 93.4103 32.9424 92.2817C31.5575 91.1533 30.6207 89.5678 30.3003 87.8103C29.9799 86.0529 30.2969 84.2388 31.1943 82.6941L34.7026 76.6176C35.3072 75.5772 35.6528 74.4063 35.7101 73.2041C35.7672 72.0023 35.5346 70.8039 35.0316 69.7106C34.5286 68.6174 33.7699 67.6612 32.8199 66.9225C31.8698 66.1837 30.756 65.6845 29.5723 65.4669C25.1769 64.6523 20.6419 65.0617 16.4633 66.65C12.2847 68.2382 8.62295 70.9443 5.87816 74.4728C3.13336 78.0012 1.41112 82.2161 0.899584 86.6571C0.388059 91.0981 1.1069 95.5942 2.97764 99.6543C4.84834 103.714 7.79895 107.182 11.5071 109.679C15.2152 112.176 19.5382 113.605 24.0038 113.811C28.4692 114.017 32.9057 112.992 36.828 110.848C40.7505 108.704 44.0082 105.523 46.245 101.652C47.354 99.7432 48.1906 97.6886 48.7295 95.5477C48.9304 94.763 48.8421 93.9321 48.4814 93.2069C48.1206 92.4816 47.5116 91.9104 46.7645 91.5969Z" stroke="#2A2B3B" stroke-width="1.71429" stroke-linecap="round" stroke-linejoin="round" shape-rendering="crispEdges"/>
<path d="M21.1947 81.2531C22.2308 79.4585 21.6159 77.1636 19.8212 76.1275C18.0266 75.0914 15.7318 75.7063 14.6956 77.5009C13.6595 79.2955 14.2744 81.5904 16.069 82.6265C17.8637 83.6626 20.1585 83.0477 21.1947 81.2531Z" stroke="#2A2B3B" stroke-width="1.71429" stroke-linecap="round" stroke-linejoin="round" shape-rendering="crispEdges"/>
<path d="M29.9378 103.632C30.4558 102.734 30.1484 101.587 29.2511 101.069C28.3538 100.551 27.2063 100.858 26.6883 101.756C26.1702 102.653 26.4776 103.8 27.375 104.318C28.2723 104.836 29.4197 104.529 29.9378 103.632Z" stroke="#2A2B3B" stroke-width="1.71429" stroke-linecap="round" stroke-linejoin="round" shape-rendering="crispEdges"/>
<path d="M18.5645 97.0653C19.6006 95.2706 18.9857 92.9758 17.1911 91.9397C15.3965 90.9035 13.1016 91.5184 12.0655 93.3131C11.0294 95.1077 11.6443 97.4025 13.4389 98.4387C15.2335 99.4748 17.5284 98.8599 18.5645 97.0653Z" stroke="#2A2B3B" stroke-width="1.71429" stroke-linecap="round" stroke-linejoin="round" shape-rendering="crispEdges"/>
<path d="M46.7634 91.5973C46.1121 91.2696 45.3796 91.1387 44.6551 91.2206C43.931 91.3026 43.246 91.5937 42.6844 92.0585C41.3526 93.2493 39.64 93.9261 37.8541 93.9672C36.068 94.008 34.3261 93.4107 32.9413 92.2821C31.5565 91.1537 30.6196 89.5682 30.2992 87.8107C29.9788 86.0533 30.2958 84.2392 31.1933 82.6945L34.7015 76.618C35.3061 75.5776 35.6517 74.4067 35.709 73.2045C35.7661 72.0027 35.5335 70.8043 35.0305 69.711C34.5275 68.6178 33.7688 67.6616 32.8188 66.9229C31.8687 66.1841 30.7549 65.6849 29.5712 65.4673C25.1758 64.6527 20.6409 65.0621 16.4622 66.6504C12.2836 68.2386 8.62186 70.9447 5.87707 74.4732C3.13227 78.0016 1.41003 82.2165 0.898493 86.6575C0.386968 91.0985 1.10581 95.5946 2.97655 99.6547C4.84725 103.715 7.79786 107.183 11.506 109.679C15.2141 112.176 19.5371 113.606 24.0027 113.812C28.4681 114.018 32.9046 112.993 36.8269 110.848C40.7494 108.704 44.0071 105.523 46.2439 101.652C47.3529 99.7436 48.1895 97.689 48.7285 95.5481C48.9293 94.7634 48.841 93.9325 48.4803 93.2073C48.1196 92.482 47.5105 91.9108 46.7634 91.5973Z" stroke="#2A2B3B" stroke-width="1.71429" stroke-linecap="round" stroke-linejoin="round" shape-rendering="crispEdges"/>
</g>
<g filter="url(#filter1_d_16548_80153)">
<path d="M83.4434 24.7776L102.011 4.9158C104.65 2.06997 109.414 1.92908 112.231 4.61365C115.031 7.31565 114.884 11.8853 111.916 14.4165L91.4173 32.0224" fill="#FAFAFA"/>
<path d="M83.4434 24.7776L102.011 4.9158C104.65 2.06997 109.414 1.92908 112.231 4.61365C115.031 7.31565 114.884 11.8853 111.916 14.4165L91.4173 32.0224" stroke="#2A2B3B" stroke-width="1.71429" stroke-linecap="round" stroke-linejoin="round"/>
<path d="M88.4648 41.4762C83.1098 46.6462 74.0098 48.3583 68.7598 43.1883C75.7598 36.2391 68.7598 32.8819 74.0098 27.8462C74.9316 26.8613 76.0532 26.0669 77.3059 25.5118C78.5586 24.9567 79.9162 24.6524 81.2957 24.6176C82.6752 24.5828 84.0476 24.8182 85.329 25.3093C86.6105 25.8005 87.7741 26.5371 88.7486 27.4742C89.7232 28.4113 90.4884 29.5291 90.9973 30.7595C91.5062 31.9898 91.7482 33.3068 91.7086 34.63C91.6689 35.953 91.3483 37.2543 90.7665 38.4548C90.1847 39.6549 89.3539 40.7286 88.3248 41.6105L88.4648 41.4762Z" fill="#FAFAFA" stroke="#2A2B3B" stroke-width="1.71429" stroke-linecap="round" stroke-linejoin="round"/>
</g>
</g>
<defs>
<filter id="filter0_d_16548_80153" x="-0.119141" y="64.2012" width="53.8105" height="54.4932" filterUnits="userSpaceOnUse" color-interpolation-filters="sRGB">
<feFlood flood-opacity="0" result="BackgroundImageFix"/>
<feColorMatrix in="SourceAlpha" type="matrix" values="0 0 0 0 0 0 0 0 0 0 0 0 0 0 0 0 0 0 127 0" result="hardAlpha"/>
<feOffset dx="4" dy="4"/>
<feComposite in2="hardAlpha" operator="out"/>
<feColorMatrix type="matrix" values="0 0 0 0 0.164706 0 0 0 0 0.168627 0 0 0 0 0.231373 0 0 0 1 0"/>
<feBlend mode="normal" in2="BackgroundImageFix" result="effect1_dropShadow_16548_80153"/>
<feBlend mode="normal" in="SourceGraphic" in2="effect1_dropShadow_16548_80153" result="shape"/>
</filter>
<filter id="filter1_d_16548_80153" x="67.9023" y="1.83008" width="51.1953" height="49.3408" filterUnits="userSpaceOnUse" color-interpolation-filters="sRGB">
<feFlood flood-opacity="0" result="BackgroundImageFix"/>
<feColorMatrix in="SourceAlpha" type="matrix" values="0 0 0 0 0 0 0 0 0 0 0 0 0 0 0 0 0 0 127 0" result="hardAlpha"/>
<feOffset dx="4" dy="4"/>
<feComposite in2="hardAlpha" operator="out"/>
<feColorMatrix type="matrix" values="0 0 0 0 0.164706 0 0 0 0 0.168627 0 0 0 0 0.231373 0 0 0 1 0"/>
<feBlend mode="normal" in2="BackgroundImageFix" result="effect1_dropShadow_16548_80153"/>
<feBlend mode="normal" in="SourceGraphic" in2="effect1_dropShadow_16548_80153" result="shape"/>
</filter>
<linearGradient id="paint0_linear_16548_80153" x1="58.3019" y1="0" x2="58.3019" y2="120" gradientUnits="userSpaceOnUse">
<stop stop-color="white"/>
<stop offset="1" stop-color="white" stop-opacity="0"/>
</linearGradient>
<clipPath id="clip0_16548_80153">
<rect width="120" height="120" fill="white"/>
</clipPath>
</defs>
</svg>
