<svg width="21" height="20" viewBox="0 0 21 20" fill="none" xmlns="http://www.w3.org/2000/svg">
<g clip-path="url(#clip0_5732_19918)">
<path d="M20.5 10C20.5 15.5228 16.0228 20 10.5 20C4.97719 20 0.5 15.5228 0.5 10C0.5 10.0023 10.5 0.00113281 10.5 0C16.0228 0 20.5 4.47719 20.5 10Z" fill="#0052B4"/>
<path d="M10.4727 9.9999H10.4994C10.4994 9.99084 10.4994 9.98217 10.4994 9.97314C10.4905 9.98209 10.4816 9.991 10.4727 9.9999Z" fill="#F0F0F0"/>
<path d="M10.5 5.21738C10.5 3.45781 10.5 2.3048 10.5 0H10.4983C4.97625 0.000898438 0.5 4.47766 0.5 9.99996H5.71738V7.06199L8.65535 9.99996H10.4733C10.4822 9.99105 10.4911 9.98215 10.5 9.9732C10.5 9.29949 10.5 8.69836 10.5 8.15539L7.56203 5.21738H10.5Z" fill="#F0F0F0"/>
<path d="M5.55953 1.3042C3.99551 2.19479 2.69527 3.49502 1.80469 5.05904V9.99986H4.4134V3.91295V3.91291H10.5004C10.5004 3.09014 10.5004 2.30631 10.5004 1.3042H5.55953Z" fill="#D80027"/>
<path d="M10.5013 8.77012L6.94848 5.2173H5.71875C5.71875 5.21726 5.71875 5.2173 5.71875 5.2173L10.5013 9.99984H10.5013C10.5013 9.99984 10.5013 9.15199 10.5013 8.77012Z" fill="#D80027"/>
<path d="M6.53059 11.7388L7.07941 12.8863L8.31875 12.5999L7.76375 13.7445L8.76039 14.5349L7.51949 14.8146L7.52297 16.0866L6.53059 15.2908L5.53824 16.0866L5.54172 14.8146L4.30078 14.5349L5.29746 13.7445L4.74238 12.5999L5.9818 12.8863L6.53059 11.7388Z" fill="#F0F0F0"/>
<path d="M15.4723 13.9131L15.7467 14.4869L16.3664 14.3436L16.0889 14.9159L16.5872 15.3111L15.9668 15.451L15.9685 16.087L15.4723 15.6891L14.9761 16.087L14.9779 15.451L14.3574 15.3111L14.8557 14.9159L14.5782 14.3436L15.1979 14.4869L15.4723 13.9131Z" fill="#F0F0F0"/>
<path d="M12.9196 7.82617L13.194 8.4L13.8137 8.25672L13.5362 8.82902L14.0345 9.22422L13.4141 9.36406L13.4157 10.0001L12.9196 9.60215L12.4234 10.0001L12.4251 9.36406L11.8047 9.22422L12.303 8.82902L12.0255 8.25672L12.6452 8.4L12.9196 7.82617Z" fill="#F0F0F0"/>
<path d="M15.4723 4.34766L15.7467 4.92148L16.3664 4.77824L16.0889 5.35055L16.5872 5.7457L15.9668 5.88559L15.9685 6.5216L15.4723 6.12367L14.9761 6.5216L14.9779 5.88559L14.3574 5.7457L14.8557 5.35055L14.5782 4.77824L15.1979 4.92148L15.4723 4.34766Z" fill="#F0F0F0"/>
<path d="M17.7009 6.95654L17.9752 7.53037L18.5949 7.38709L18.3174 7.95939L18.8157 8.35459L18.1953 8.49447L18.197 9.13045L17.7009 8.73256L17.2047 9.13045L17.2064 8.49447L16.5859 8.35459L17.0843 7.95939L16.8068 7.38709L17.4264 7.53037L17.7009 6.95654Z" fill="#F0F0F0"/>
<path d="M16.1077 10L16.3235 10.6643H17.022L16.4569 11.0749L16.6728 11.7391L16.1077 11.3286L15.5426 11.7391L15.7584 11.0749L15.1934 10.6643H15.8918L16.1077 10Z" fill="#F0F0F0"/>
</g>
<defs>
<clipPath id="clip0_5732_19918">
<rect width="20" height="20" fill="white" transform="translate(0.5)"/>
</clipPath>
</defs>
</svg>
