<svg width="21" height="20" viewBox="0 0 21 20" fill="none" xmlns="http://www.w3.org/2000/svg">
<g clip-path="url(#clip0_5442_19245)">
<path d="M10.5 20C16.0228 20 20.5 15.5228 20.5 10C20.5 4.47715 16.0228 0 10.5 0C4.97715 0 0.5 4.47715 0.5 10C0.5 15.5228 4.97715 20 10.5 20Z" fill="#6DA544"/>
<path d="M10.4991 3.91309L18.76 10L10.4991 16.087L2.23828 10L10.4991 3.91309Z" fill="#FFDA44"/>
<path d="M10.4997 13.4785C12.4207 13.4785 13.978 11.9212 13.978 10.0002C13.978 8.07923 12.4207 6.52197 10.4997 6.52197C8.57875 6.52197 7.02148 8.07923 7.02148 10.0002C7.02148 11.9212 8.57875 13.4785 10.4997 13.4785Z" fill="#F0F0F0"/>
<path d="M8.76145 9.78271C8.1566 9.78271 7.57289 9.87471 7.02344 10.0454C7.04777 11.9454 8.5948 13.4784 10.5006 13.4784C11.679 13.4784 12.7198 12.8918 13.349 11.9953C12.2725 10.6477 10.6163 9.78271 8.76145 9.78271Z" fill="#0052B4"/>
<path d="M13.9148 10.6666C13.9566 10.4508 13.9793 10.2282 13.9793 10.0002C13.9793 8.0792 12.422 6.52197 10.501 6.52197C9.06766 6.52197 7.83719 7.3892 7.30469 8.6274C7.77539 8.52986 8.26273 8.4785 8.76191 8.4785C10.7821 8.47846 12.6097 9.31822 13.9148 10.6666Z" fill="#0052B4"/>
</g>
<defs>
<clipPath id="clip0_5442_19245">
<rect width="20" height="20" fill="white" transform="translate(0.5)"/>
</clipPath>
</defs>
</svg>
