<svg width="140" height="140" viewBox="0 0 140 140" fill="none" xmlns="http://www.w3.org/2000/svg">
<g clip-path="url(#clip0_10761_35211)">
<circle cx="70" cy="70" r="70" fill="url(#paint0_linear_10761_35211)"/>
<path d="M17 139H123" stroke="#2A2B3B" stroke-width="2" stroke-linecap="square" stroke-linejoin="round"/>
<path d="M22.168 76.3697C22.168 72.6509 22.168 70.7915 22.9356 69.168C23.7032 67.5444 25.1402 66.3644 28.0142 64.0044L60.2863 37.5042C65.1463 33.5134 67.5763 31.518 70.44 31.518C73.3038 31.518 75.7338 33.5134 80.5938 37.5043L112.866 64.0044C115.74 66.3644 117.177 67.5444 117.945 69.168C118.712 70.7915 118.712 72.6509 118.712 76.3697V122.833C118.712 130.376 118.712 134.147 116.369 136.49C114.026 138.833 110.255 138.833 102.712 138.833H38.168C30.6255 138.833 26.8543 138.833 24.5111 136.49C22.168 134.147 22.168 130.376 22.168 122.833V76.3697Z" fill="#FAFAFA" stroke="#2A2B3B" stroke-width="2"/>
<path d="M22.168 69.4657L63.8961 35.1003C68.0523 31.6776 74.0752 31.7662 78.1288 35.3098L118.712 70.787L80.6575 104.054L74.9891 101.171C72.4918 99.9016 69.6041 99.6326 66.9152 100.419L59.809 102.498L22.168 69.4657Z" fill="#2A2B3B"/>
<mask id="mask0_10761_35211" style="mask-type:alpha" maskUnits="userSpaceOnUse" x="22" y="29" width="97" height="76">
<path d="M59.807 102.498L22.166 69.4657V29.1665H118.71V70.787L80.6556 104.054L74.9872 101.171C72.4899 99.9016 69.6022 99.6326 66.9133 100.419L59.807 102.498Z" fill="#2A2B3B"/>
</mask>
<g mask="url(#mask0_10761_35211)">
<rect x="37.9199" y="39.5156" width="65.0287" height="77.4085" rx="8" fill="#FAFAFA" stroke="#2A2B3B" stroke-width="2"/>
<path d="M46.5332 54.7188H94.3404" stroke="#2A2B3B" stroke-width="2"/>
<path d="M46.5332 64.3921H94.3404" stroke="#2A2B3B" stroke-width="2"/>
<path d="M46.5332 74.0728H94.3404" stroke="#2A2B3B" stroke-width="2"/>
<path d="M46.5332 83.7466H94.3404" stroke="#2A2B3B" stroke-width="2"/>
<path d="M46.5332 93.4272H94.3404" stroke="#2A2B3B" stroke-width="2"/>
<path d="M46.5332 103.101H94.3404" stroke="#2A2B3B" stroke-width="2"/>
</g>
<path d="M60.6811 103.829V103.829C63.6908 101.208 65.1957 99.898 66.8352 99.2648C69.1531 98.3698 71.7211 98.3697 74.0391 99.2645C75.6786 99.8975 77.184 101.208 80.1946 103.829V103.829M60.6811 103.829L23.4883 136.189M60.6811 103.829L23.4883 71.4465M80.1946 103.829L117.387 136.189M80.1946 103.829L117.387 71.4465" stroke="#2A2B3B" stroke-width="2"/>
<path d="M112 48.631C123.598 48.631 133 39.3116 133 27.8155C133 16.3194 123.598 7 112 7C100.402 7 91 16.3194 91 27.8155C91 31.4429 91.9361 34.8535 93.5818 37.8231C94.2693 39.0636 94.6131 39.6839 94.7376 40.1055C94.8697 40.5531 94.9034 40.7901 94.9013 41.2568C94.8993 41.6964 94.7827 42.209 94.5496 43.2341C94.1231 45.1102 93.9098 46.0483 94.1832 46.6581C94.4213 47.1892 94.8788 47.5902 95.4365 47.7566C96.0769 47.9476 96.9823 47.6119 98.7931 46.9405L98.7931 46.9405C99.7863 46.5722 100.283 46.3881 100.721 46.3286C101.177 46.2667 101.414 46.2689 101.869 46.339C102.306 46.4064 102.967 46.6652 104.288 47.1827C106.676 48.1174 109.277 48.631 112 48.631Z" fill="white" stroke="#2A2B3B" stroke-width="2"/>
<circle cx="111.999" cy="27.9998" r="12.8333" fill="#2A2B3B"/>
<path d="M106.166 22.1665L117.833 33.8332M117.833 22.1665L106.166 33.8332" stroke="#FAFAFA" stroke-width="2"/>
</g>
<defs>
<linearGradient id="paint0_linear_10761_35211" x1="70" y1="0" x2="70" y2="140" gradientUnits="userSpaceOnUse">
<stop stop-color="white"/>
<stop offset="1" stop-color="white" stop-opacity="0"/>
</linearGradient>
<clipPath id="clip0_10761_35211">
<rect width="140" height="140" fill="white"/>
</clipPath>
</defs>
</svg>
