<svg width="16" height="16" viewBox="0 0 16 16" fill="none" xmlns="http://www.w3.org/2000/svg">
<path d="M14.5529 5.45495C14.4531 5.52695 12.6922 6.45024 12.6922 8.50325C12.6922 10.8779 14.9329 11.718 15 11.7388C14.9897 11.79 14.644 12.8893 13.8186 14.0094C13.0825 14.9951 12.3138 15.9792 11.1445 15.9792C9.97507 15.9792 9.67412 15.3471 8.32416 15.3471C7.0086 15.3471 6.54084 16 5.4712 16C4.40155 16 3.6552 15.0879 2.79708 13.9678C1.8031 12.6525 1 10.6091 1 8.66967C1 5.55896 3.17369 3.90919 5.31298 3.90919C6.4497 3.90919 7.39725 4.60366 8.11092 4.60366C8.7902 4.60366 9.84953 3.86759 11.1427 3.86759C11.6328 3.86759 13.3938 3.90919 14.5529 5.45495ZM10.5288 2.55065C11.0636 1.9602 11.442 1.14091 11.442 0.321632C11.442 0.208021 11.4316 0.0928093 11.4093 0C10.5391 0.030403 9.50387 0.539254 8.87962 1.21292C8.38951 1.73137 7.93207 2.55065 7.93207 3.38114C7.93207 3.50595 7.95443 3.63076 7.96475 3.67077C8.01978 3.68037 8.1092 3.69157 8.19862 3.69157C8.97936 3.69157 9.96131 3.20512 10.5288 2.55065Z" fill="#AAAAB1"/>
</svg>
