<svg width="16" height="16" viewBox="0 0 16 16" fill="none" xmlns="http://www.w3.org/2000/svg">
<g clip-path="url(#clip0_5316_17639)">
<path fill-rule="evenodd" clip-rule="evenodd" d="M8 16C12.4183 16 16 12.4183 16 8C16 3.58172 12.4183 0 8 0C3.58172 0 0 3.58172 0 8C0 12.4183 3.58172 16 8 16ZM6.47324 10.6354C6.47324 10.565 6.50184 10.4947 6.52329 10.4499L9.31859 5.22388C9.39723 5.07676 9.52592 5 9.6975 5C9.92627 5 10.1193 5.17271 10.1193 5.36461C10.1193 5.43497 10.0907 5.50533 10.0693 5.55011L7.27395 10.7761C7.19531 10.9232 7.06662 11 6.89504 11C6.66627 11 6.47324 10.8273 6.47324 10.6354ZM2 9.6951V6.1322C2 5.85714 2.24307 5.63966 2.55048 5.63966H2.66487C2.92939 5.63966 3.08667 5.7548 3.2368 5.92751L5.36009 8.42217V6.11301C5.36009 5.84435 5.60316 5.62687 5.90342 5.62687C6.20368 5.62687 6.44675 5.84435 6.44675 6.11301V9.67591C6.44675 9.95096 6.20368 10.1684 5.89627 10.1684H5.86052C5.59601 10.1684 5.43873 10.0533 5.28859 9.8806L3.08667 7.29638V9.6951C3.08667 9.96375 2.8436 10.1812 2.54333 10.1812C2.24307 10.1812 2 9.96375 2 9.6951ZM9.11 9.50959C9.07426 9.57996 9.04566 9.65032 9.04566 9.72068C9.04566 9.97655 9.26728 10.1812 9.55325 10.1812C9.78202 10.1812 9.9679 10.0661 10.0608 9.8742L10.4111 9.13859H12.6131L12.9491 9.84222C13.0492 10.0469 13.2207 10.1812 13.4781 10.1812C13.7712 10.1812 14 9.97015 14 9.70789C14 9.64392 13.9786 9.57996 13.9428 9.50959L12.1984 5.98507C12.0769 5.742 11.8624 5.59488 11.5622 5.59488H11.4978C11.1975 5.59488 10.9759 5.742 10.8544 5.98507L9.11 9.50959ZM12.2056 8.26866H10.8186L11.5121 6.79104L12.2056 8.26866Z" fill="#AAAAB1"/>
</g>
<defs>
<clipPath id="clip0_5316_17639">
<rect width="16" height="16" fill="white"/>
</clipPath>
</defs>
</svg>
