<svg width="17" height="16" viewBox="0 0 17 16" fill="none" xmlns="http://www.w3.org/2000/svg">
<path fill-rule="evenodd" clip-rule="evenodd" d="M9.63614 12.7156V16L0.5 14.3997V1.59957L9.63614 0V3.51953H15.8517C16.2108 3.51953 16.5001 3.82342 16.5001 4.20166L16.4953 12.1713C16.5001 12.507 16.2039 12.7156 15.8545 12.7156H9.63614ZM9.63614 12.1439H15.9789L15.9765 5.09656L11.6451 8.75878C11.6182 8.78317 11.5863 8.80063 11.5519 8.80978C11.528 8.81611 11.5034 8.81834 11.479 8.81644C11.4546 8.81834 11.43 8.81611 11.4061 8.80978C11.3717 8.80063 11.3398 8.78317 11.3129 8.75878L9.63614 7.34108V12.1439ZM11.479 8.26305L15.9763 4.45866L15.9762 4.08472H9.63614V6.70412L11.479 8.26305ZM2.73071 8.08772C2.73071 5.85733 4.03338 5.14844 4.83453 5.14844C6.29555 5.14844 6.85707 6.59013 6.85707 8.02153C6.85707 9.34373 6.28638 10.9173 4.81369 10.9499C4.01861 10.9675 2.73071 10.2709 2.73071 8.08772ZM5.78264 8.00075C5.78264 6.95129 5.39264 6.26403 4.75127 6.26403C3.9724 6.26403 3.68788 7.331 3.68788 8.01735C3.67743 8.69269 3.88675 9.81079 4.76109 9.81079C5.45572 9.81079 5.78264 8.92894 5.78264 8.00075Z" fill="#AAAAB1"/>
</svg>
