<svg width="16" height="16" viewBox="0 0 16 16" fill="none" xmlns="http://www.w3.org/2000/svg">
<g clip-path="url(#clip0_5316_17620)">
<path fill-rule="evenodd" clip-rule="evenodd" d="M2.5063 3.28457C5.86933 -0.632572 12.1118 0.138656 14.4424 4.7181H8.84029C7.82964 4.7181 7.1762 4.69631 6.47049 5.06668C5.63845 5.5024 5.0155 6.31285 4.79333 7.26708L2.5063 3.28457ZM5.59053 8.00345C5.59053 9.3324 6.66652 10.4086 7.99518 10.413C9.32384 10.413 10.3998 9.3324 10.3998 8.00345C10.3998 6.6745 9.32384 5.59826 7.99518 5.5939C6.66652 5.59826 5.59053 6.6745 5.59053 8.00345ZM8.92742 11.1537C7.57698 11.5546 5.99566 11.1102 5.13312 9.61562C4.47097 8.47403 2.72847 5.43269 1.93563 4.05144C-0.843661 8.31281 1.55228 14.1166 6.59682 15.1057L8.92742 11.1537ZM10.2299 5.5939C11.3539 6.63964 11.5978 8.3346 10.8398 9.64612C10.2648 10.6352 8.43516 13.7288 7.54649 15.2234C12.7435 15.5458 16.5334 10.4479 14.8214 5.58955L10.2299 5.5939Z" fill="#AAAAB1"/>
</g>
<defs>
<clipPath id="clip0_5316_17620">
<rect width="16" height="16" fill="white"/>
</clipPath>
</defs>
</svg>
