<svg width="20" height="20" viewBox="0 0 20 20" fill="none" xmlns="http://www.w3.org/2000/svg">
<g clip-path="url(#clip0_5339_17249)">
<path d="M0 10.0001C0 14.2997 2.71375 17.9651 6.52168 19.378L7.39129 10L6.52168 0.62207C2.71375 2.03504 0 5.70043 0 10.0001Z" fill="#6DA544"/>
<path d="M19.9998 10C19.9998 4.47719 15.5226 0 9.9998 0C8.7766 0 7.60484 0.220039 6.52148 0.621992V19.378C7.60484 19.78 8.7766 20 9.9998 20C15.5226 20 19.9998 15.5228 19.9998 10Z" fill="#D80027"/>
<path d="M6.52121 13.4785C8.44219 13.4785 9.99945 11.9212 9.99945 10.0002C9.99945 8.07923 8.44219 6.52197 6.52121 6.52197C4.60023 6.52197 3.04297 8.07923 3.04297 10.0002C3.04297 11.9212 4.60023 13.4785 6.52121 13.4785Z" fill="#FFDA44"/>
<path d="M4.56445 8.26074V10.4346C4.56445 11.5152 5.44039 12.3912 6.52098 12.3912C7.60156 12.3912 8.4775 11.5152 8.4775 10.4346V8.26074H4.56445Z" fill="#D80027"/>
<path d="M6.52133 11.0871C6.16172 11.0871 5.86914 10.7946 5.86914 10.435V9.56543H7.17348V10.435C7.17348 10.7946 6.8809 11.0871 6.52133 11.0871Z" fill="#F0F0F0"/>
</g>
<defs>
<clipPath id="clip0_5339_17249">
<rect width="20" height="20" fill="white"/>
</clipPath>
</defs>
</svg>
