<svg width="20" height="20" viewBox="0 0 20 20" fill="none" xmlns="http://www.w3.org/2000/svg">
<g clip-path="url(#clip0_5339_17310)">
<path d="M0 10.0002C0 11.2234 0.220039 12.3951 0.621992 13.4784L10 14.348L19.378 13.4784C19.78 12.3951 20 11.2234 20 10.0002C20 8.77695 19.78 7.60523 19.378 6.52191L10 5.65234L0.621992 6.52191C0.220039 7.60523 0 8.77695 0 10.0002H0Z" fill="#FFDA44"/>
<path d="M19.3771 6.52176C17.9642 2.71379 14.2987 0 9.9991 0C5.69945 0 2.03402 2.71379 0.621094 6.52176H19.3771Z" fill="#D80027"/>
<path d="M0.621094 13.478C2.03402 17.286 5.69945 19.9998 9.9991 19.9998C14.2987 19.9998 17.9642 17.286 19.3771 13.478H0.621094Z" fill="#D80027"/>
</g>
<defs>
<clipPath id="clip0_5339_17310">
<rect width="20" height="20" fill="white"/>
</clipPath>
</defs>
</svg>
