<svg width="17" height="16" viewBox="0 0 17 16" fill="none" xmlns="http://www.w3.org/2000/svg">
<path fill-rule="evenodd" clip-rule="evenodd" d="M12.8284 0H4.17158C2.13752 0 0.5 1.63752 0.5 3.67157V12.3284C0.5 14.3625 2.13752 16 4.17158 16H12.8284C14.8625 16 16.5 14.3625 16.5 12.3284V3.67157C16.5 1.63752 14.8625 0 12.8284 0ZM3.76665 4.59477C3.84182 4.56487 3.92124 4.55033 4.00554 4.55033H13.2C13.3119 4.55033 13.4166 4.5769 13.5111 4.62811L10.5111 7.71699L8.99998 9.27811C8.97664 9.29617 8.95892 9.31265 8.94292 9.32752C8.91792 9.35077 8.89715 9.37009 8.86573 9.38538C8.79696 9.41883 8.71884 9.44073 8.64241 9.43799C8.57159 9.43546 8.50288 9.40626 8.43948 9.37457C8.40699 9.35833 8.3685 9.32738 8.33983 9.30433C8.32508 9.29247 8.31293 9.2827 8.30554 9.27811L6.99998 7.93922L6.91109 7.84477L6.82221 7.75588L6.79443 7.72255L5.27221 6.14477L3.76665 4.59477ZM3.28332 5.37811C3.28332 5.12005 3.38387 4.89135 3.54443 4.73922L3.55554 4.75033L5.08332 6.32811L6.61109 7.90033L6.63887 7.93366L5.24443 9.28366L3.67221 10.8114L3.46109 11.0114C3.35043 10.8658 3.28332 10.6759 3.28332 10.467V5.37811ZM13.7111 4.78922C13.8425 4.93936 13.9222 5.14801 13.9222 5.37811V10.467C13.9222 10.6472 13.8735 10.8145 13.7889 10.9503L13.6944 10.8614L12.1222 9.33366L10.6722 7.92811L10.7 7.90033L13.7111 4.78922ZM5.42776 9.467L6.81665 8.11699L8.13887 9.47255C8.14556 9.47815 8.15186 9.48346 8.15786 9.48851C8.21003 9.53242 8.23883 9.55666 8.28838 9.58104C8.39845 9.63518 8.51872 9.68318 8.64138 9.68506C8.7637 9.68693 8.8854 9.6435 8.99644 9.59215C9.03864 9.57263 9.07269 9.54562 9.10894 9.51687C9.13196 9.4986 9.15587 9.47964 9.18332 9.46144L10.4889 8.11699L11.9389 9.51699L13.5167 11.0448L13.6166 11.1448C13.4983 11.2401 13.3564 11.3003 13.2 11.3003H4.00554C3.87541 11.3003 3.75542 11.2571 3.64998 11.1892L3.84998 10.9948L5.42776 9.467Z" fill="#AAAAB1"/>
</svg>
