<svg width="24" height="24" viewBox="0 0 24 24" fill="none" xmlns="http://www.w3.org/2000/svg">
<path d="M16.6673 8.9987C16.6673 8.37562 16.6673 8.06408 16.5333 7.83203C16.4456 7.68001 16.3193 7.55377 16.1673 7.46601C15.9353 7.33203 15.6237 7.33203 15.0007 7.33203L12.5007 7.33203L12.5007 5.33203C12.5007 5.05589 12.2768 4.83203 12.0007 4.83203C11.7245 4.83203 11.5007 5.05589 11.5007 5.33203L11.5007 7.33203L9.00065 7.33203C8.37757 7.33203 8.06603 7.33203 7.83398 7.46601C7.68196 7.55377 7.55573 7.68001 7.46796 7.83203C7.33398 8.06408 7.33398 8.37562 7.33398 8.9987C7.33398 9.62177 7.33398 9.93331 7.46796 10.1654C7.55573 10.3174 7.68196 10.4436 7.83398 10.5314C8.06603 10.6654 8.37757 10.6654 9.00065 10.6654H11.5007L11.5006 13.332H10.334C9.71091 13.332 9.39937 13.332 9.16732 13.466C9.0153 13.5538 8.88906 13.68 8.80129 13.832C8.66732 14.0641 8.66732 14.3756 8.66732 14.9987C8.66732 15.6218 8.66732 15.9333 8.80129 16.1654C8.88906 16.3174 9.0153 16.4436 9.16732 16.5314C9.39937 16.6654 9.71091 16.6654 10.334 16.6654H11.5006L11.5006 18.6654C11.5006 18.9415 11.7245 19.1654 12.0006 19.1654C12.2768 19.1654 12.5006 18.9415 12.5006 18.6654L12.5006 16.6654H13.6673C14.2904 16.6654 14.6019 16.6654 14.834 16.5314C14.986 16.4436 15.1122 16.3174 15.2 16.1654C15.334 15.9333 15.334 15.6218 15.334 14.9987C15.334 14.3756 15.334 14.0641 15.2 13.832C15.1122 13.68 14.986 13.5538 14.834 13.466C14.6019 13.332 14.2904 13.332 13.6673 13.332H12.5006L12.5007 10.6654H15.0007C15.6237 10.6654 15.9353 10.6654 16.1673 10.5314C16.3193 10.4436 16.4456 10.3174 16.5333 10.1654C16.6673 9.93331 16.6673 9.62178 16.6673 8.9987Z" fill="#2A2B3B"/>
</svg>
