<svg width="24" height="24" viewBox="0 0 24 24" fill="none" xmlns="http://www.w3.org/2000/svg">
<path fill-rule="evenodd" clip-rule="evenodd" d="M6.25 5.08203C6.52614 5.08203 6.75 5.30589 6.75 5.58203L6.75 18.9154C6.75 19.1915 6.52614 19.4154 6.25 19.4154C5.97386 19.4154 5.75 19.1915 5.75 18.9154L5.75 5.58203C5.75 5.30589 5.97386 5.08203 6.25 5.08203Z" fill="#2A2B3B"/>
<path d="M8.91667 9.2487C8.91667 8.62562 8.91667 8.31408 9.05064 8.08203C9.13841 7.93001 9.26465 7.80377 9.41667 7.71601C9.64872 7.58203 9.96026 7.58203 10.5833 7.58203H16.5833C17.2064 7.58203 17.5179 7.58203 17.75 7.71601C17.902 7.80377 18.0283 7.93001 18.116 8.08203C18.25 8.31408 18.25 8.62562 18.25 9.2487C18.25 9.87178 18.25 10.1833 18.116 10.4154C18.0283 10.5674 17.902 10.6936 17.75 10.7814C17.5179 10.9154 17.2064 10.9154 16.5833 10.9154L10.5833 10.9154C9.96026 10.9154 9.64872 10.9154 9.41667 10.7814C9.26465 10.6936 9.13841 10.5674 9.05064 10.4154C8.91667 10.1833 8.91667 9.87178 8.91667 9.2487Z" fill="#2A2B3B"/>
<path d="M8.91667 15.2487C8.91667 14.6256 8.91667 14.3141 9.05064 14.082C9.13841 13.93 9.26465 13.8038 9.41667 13.716C9.64872 13.582 9.96026 13.582 10.5833 13.582L14.5833 13.582C15.2064 13.582 15.5179 13.582 15.75 13.716C15.902 13.8038 16.0283 13.93 16.116 14.082C16.25 14.3141 16.25 14.6256 16.25 15.2487C16.25 15.8718 16.25 16.1833 16.116 16.4154C16.0283 16.5674 15.902 16.6936 15.75 16.7814C15.5179 16.9154 15.2064 16.9154 14.5833 16.9154H10.5833C9.96026 16.9154 9.64872 16.9154 9.41667 16.7814C9.26465 16.6936 9.13841 16.5674 9.05064 16.4154C8.91667 16.1833 8.91667 15.8718 8.91667 15.2487Z" fill="#2A2B3B"/>
</svg>
