<svg width="200" height="200" viewBox="0 0 200 200" fill="none" xmlns="http://www.w3.org/2000/svg">
<g clip-path="url(#clip0_10760_33786)">
<circle cx="100" cy="100" r="100" fill="url(#paint0_linear_10760_33786)"/>
<path d="M161.48 187.179C161.48 190.137 160.3 192.975 158.201 195.066C156.101 197.158 153.253 198.333 150.284 198.333H49.5273C46.5581 198.333 43.7106 197.158 41.611 195.066C39.5116 192.975 38.332 190.137 38.332 187.179V64.4872C38.332 61.5289 39.5116 58.692 41.611 56.6002C43.7106 54.5084 46.5581 53.3333 49.5273 53.3333H118.578C120.959 53.3333 123.243 54.277 124.93 55.9576L158.832 89.7337C160.527 91.4225 161.48 93.7167 161.48 96.1095V187.179Z" fill="#FAFAFA" stroke="#2A2B3B" stroke-width="3" stroke-linecap="round" stroke-linejoin="round"/>
<path d="M50.4219 124.105H147.915M50.4219 136.153H120.708M50.4219 148.2H135.823M50.4219 160.248H110.127M50.4219 112.058H98.0348" stroke="#2A2B3B" stroke-width="3" stroke-linecap="square" stroke-linejoin="round"/>
<circle cx="152.789" cy="169.455" r="29.6213" fill="#FAFAFA" stroke="#2A2B3B" stroke-width="3"/>
<circle cx="151.993" cy="160.653" r="6.38385" stroke="#2A2B3B" stroke-width="3"/>
<ellipse cx="151.984" cy="180.843" rx="11.1717" ry="6.38385" stroke="#2A2B3B" stroke-width="3"/>
<path d="M74.9974 133.333V99.1667C83.2817 99.1667 89.9974 105.882 89.9974 114.167V133.611C89.9974 140.369 89.9974 143.748 88.4313 146.206C87.6467 147.438 86.6019 148.483 85.3704 149.267C82.9121 150.833 79.5331 150.833 72.7752 150.833H39.1641V143.333H64.9974C69.7114 143.333 72.0685 143.333 73.5329 141.869C74.9974 140.404 74.9974 138.047 74.9974 133.333Z" fill="#2A2B3B"/>
<path d="M8.33203 116.667C8.33203 104.096 8.33203 97.8105 12.7254 93.9052C17.1188 90 24.1899 90 38.332 90H53.332C67.4742 90 74.5452 90 78.9386 93.9052C83.332 97.8105 83.332 104.096 83.332 116.667C83.332 129.237 83.332 135.523 78.9386 139.428C74.5452 143.333 67.4742 143.333 53.332 143.333H38.332C24.1899 143.333 17.1188 143.333 12.7254 139.428C8.33203 135.523 8.33203 129.237 8.33203 116.667Z" fill="#FAFAFA" stroke="#2A2B3B" stroke-width="3"/>
<path d="M38.2827 106.652C38.2827 110.326 35.3045 113.304 31.6308 113.304C27.957 113.304 24.9789 110.326 24.9789 106.652C24.9789 102.978 27.957 100 31.6308 100C35.3045 100 38.2827 102.978 38.2827 106.652Z" stroke="#2A2B3B" stroke-width="3"/>
<path d="M44.928 126.605C44.928 130.278 44.928 133.257 31.6242 133.257C18.3203 133.257 18.3203 130.278 18.3203 126.605C18.3203 122.931 24.2767 119.953 31.6242 119.953C38.9717 119.953 44.928 122.931 44.928 126.605Z" stroke="#2A2B3B" stroke-width="3"/>
<path d="M55 116.641H68.3039" stroke="#2A2B3B" stroke-width="3" stroke-linecap="square"/>
<path d="M55 106.667H71.6298" stroke="#2A2B3B" stroke-width="3" stroke-linecap="square"/>
<path d="M55.0039 126.615H64.9818" stroke="#2A2B3B" stroke-width="3" stroke-linecap="square"/>
<path d="M0 198.333H200" stroke="#2A2B3B" stroke-width="3" stroke-linecap="square" stroke-linejoin="round"/>
<rect width="68.4136" height="11.2681" rx="2" transform="matrix(-0.632511 -0.774551 -0.774551 0.632511 197.391 137.873)" fill="white" stroke="#2A2B3B" stroke-width="3"/>
<path fill-rule="evenodd" clip-rule="evenodd" d="M159.305 109.046C162.579 106.925 165.608 104.458 168.34 101.697L164.503 97.0078L155.739 103.894L159.305 109.046Z" fill="#2A2B3B"/>
<circle cx="130.284" cy="63.6157" r="47.1157" fill="white" stroke="#2A2B3B" stroke-width="3"/>
<circle cx="130.284" cy="63.6157" r="48.6157" fill="white" stroke="#2A2B3B" stroke-width="3"/>
<mask id="mask0_10760_33786" style="mask-type:alpha" maskUnits="userSpaceOnUse" x="90" y="22" width="81" height="82">
<ellipse cx="130.068" cy="63.2013" rx="40.0642" ry="40.6903" fill="#2A2B3B"/>
</mask>
<g mask="url(#mask0_10760_33786)">
<path d="M172.671 148.685C172.671 153.113 170.905 157.361 167.763 160.491C164.621 163.622 160.358 165.382 155.913 165.382H5.09016C0.64557 165.382 -3.61686 163.622 -6.75968 160.491C-9.90233 157.361 -11.668 153.113 -11.668 148.685V-34.9725C-11.668 -39.4006 -9.90233 -43.6473 -6.75968 -46.7784C-3.61686 -49.9096 0.64557 -51.6686 5.09016 -51.6686H110.3C112.681 -51.6686 114.965 -50.725 116.652 -49.0444L170.024 4.12993C171.719 5.81871 172.671 8.11294 172.671 10.5057V148.685Z" fill="#FAFAFA" stroke="#2A2B3B" stroke-width="3" stroke-linecap="round" stroke-linejoin="round"/>
<path d="M6.42969 54.269H152.367M6.42969 72.3029H111.64M6.42969 90.3367H134.266M6.42969 108.371H95.8022M6.42969 36.2352H77.7015" stroke="#2A2B3B" stroke-width="3" stroke-linecap="square" stroke-linejoin="round"/>
</g>
<circle cx="130.496" cy="63.4517" r="39.8163" stroke="#2A2B3B" stroke-width="3"/>
</g>
<defs>
<linearGradient id="paint0_linear_10760_33786" x1="100" y1="0" x2="100" y2="200" gradientUnits="userSpaceOnUse">
<stop stop-color="white"/>
<stop offset="1" stop-color="white" stop-opacity="0"/>
</linearGradient>
<clipPath id="clip0_10760_33786">
<rect width="200" height="200" fill="white"/>
</clipPath>
</defs>
</svg>
