<svg width="25" height="24" viewBox="0 0 25 24" fill="none" xmlns="http://www.w3.org/2000/svg">
<path d="M4.17802 7.92226C3.05199 6.79623 3.05199 4.97056 4.17802 3.84453C5.30406 2.71849 7.12972 2.71849 8.25576 3.84453L20.489 16.0777C21.615 17.2038 21.615 19.0294 20.489 20.1555C19.3629 21.2815 17.5373 21.2815 16.4112 20.1555L4.17802 7.92226Z" stroke="#6A6B76" stroke-width="1.5"/>
<path d="M6.3335 10L10.3335 6" stroke="#6A6B76" stroke-width="1.5" stroke-linecap="round"/>
<path d="M16.4335 2.30719C16.5945 1.8976 17.172 1.8976 17.3329 2.30719L17.7633 3.40247C17.8125 3.52752 17.9111 3.62651 18.0357 3.67583L19.1269 4.1078C19.535 4.26934 19.535 4.849 19.1269 5.01054L18.0357 5.44252C17.9111 5.49184 17.8125 5.59082 17.7633 5.71587L17.3329 6.81115C17.172 7.22074 16.5945 7.22074 16.4335 6.81116L16.0031 5.71587C15.954 5.59082 15.8554 5.49184 15.7308 5.44252L14.6396 5.01054C14.2315 4.849 14.2315 4.26934 14.6396 4.1078L15.7308 3.67583C15.8554 3.62651 15.954 3.52752 16.0031 3.40247L16.4335 2.30719Z" stroke="#2A2B3B"/>
<path d="M20.3007 9.12945C20.4616 8.71987 21.0391 8.71987 21.2001 9.12945L21.357 9.5288C21.4061 9.65385 21.5048 9.75284 21.6294 9.80215L22.0272 9.95965C22.4353 10.1212 22.4353 10.7009 22.0272 10.8624L21.6294 11.0199C21.5048 11.0692 21.4061 11.1682 21.357 11.2932L21.2001 11.6926C21.0391 12.1022 20.4616 12.1022 20.3007 11.6926L20.1438 11.2932C20.0946 11.1682 19.996 11.0692 19.8714 11.0199L19.4735 10.8624C19.0655 10.7009 19.0655 10.1212 19.4735 9.95965L19.8714 9.80215C19.996 9.75284 20.0946 9.65385 20.1438 9.5288L20.3007 9.12945Z" stroke="#2A2B3B"/>
<path d="M5.46669 15.3072C5.62764 14.8976 6.20517 14.8976 6.36611 15.3072L6.52303 15.7065C6.57216 15.8316 6.67079 15.9306 6.79537 15.9799L7.19325 16.1374C7.60132 16.2989 7.60132 16.8786 7.19325 17.0401L6.79537 17.1976C6.67079 17.2469 6.57216 17.3459 6.52303 17.471L6.36611 17.8703C6.20517 18.2799 5.62764 18.2799 5.46669 17.8703L5.30977 17.471C5.26064 17.3459 5.16202 17.2469 5.03743 17.1976L4.63955 17.0401C4.23148 16.8786 4.23148 16.2989 4.63955 16.1374L5.03743 15.9799C5.16202 15.9306 5.26064 15.8316 5.30977 15.7065L5.46669 15.3072Z" stroke="#2A2B3B"/>
</svg>
