<svg width="24" height="24" viewBox="0 0 24 24" fill="none" xmlns="http://www.w3.org/2000/svg">
<path d="M10.6976 13.332C9.69363 12.3242 9.78406 10.5993 10.8996 9.47942L14.1314 6.23511C15.2469 5.11525 16.9651 5.02447 17.9691 6.03234C18.973 7.04022 18.8826 8.76507 17.7671 9.88493L16.1512 11.5071" stroke="#2A2B3B" stroke-width="1.5" stroke-linecap="round"/>
<path d="M13.303 10.668C14.307 11.6758 14.2166 13.4007 13.1011 14.5206L11.4852 16.1427L9.86931 17.7649C8.75378 18.8848 7.03557 18.9755 6.03159 17.9677C5.02761 16.9598 5.11804 15.2349 6.23358 14.115L7.84947 12.4929" stroke="#2A2B3B" stroke-width="1.5" stroke-linecap="round"/>
<path d="M4 8.66797L8 10.0013" stroke="#2A2B3B" stroke-width="1.5" stroke-linecap="round"/>
<path d="M20.002 15.332L16.002 13.9987" stroke="#2A2B3B" stroke-width="1.5" stroke-linecap="round"/>
<path d="M6.66797 6L8.0013 8" stroke="#2A2B3B" stroke-width="1.5" stroke-linecap="round"/>
<path d="M17.334 17.9961L16.0007 15.9961" stroke="#2A2B3B" stroke-width="1.5" stroke-linecap="round"/>
</svg>
