<svg width="70" height="61" viewBox="0 0 70 61" fill="none" xmlns="http://www.w3.org/2000/svg">
<path d="M36.6384 14.9519L36.7306 14.9794L36.7346 14.9748C37.1723 15.0541 37.6065 14.7921 37.7351 14.358C38.9067 10.4213 42.5978 7.6711 46.7102 7.6711C47.1971 7.6711 47.5919 7.27621 47.5919 6.78936C47.5919 6.30248 47.197 5.90762 46.7102 5.90762C41.656 5.90762 37.4089 9.2727 36.0451 13.8554C35.906 14.3222 36.1719 14.8128 36.6384 14.9519Z" fill="#7E9D00" stroke="#FAFAFA" stroke-width="0.3"/>
<path d="M56.9531 42.6445H52.5628C52.1588 42.6445 51.8311 42.3168 51.8311 41.9127C51.8311 41.5087 52.1588 41.181 52.5628 41.181H56.9531C63.005 41.181 67.9291 36.2569 67.9291 30.205C67.9291 24.1532 63.005 19.2291 56.9531 19.2291H56.8475C56.6354 19.2291 56.4336 19.1371 56.2946 18.9767C56.1555 18.8162 56.0928 18.6035 56.1231 18.3934C56.1885 17.9376 56.2214 17.4797 56.2214 17.0339C56.2214 11.789 51.9538 7.52137 46.7089 7.52137C44.6684 7.52137 42.7225 8.15902 41.0812 9.36583C40.7206 9.63083 40.2084 9.51323 39.9999 9.11652C35.3518 0.265754 23.2117 -0.922814 16.9176 6.77658C14.2662 10.0202 13.2244 14.2397 14.0592 18.3521C14.1512 18.8063 13.8036 19.2297 13.3421 19.2297H13.0489C6.99697 19.2297 2.07291 24.1537 2.07291 30.2056C2.07291 36.2575 6.99697 41.1816 13.0489 41.1816H17.4392C17.8432 41.1816 18.1709 41.5093 18.1709 41.9133C18.1709 42.3173 17.8432 42.645 17.4392 42.645H13.0489C6.18988 42.645 0.609375 37.0645 0.609375 30.2056C0.609375 23.539 5.88093 18.0802 12.4744 17.7792C11.8551 13.5126 13.0395 9.209 15.7844 5.85043C22.5231 -2.39354 35.4374 -1.4695 40.8965 7.72313C42.6381 6.63127 44.6309 6.05849 46.7086 6.05849C53.0632 6.05849 58.0985 11.4671 57.6579 17.786C64.1907 18.1524 69.3923 23.5823 69.3923 30.205C69.3923 37.0645 63.8118 42.6445 56.9528 42.6445L56.9531 42.6445Z" fill="#7E9D00"/>
<path d="M16.4594 41.4995C16.4594 51.6695 24.733 59.943 34.9029 59.943C45.0728 59.943 53.3463 51.6693 53.3463 41.4995C53.3463 31.3296 45.0728 23.0561 34.9029 23.0561C24.7329 23.0561 16.4594 31.3297 16.4594 41.4995ZM18.2232 41.4995C18.2232 32.3026 25.7058 24.8199 34.9029 24.8199C44.0998 24.8199 51.5825 32.3025 51.5825 41.4995C51.5825 50.6964 44.0998 58.1792 34.9029 58.1792C25.706 58.1792 18.2232 50.6966 18.2232 41.4995Z" fill="#7E9D00" stroke="#FAFAFA" stroke-width="0.3"/>
<path d="M34.5512 48.8637C34.5512 49.2423 34.8583 49.5494 35.2369 49.5494C35.6154 49.5494 35.9226 49.2428 35.9226 48.8637V34.9351C35.9226 34.5565 35.6155 34.2494 35.2369 34.2494C34.8582 34.2494 34.5512 34.5565 34.5512 34.9351V48.8637Z" fill="#7E9D00" stroke="#7E9D00" stroke-width="0.3"/>
<path d="M35.2375 35.9059L31.4368 39.7066L35.2375 35.9059ZM35.2375 35.9059L39.0383 39.7067C39.172 39.8404 39.348 39.9075 39.5231 39.9075L35.2375 35.9059ZM30.4669 39.7067C30.7347 39.9745 31.1691 39.9747 31.4367 39.7067L39.5231 39.9075C39.698 39.9075 39.8741 39.841 40.008 39.7067C40.2759 39.4388 40.2759 39.0048 40.008 38.7369L35.7223 34.4513C35.4545 34.1835 35.0202 34.1833 34.7526 34.4513C34.7525 34.4513 34.7525 34.4514 34.7525 34.4514L30.4669 38.7369C30.199 39.0048 30.199 39.4388 30.4669 39.7067Z" fill="#7E9D00" stroke="#7E9D00" stroke-width="0.3"/>
</svg>
