<svg width="40" height="40" viewBox="0 0 40 40" fill="none" xmlns="http://www.w3.org/2000/svg">
<g clip-path="url(#clip0_16731_62625)">
<path d="M5 7.20094C5 6.01951 5.99305 5.06055 7.21719 5.06055H32.7828C34.0074 5.06055 35 6.01951 35 7.20094V32.8005C35 33.9823 34.0074 34.9405 32.7828 34.9405H7.21719C5.99316 34.9405 5 33.9824 5 32.8009V7.20058V7.20094Z" fill="#2A2B3B"/>
<path d="M14.1166 30.0656V16.6136H9.6274V30.0656H14.1171H14.1166ZM11.8729 14.7772C13.4381 14.7772 14.4125 13.7443 14.4125 12.4534C14.3832 11.133 13.4381 10.1289 11.9027 10.1289C10.3663 10.1289 9.36279 11.133 9.36279 12.4532C9.36279 13.7442 10.3369 14.7771 11.8435 14.7771H11.8726L11.8729 14.7772ZM16.6015 30.0656H21.0903V22.5542C21.0903 22.1527 21.1196 21.7501 21.2382 21.4633C21.5626 20.6597 22.3012 19.8279 23.5417 19.8279C25.1656 19.8279 25.8157 21.0614 25.8157 22.8699V30.0656H30.3044V22.3526C30.3044 18.2209 28.0901 16.2982 25.1366 16.2982C22.7151 16.2982 21.6517 17.6462 21.0608 18.5643H21.0907V16.614H16.6017C16.6603 17.876 16.6013 30.0661 16.6013 30.0661L16.6015 30.0656Z" fill="#FAFAFA"/>
</g>
<defs>
<clipPath id="clip0_16731_62625">
<rect width="30" height="30" fill="white" transform="translate(5 5)"/>
</clipPath>
</defs>
</svg>
