<svg width="40" height="40" viewBox="0 0 40 40" fill="none" xmlns="http://www.w3.org/2000/svg">
<path d="M15.4347 32C26.756 32 32.9472 22.3828 32.9472 14.043C32.9472 13.7699 32.9418 13.498 32.9298 13.2273C34.1344 12.3334 35.1741 11.2268 36 9.95913C34.8971 10.4619 33.7104 10.8003 32.4654 10.9528C33.7362 10.1715 34.7117 8.93544 35.172 7.46206C33.9638 8.197 32.642 8.71509 31.2636 8.994C30.1404 7.76725 28.5414 7 26.7708 7C23.3718 7 20.6154 9.82637 20.6154 13.3103C20.6154 13.8056 20.6695 14.2873 20.7751 14.7494C15.6596 14.4854 11.1235 11.9741 8.08768 8.15538C7.54091 9.11852 7.25331 10.2132 7.25427 11.3275C7.25427 13.5171 8.34085 15.4501 9.99329 16.5809C9.01585 16.5503 8.05987 16.2796 7.20573 15.7916C7.20482 15.8181 7.20482 15.8439 7.20482 15.8722C7.20482 18.9286 9.3264 21.4806 12.1427 22.0588C11.6138 22.2065 11.068 22.2812 10.5198 22.2809C10.1238 22.2809 9.73799 22.2409 9.36299 22.1671C10.1466 24.6747 12.4188 26.4996 15.1127 26.5506C13.0061 28.2436 10.3524 29.2521 7.46817 29.2521C6.97753 29.2525 6.48729 29.2233 6 29.1646C8.72402 30.9549 11.9585 31.9996 15.435 31.9996" fill="#2A2B3B"/>
</svg>
