<svg width="24" height="24" viewBox="0 0 24 24" fill="none" xmlns="http://www.w3.org/2000/svg">
<path fill-rule="evenodd" clip-rule="evenodd" d="M17.75 5.08203C17.4739 5.08203 17.25 5.30589 17.25 5.58203V18.9154C17.25 19.1915 17.4739 19.4154 17.75 19.4154C18.0261 19.4154 18.25 19.1915 18.25 18.9154V5.58203C18.25 5.30589 18.0261 5.08203 17.75 5.08203Z" fill="#2A2B3B"/>
<path d="M15.0833 9.2487C15.0833 8.62562 15.0833 8.31408 14.9494 8.08203C14.8616 7.93001 14.7354 7.80377 14.5833 7.71601C14.3513 7.58203 14.0397 7.58203 13.4167 7.58203L7.41667 7.58203C6.79359 7.58203 6.48205 7.58203 6.25 7.716C6.09798 7.80377 5.97174 7.93001 5.88397 8.08203C5.75 8.31408 5.75 8.62562 5.75 9.2487C5.75 9.87177 5.75 10.1833 5.88397 10.4154C5.97174 10.5674 6.09798 10.6936 6.25 10.7814C6.48205 10.9154 6.79359 10.9154 7.41667 10.9154L13.4167 10.9154C14.0397 10.9154 14.3513 10.9154 14.5833 10.7814C14.7354 10.6936 14.8616 10.5674 14.9494 10.4154C15.0833 10.1833 15.0833 9.87177 15.0833 9.2487Z" fill="#2A2B3B"/>
<path d="M15.0833 15.2487C15.0833 14.6256 15.0833 14.3141 14.9494 14.082C14.8616 13.93 14.7354 13.8038 14.5833 13.716C14.3513 13.582 14.0397 13.582 13.4167 13.582L9.41667 13.582C8.79359 13.582 8.48205 13.582 8.25 13.716C8.09798 13.8038 7.97174 13.93 7.88397 14.082C7.75 14.3141 7.75 14.6256 7.75 15.2487C7.75 15.8718 7.75 16.1833 7.88397 16.4154C7.97174 16.5674 8.09798 16.6936 8.25 16.7814C8.48205 16.9154 8.79359 16.9154 9.41667 16.9154H13.4167C14.0397 16.9154 14.3513 16.9154 14.5833 16.7814C14.7354 16.6936 14.8616 16.5674 14.9494 16.4154C15.0833 16.1833 15.0833 15.8718 15.0833 15.2487Z" fill="#2A2B3B"/>
</svg>
